JomhuriaLatin-Regular.ufo
<glyph name="exclam" format="1">
  <advance width="505"/>
  <unicode hex="0021"/>
  <outline>
    <contour>
      <point x="218" y="370" type="curve" smooth="yes" name="hr01"/>
      <point x="116" y="370"/>
      <point x="33" y="287"/>
      <point x="33" y="185" type="curve" smooth="yes"/>
      <point x="33" y="83"/>
      <point x="116" y="0"/>
      <point x="218" y="0" type="curve" smooth="yes"/>
      <point x="320" y="0"/>
      <point x="403" y="83"/>
      <point x="403" y="185" type="curve" smooth="yes"/>
      <point x="403" y="287"/>
      <point x="320" y="370"/>
    </contour>
    <contour>
      <point x="395" y="1217" type="line"/>
      <point x="356" y="1265"/>
      <point x="296" y="1289"/>
      <point x="217" y="1289" type="curve" smooth="yes"/>
      <point x="138" y="1289"/>
      <point x="78" y="1265"/>
      <point x="40" y="1217" type="curve" smooth="yes"/>
      <point x="-27" y="1133"/>
      <point x="8" y="1013"/>
      <point x="16" y="989" type="curve" smooth="yes"/>
      <point x="89" y="772"/>
      <point x="111" y="592"/>
      <point x="115" y="500" type="curve" name="hr02"/>
      <point x="316" y="500" type="line"/>
      <point x="320" y="592"/>
      <point x="344" y="772"/>
      <point x="417" y="989" type="curve" smooth="yes"/>
      <point x="425" y="1012"/>
      <point x="460" y="1132"/>
      <point x="393" y="1217" type="curve"/>
    </contour>
  </outline>
</glyph>
<glyph name="quotedbl" format="1">
  <advance width="623"/>
  <unicode hex="0022"/>
  <outline>
    <contour>
      <point x="160" y="1769" type="line" name="hr01"/>
      <point x="106" y="1769"/>
      <point x="77" y="1745"/>
      <point x="62" y="1725" type="curve" smooth="yes"/>
      <point x="25" y="1675"/>
      <point x="44" y="1606"/>
      <point x="48" y="1593" type="curve" smooth="yes"/>
      <point x="88" y="1464"/>
      <point x="94" y="1360"/>
      <point x="95" y="1321" type="curve" smooth="yes"/>
      <point x="96" y="1290" type="line" name="hr02"/>
      <point x="223" y="1290" type="line"/>
      <point x="224" y="1321" type="line" smooth="yes"/>
      <point x="225" y="1360"/>
      <point x="231" y="1464"/>
      <point x="271" y="1594" type="curve" smooth="yes" name="hr03"/>
      <point x="275" y="1607"/>
      <point x="294" y="1676"/>
      <point x="257" y="1726" type="curve" smooth="yes"/>
      <point x="242" y="1746"/>
      <point x="213" y="1770"/>
      <point x="159" y="1770" type="curve"/>
    </contour>
    <contour>
      <point x="560" y="1726" type="line" smooth="yes"/>
      <point x="545" y="1746"/>
      <point x="516" y="1770"/>
      <point x="462" y="1770" type="curve" smooth="yes"/>
      <point x="408" y="1770"/>
      <point x="379" y="1746"/>
      <point x="364" y="1726" type="curve" smooth="yes"/>
      <point x="327" y="1676"/>
      <point x="346" y="1607"/>
      <point x="350" y="1594" type="curve" smooth="yes" name="hr04"/>
      <point x="390" y="1465"/>
      <point x="396" y="1361"/>
      <point x="397" y="1322" type="curve" smooth="yes"/>
      <point x="398" y="1291" type="line" name="hr05"/>
      <point x="525" y="1291" type="line"/>
      <point x="526" y="1322" type="line" smooth="yes"/>
      <point x="527" y="1361"/>
      <point x="533" y="1465"/>
      <point x="573" y="1595" type="curve" smooth="yes" name="hr06"/>
      <point x="577" y="1608"/>
      <point x="596" y="1677"/>
      <point x="559" y="1727" type="curve" smooth="yes"/>
    </contour>
  </outline>
</glyph>
<glyph name="numbersign" format="1">
  <advance width="1275"/>
  <unicode hex="0023"/>
  <outline>
    <contour>
      <point x="718" y="546" type="line" name="hr00"/>
      <point x="498" y="546" type="line"/>
      <point x="547" y="741" type="line"/>
      <point x="767" y="741" type="line"/>
    </contour>
    <contour>
      <point x="1185" y="741" type="line"/>
      <point x="1236" y="942" type="line"/>
      <point x="1019" y="942" type="line"/>
      <point x="1106" y="1290" type="line"/>
      <point x="906" y="1290" type="line"/>
      <point x="819" y="942" type="line"/>
      <point x="599" y="942" type="line"/>
      <point x="686" y="1290" type="line"/>
      <point x="485" y="1290" type="line"/>
      <point x="398" y="942" type="line"/>
      <point x="192" y="942" type="line"/>
      <point x="141" y="741" type="line"/>
      <point x="347" y="741" type="line"/>
      <point x="298" y="546" type="line"/>
      <point x="92" y="546" type="line"/>
      <point x="41" y="345" type="line"/>
      <point x="247" y="345" type="line"/>
      <point x="160" y="1" type="line"/>
      <point x="361" y="1" type="line"/>
      <point x="448" y="345" type="line"/>
      <point x="668" y="345" type="line"/>
      <point x="581" y="1" type="line"/>
      <point x="781" y="1" type="line"/>
      <point x="868" y="345" type="line"/>
      <point x="1085" y="345" type="line"/>
      <point x="1136" y="546" type="line"/>
      <point x="919" y="546" type="line"/>
      <point x="968" y="741" type="line"/>
    </contour>
  </outline>
</glyph>
<glyph name="dollar" format="1">
  <advance width="1025"/>
  <unicode hex="0024"/>
  <outline>
    <contour>
      <point x="965" y="445" type="curve" smooth="yes"/>
      <point x="965" y="261"/>
      <point x="801" y="113"/>
      <point x="580" y="88" type="curve"/>
      <point x="580" y="0" type="line"/>
      <point x="436" y="0" type="line"/>
      <point x="436" y="88" type="line"/>
      <point x="309" y="103"/>
      <point x="213" y="151"/>
      <point x="213" y="151" type="curve"/>
      <point x="213" y="83" type="line"/>
      <point x="87" y="83" type="line"/>
      <point x="87" y="426" type="line"/>
      <point x="214" y="426" type="line"/>
      <point x="214" y="426"/>
      <point x="203" y="264"/>
      <point x="436" y="254" type="curve"/>
      <point x="436" y="505" type="line"/>
      <point x="359" y="528"/>
      <point x="275" y="554"/>
      <point x="207" y="600" type="curve" smooth="yes"/>
      <point x="105" y="669"/>
      <point x="60" y="749"/>
      <point x="60" y="859" type="curve" smooth="yes"/>
      <point x="60" y="1034"/>
      <point x="220" y="1182"/>
      <point x="436" y="1199" type="curve"/>
      <point x="436" y="1289" type="line"/>
      <point x="580" y="1289" type="line"/>
      <point x="580" y="1191" type="line"/>
      <point x="684" y="1172"/>
      <point x="751" y="1133"/>
      <point x="751" y="1133" type="curve"/>
      <point x="751" y="1200" type="line"/>
      <point x="877" y="1200" type="line"/>
      <point x="877" y="858" type="line"/>
      <point x="750" y="858" type="line"/>
      <point x="750" y="858"/>
      <point x="774" y="998"/>
      <point x="580" y="1025" type="curve"/>
      <point x="580" y="798" type="line"/>
      <point x="649" y="780"/>
      <point x="723" y="761"/>
      <point x="782" y="732" type="curve" smooth="yes"/>
      <point x="903" y="674"/>
      <point x="965" y="570"/>
    </contour>
    <contour>
      <point x="355" y="927" type="curve" smooth="yes"/>
      <point x="358" y="888"/>
      <point x="387" y="861"/>
      <point x="431" y="839" type="curve"/>
      <point x="431" y="1026" type="line"/>
      <point x="386" y="1012"/>
      <point x="351" y="982"/>
    </contour>
    <contour>
      <point x="586" y="274" type="line"/>
      <point x="632" y="298"/>
      <point x="655" y="337"/>
      <point x="646" y="390" type="curve" smooth="yes"/>
      <point x="640" y="420"/>
      <point x="619" y="442"/>
      <point x="586" y="461" type="curve"/>
    </contour>
  </outline>
</glyph>
<glyph name="percent" format="1">
  <advance width="1095"/>
  <unicode hex="0025"/>
  <outline>
    <contour>
      <point x="248" y="697" type="curve" smooth="yes" name="hr00"/>
      <point x="310" y="697"/>
      <point x="365" y="739"/>
      <point x="404" y="800" type="curve" smooth="yes"/>
      <point x="438" y="855"/>
      <point x="459" y="927"/>
      <point x="459" y="1006" type="curve" smooth="yes"/>
      <point x="459" y="1079"/>
      <point x="438" y="1145"/>
      <point x="404" y="1195" type="curve" smooth="yes"/>
      <point x="366" y="1251"/>
      <point x="316" y="1290"/>
      <point x="250" y="1290" type="curve" smooth="yes"/>
      <point x="183" y="1290"/>
      <point x="133" y="1248"/>
      <point x="94" y="1187" type="curve" smooth="yes"/>
      <point x="60" y="1132"/>
      <point x="39" y="1060"/>
      <point x="39" y="981" type="curve" smooth="yes"/>
      <point x="39" y="908"/>
      <point x="60" y="842"/>
      <point x="94" y="792" type="curve" smooth="yes"/>
      <point x="132" y="736"/>
      <point x="186" y="697"/>
    </contour>
    <contour>
      <point x="212" y="1163" type="line" smooth="yes"/>
      <point x="212" y="1184"/>
      <point x="229" y="1201"/>
      <point x="250" y="1201" type="curve" smooth="yes"/>
      <point x="271" y="1201"/>
      <point x="288" y="1184"/>
      <point x="288" y="1163" type="curve" smooth="yes"/>
      <point x="288" y="824" type="line" smooth="yes"/>
      <point x="288" y="803"/>
      <point x="271" y="786"/>
      <point x="250" y="786" type="curve" smooth="yes"/>
      <point x="229" y="786"/>
      <point x="212" y="803"/>
      <point x="212" y="824" type="curve" smooth="yes"/>
    </contour>
    <contour>
      <point x="1000" y="498" type="curve" smooth="yes"/>
      <point x="962" y="554"/>
      <point x="912" y="593"/>
      <point x="846" y="593" type="curve" smooth="yes"/>
      <point x="779" y="593"/>
      <point x="729" y="551"/>
      <point x="690" y="490" type="curve" smooth="yes"/>
      <point x="656" y="435"/>
      <point x="635" y="363"/>
      <point x="635" y="284" type="curve" smooth="yes"/>
      <point x="635" y="211"/>
      <point x="656" y="145"/>
      <point x="690" y="95" type="curve" smooth="yes"/>
      <point x="728" y="39"/>
      <point x="782" y="0"/>
      <point x="844" y="0" type="curve" smooth="yes"/>
      <point x="906" y="0"/>
      <point x="961" y="42"/>
      <point x="1000" y="103" type="curve" smooth="yes"/>
      <point x="1034" y="158"/>
      <point x="1055" y="230"/>
      <point x="1055" y="309" type="curve" smooth="yes"/>
      <point x="1055" y="382"/>
      <point x="1034" y="448"/>
    </contour>
    <contour>
      <point x="882" y="128" type="line" smooth="yes"/>
      <point x="882" y="107"/>
      <point x="865" y="90"/>
      <point x="844" y="90" type="curve" smooth="yes"/>
      <point x="823" y="90"/>
      <point x="806" y="107"/>
      <point x="806" y="128" type="curve" smooth="yes"/>
      <point x="806" y="467" type="line" smooth="yes"/>
      <point x="806" y="488"/>
      <point x="823" y="505"/>
      <point x="844" y="505" type="curve" smooth="yes"/>
      <point x="865" y="505"/>
      <point x="882" y="488"/>
      <point x="882" y="467" type="curve" smooth="yes"/>
    </contour>
    <contour>
      <point x="826" y="1291" type="line"/>
      <point x="43" y="2" type="line"/>
      <point x="272" y="2" type="line"/>
      <point x="1055" y="1291" type="line"/>
    </contour>
  </outline>
</glyph>
<glyph name="ampersand" format="1">
  <advance width="1322"/>
  <unicode hex="0026"/>
  <outline>
    <contour>
      <point x="1263" y="626" type="line" name="hr00"/>
      <point x="990" y="450" type="line"/>
      <point x="806" y="778" type="line"/>
      <point x="1097" y="912"/>
      <point x="960" y="1325"/>
      <point x="657" y="1325" type="curve" smooth="yes"/>
      <point x="360" y="1325"/>
      <point x="198" y="1054"/>
      <point x="335" y="781" type="curve"/>
      <point x="121" y="745"/>
      <point x="-26" y="545"/>
      <point x="7" y="324" type="curve" smooth="yes"/>
      <point x="42" y="87"/>
      <point x="234" y="-35"/>
      <point x="459" y="-35" type="curve" smooth="yes"/>
      <point x="644" y="-35"/>
      <point x="723" y="82"/>
      <point x="723" y="82" type="curve"/>
      <point x="767" y="1" type="line"/>
      <point x="1229" y="1" type="line"/>
      <point x="1229" y="160" type="line"/>
      <point x="1155" y="160" type="line"/>
      <point x="1097" y="264" type="line"/>
      <point x="1265" y="373" type="line"/>
    </contour>
    <contour>
      <point x="314" y="332" type="line"/>
      <point x="253" y="480"/>
      <point x="345" y="626"/>
      <point x="405" y="647" type="curve"/>
      <point x="657" y="197" type="line"/>
      <point x="657" y="197"/>
      <point x="416" y="88"/>
      <point x="314" y="333" type="curve"/>
    </contour>
    <contour>
      <point x="758" y="868" type="line"/>
      <point x="676" y="1013" type="line"/>
      <point x="641" y="1087"/>
      <point x="689" y="1122"/>
      <point x="729" y="1121" type="curve" smooth="yes"/>
      <point x="792" y="1119"/>
      <point x="831" y="1058"/>
      <point x="829" y="995" type="curve" smooth="yes"/>
      <point x="828" y="945"/>
      <point x="790" y="893"/>
      <point x="756" y="868" type="curve"/>
    </contour>
  </outline>
</glyph>
<glyph name="quotesingle" format="1">
  <advance width="319"/>
  <unicode hex="0027"/>
  <outline>
    <contour>
      <point x="257" y="1725" type="line" smooth="yes" name="hr01"/>
      <point x="242" y="1745"/>
      <point x="213" y="1769"/>
      <point x="159" y="1769" type="curve" smooth="yes"/>
      <point x="105" y="1769"/>
      <point x="76" y="1745"/>
      <point x="61" y="1725" type="curve" smooth="yes"/>
      <point x="24" y="1675"/>
      <point x="43" y="1606"/>
      <point x="47" y="1593" type="curve" smooth="yes"/>
      <point x="87" y="1464"/>
      <point x="93" y="1360"/>
      <point x="94" y="1321" type="curve" smooth="yes"/>
      <point x="95" y="1290" type="line" name="hr02"/>
      <point x="222" y="1290" type="line"/>
      <point x="223" y="1321" type="line" smooth="yes"/>
      <point x="224" y="1360"/>
      <point x="230" y="1464"/>
      <point x="270" y="1594" type="curve" smooth="yes" name="hr03"/>
      <point x="274" y="1607"/>
      <point x="293" y="1676"/>
      <point x="256" y="1726" type="curve" smooth="yes"/>
    </contour>
  </outline>
</glyph>
<glyph name="parenleft" format="1">
  <advance width="444"/>
  <unicode hex="0028"/>
  <outline>
    <contour>
      <point x="0" y="-100" type="line" name="hr00"/>
      <point x="0" y="1146" type="line" smooth="yes"/>
      <point x="0" y="1473"/>
      <point x="53" y="1635"/>
      <point x="404" y="1635" type="curve"/>
      <point x="404" y="1491" type="line"/>
      <point x="290" y="1491"/>
      <point x="201" y="1407"/>
      <point x="201" y="1302" type="curve" smooth="yes"/>
      <point x="201" y="-257" type="line" smooth="yes"/>
      <point x="201" y="-362"/>
      <point x="290" y="-446"/>
      <point x="404" y="-446" type="curve"/>
      <point x="404" y="-590" type="line"/>
      <point x="53" y="-590"/>
      <point x="0" y="-428"/>
      <point x="0" y="-101" type="curve"/>
    </contour>
  </outline>
</glyph>
<glyph name="parenright" format="1">
  <advance width="444"/>
  <unicode hex="0029"/>
  <outline>
    <contour>
      <point x="404" y="-100" type="line" name="hr00"/>
      <point x="404" y="1146" type="line" smooth="yes"/>
      <point x="404" y="1473"/>
      <point x="351" y="1635"/>
      <point x="0" y="1635" type="curve"/>
      <point x="0" y="1491" type="line"/>
      <point x="114" y="1491"/>
      <point x="203" y="1407"/>
      <point x="203" y="1302" type="curve" smooth="yes"/>
      <point x="203" y="-257" type="line" smooth="yes"/>
      <point x="203" y="-362"/>
      <point x="114" y="-446"/>
      <point x="0" y="-446" type="curve"/>
      <point x="0" y="-590" type="line"/>
      <point x="351" y="-590"/>
      <point x="404" y="-428"/>
      <point x="404" y="-101" type="curve"/>
    </contour>
  </outline>
</glyph>
<glyph name="asterisk" format="1">
  <advance width="989"/>
  <unicode hex="002A"/>
  <outline>
    <contour>
      <point x="769" y="838" type="line" name="hr01"/>
      <point x="794" y="833"/>
      <point x="816" y="829"/>
      <point x="835" y="829" type="curve" smooth="yes"/>
      <point x="907" y="829"/>
      <point x="950" y="887"/>
      <point x="950" y="943" type="curve" smooth="yes"/>
      <point x="950" y="1007"/>
      <point x="905" y="1076"/>
      <point x="833" y="1076" type="curve" smooth="yes"/>
      <point x="797" y="1076"/>
      <point x="767" y="1056"/>
      <point x="729" y="1031" type="curve" smooth="yes"/>
      <point x="692" y="1007"/>
      <point x="644" y="976"/>
      <point x="573" y="952" type="curve"/>
      <point x="606" y="1020"/>
      <point x="641" y="1060"/>
      <point x="670" y="1093" type="curve" smooth="yes"/>
      <point x="702" y="1129"/>
      <point x="729" y="1160"/>
      <point x="729" y="1208" type="curve" smooth="yes"/>
      <point x="729" y="1273"/>
      <point x="674" y="1322"/>
      <point x="601" y="1322" type="curve" smooth="yes"/>
      <point x="532" y="1322"/>
      <point x="484" y="1272"/>
      <point x="484" y="1200" type="curve" smooth="yes"/>
      <point x="484" y="1188"/>
      <point x="487" y="1124"/>
      <point x="487" y="1103" type="curve" smooth="yes"/>
      <point x="487" y="1074"/>
      <point x="485" y="1036"/>
      <point x="475" y="985" type="curve"/>
      <point x="440" y="1039"/>
      <point x="420" y="1090"/>
      <point x="404" y="1133" type="curve" smooth="yes"/>
      <point x="377" y="1204"/>
      <point x="354" y="1265"/>
      <point x="277" y="1265" type="curve" smooth="yes"/>
      <point x="211" y="1265"/>
      <point x="146" y="1202"/>
      <point x="146" y="1138" type="curve" smooth="yes"/>
      <point x="146" y="1069"/>
      <point x="196" y="1043"/>
      <point x="254" y="1013" type="curve" smooth="yes"/>
      <point x="295" y="992"/>
      <point x="344" y="967"/>
      <point x="397" y="920" type="curve"/>
      <point x="322" y="915"/>
      <point x="264" y="925"/>
      <point x="220" y="933" type="curve" smooth="yes"/>
      <point x="195" y="938"/>
      <point x="174" y="942"/>
      <point x="155" y="942" type="curve" smooth="yes" name="hr02"/>
      <point x="83" y="942"/>
      <point x="40" y="884"/>
      <point x="40" y="828" type="curve" smooth="yes"/>
      <point x="40" y="764"/>
      <point x="85" y="695"/>
      <point x="157" y="695" type="curve" smooth="yes"/>
      <point x="193" y="695"/>
      <point x="224" y="715"/>
      <point x="263" y="740" type="curve" smooth="yes"/>
      <point x="302" y="765"/>
      <point x="349" y="795"/>
      <point x="419" y="818" type="curve"/>
      <point x="387" y="752"/>
      <point x="352" y="712"/>
      <point x="323" y="679" type="curve" smooth="yes"/>
      <point x="291" y="642"/>
      <point x="263" y="610"/>
      <point x="263" y="562" type="curve" smooth="yes"/>
      <point x="263" y="491"/>
      <point x="329" y="447"/>
      <point x="390" y="447" type="curve" smooth="yes"/>
      <point x="459" y="447"/>
      <point x="507" y="497"/>
      <point x="507" y="569" type="curve" smooth="yes"/>
      <point x="507" y="581"/>
      <point x="504" y="645"/>
      <point x="504" y="666" type="curve" smooth="yes"/>
      <point x="504" y="699"/>
      <point x="505" y="737"/>
      <point x="515" y="785" type="curve"/>
      <point x="551" y="733"/>
      <point x="570" y="681"/>
      <point x="586" y="638" type="curve" smooth="yes"/>
      <point x="611" y="569"/>
      <point x="635" y="504"/>
      <point x="714" y="504" type="curve" smooth="yes"/>
      <point x="780" y="504"/>
      <point x="845" y="567"/>
      <point x="845" y="631" type="curve" smooth="yes"/>
      <point x="845" y="701"/>
      <point x="795" y="726"/>
      <point x="737" y="755" type="curve" smooth="yes"/>
      <point x="696" y="776"/>
      <point x="647" y="801"/>
      <point x="594" y="849" type="curve"/>
      <point x="669" y="855"/>
      <point x="727" y="844"/>
      <point x="771" y="836" type="curve"/>
    </contour>
  </outline>
</glyph>
<glyph name="plus" format="1">
  <advance width="1148"/>
  <unicode hex="002B"/>
  <outline>
    <contour>
      <point x="1068" y="595" type="line"/>
      <point x="1068" y="394" type="line"/>
      <point x="675" y="394" type="line"/>
      <point x="675" y="0" type="line"/>
      <point x="473" y="0" type="line"/>
      <point x="473" y="394" type="line"/>
      <point x="80" y="394" type="line"/>
      <point x="80" y="595" type="line"/>
      <point x="473" y="595" type="line"/>
      <point x="473" y="987" type="line"/>
      <point x="675" y="987" type="line"/>
      <point x="675" y="595" type="line"/>
    </contour>
  </outline>
</glyph>
<glyph name="comma" format="1">
  <advance width="415"/>
  <unicode hex="002C"/>
  <outline>
    <contour>
      <point x="40" y="163" type="curve" smooth="yes" name="hr00"/>
      <point x="40" y="78"/>
      <point x="105" y="9"/>
      <point x="187" y="0" type="curve"/>
      <point x="161" y="-42"/>
      <point x="103" y="-83"/>
      <point x="67" y="-107" type="curve"/>
      <point x="233" y="-107" type="line"/>
      <point x="279" y="-65"/>
      <point x="385" y="23"/>
      <point x="374" y="163" type="curve" smooth="yes"/>
      <point x="367" y="254"/>
      <point x="296" y="328"/>
      <point x="205" y="328" type="curve" smooth="yes"/>
      <point x="114" y="328"/>
      <point x="40" y="254"/>
    </contour>
  </outline>
</glyph>
<glyph name="hyphen" format="1">
  <advance width="1148"/>
  <unicode hex="002D"/>
  <outline>
    <contour>
      <point x="1068" y="595" type="line"/>
      <point x="1068" y="394" type="line"/>
      <point x="80" y="394" type="line"/>
      <point x="80" y="595" type="line"/>
    </contour>
  </outline>
</glyph>
<glyph name="period" format="1">
  <advance width="409"/>
  <unicode hex="002E"/>
  <outline>
    <contour>
      <point x="205" y="329" type="curve" smooth="yes"/>
      <point x="295" y="329"/>
      <point x="369" y="255"/>
      <point x="369" y="165" type="curve" smooth="yes"/>
      <point x="369" y="74"/>
      <point x="295" y="0"/>
      <point x="205" y="0" type="curve" smooth="yes"/>
      <point x="114" y="0"/>
      <point x="40" y="74"/>
      <point x="40" y="165" type="curve" smooth="yes"/>
      <point x="40" y="255"/>
      <point x="114" y="329"/>
    </contour>
  </outline>
</glyph>
<glyph name="slash" format="1">
  <advance width="1052"/>
  <unicode hex="002F"/>
  <outline>
    <contour>
      <point x="803" y="1289" type="line"/>
      <point x="1032" y="1289" type="line"/>
      <point x="249" y="0" type="line"/>
      <point x="20" y="0" type="line"/>
    </contour>
  </outline>
</glyph>
<glyph name="zero" format="1">
  <advance width="1100"/>
  <unicode hex="0030"/>
  <outline>
    <contour>
      <point x="897" y="1095" type="curve" smooth="yes"/>
      <point x="973" y="982"/>
      <point x="1021" y="834"/>
      <point x="1021" y="672" type="curve" smooth="yes"/>
      <point x="1021" y="495"/>
      <point x="973" y="335"/>
      <point x="896" y="212" type="curve" smooth="yes"/>
      <point x="810" y="75"/>
      <point x="685" y="-20"/>
      <point x="547" y="-20" type="curve" smooth="yes"/>
      <point x="409" y="-20"/>
      <point x="288" y="68"/>
      <point x="203" y="193" type="curve" smooth="yes"/>
      <point x="127" y="306"/>
      <point x="80" y="454"/>
      <point x="80" y="617" type="curve" smooth="yes"/>
      <point x="80" y="793"/>
      <point x="127" y="954"/>
      <point x="204" y="1076" type="curve" smooth="yes"/>
      <point x="291" y="1214"/>
      <point x="403" y="1309"/>
      <point x="553" y="1309" type="curve" smooth="yes"/>
      <point x="701" y="1309"/>
      <point x="812" y="1221"/>
    </contour>
    <contour>
      <point x="634" y="265" type="curve" smooth="yes"/>
      <point x="634" y="1024" type="line" smooth="yes"/>
      <point x="634" y="1071"/>
      <point x="596" y="1108"/>
      <point x="550" y="1108" type="curve" smooth="yes"/>
      <point x="504" y="1108"/>
      <point x="467" y="1071"/>
      <point x="467" y="1024" type="curve" smooth="yes"/>
      <point x="467" y="265" type="line" smooth="yes"/>
      <point x="467" y="218"/>
      <point x="504" y="181"/>
      <point x="550" y="181" type="curve" smooth="yes"/>
      <point x="596" y="181"/>
      <point x="634" y="218"/>
    </contour>
    <contour>
      <point x="87" y="312" type="move" smooth="yes"/>
    </contour>
  </outline>
</glyph>
<glyph name="one" format="1">
  <advance width="655"/>
  <unicode hex="0031"/>
  <outline>
    <contour>
      <point x="370" y="1289" type="line" name="hr00"/>
      <point x="296" y="1107"/>
      <point x="0" y="1092"/>
      <point x="0" y="1092" type="curve"/>
      <point x="0" y="897" type="line"/>
      <point x="181" y="897" type="line"/>
      <point x="181" y="-1" type="line"/>
      <point x="566" y="-1" type="line"/>
      <point x="566" y="1288" type="line"/>
    </contour>
  </outline>
</glyph>
<glyph name="two" format="1">
  <advance width="1024"/>
  <unicode hex="0032"/>
  <outline>
    <contour>
      <point x="783" y="223" type="curve" smooth="yes"/>
      <point x="784" y="388" type="line"/>
      <point x="934" y="388" type="line"/>
      <point x="934" y="0" type="line"/>
      <point x="91" y="0" type="line"/>
      <point x="91" y="0"/>
      <point x="-16" y="208"/>
      <point x="255" y="462" type="curve" smooth="yes"/>
      <point x="404" y="601"/>
      <point x="485" y="713"/>
      <point x="517" y="811" type="curve" smooth="yes"/>
      <point x="579" y="1000"/>
      <point x="509" y="1117"/>
      <point x="368" y="1107" type="curve" smooth="yes"/>
      <point x="241" y="1098"/>
      <point x="193" y="949"/>
      <point x="272" y="799" type="curve"/>
      <point x="92" y="799" type="line"/>
      <point x="10" y="1064"/>
      <point x="187" y="1309"/>
      <point x="499" y="1309" type="curve" smooth="yes"/>
      <point x="716" y="1309"/>
      <point x="934" y="1183"/>
      <point x="934" y="914" type="curve" smooth="yes"/>
      <point x="934" y="705"/>
      <point x="795" y="569"/>
      <point x="640" y="483" type="curve" smooth="yes"/>
      <point x="434" y="367"/>
      <point x="307" y="285"/>
      <point x="224" y="181" type="curve"/>
      <point x="733" y="181" type="line"/>
      <point x="769" y="185"/>
      <point x="783" y="203"/>
    </contour>
  </outline>
</glyph>
<glyph name="three" format="1">
  <advance width="895"/>
  <unicode hex="0033"/>
  <outline>
    <contour>
      <point x="527" y="643" type="curve"/>
      <point x="596" y="637"/>
      <point x="805" y="577"/>
      <point x="805" y="342" type="curve" smooth="yes"/>
      <point x="805" y="153"/>
      <point x="659" y="-20"/>
      <point x="354" y="-20" type="curve" smooth="yes"/>
      <point x="219" y="-20"/>
      <point x="122" y="22"/>
      <point x="50" y="69" type="curve"/>
      <point x="50" y="233" type="line"/>
      <point x="88" y="204"/>
      <point x="139" y="180"/>
      <point x="208" y="180" type="curve" smooth="yes"/>
      <point x="318" y="180"/>
      <point x="409" y="272"/>
      <point x="409" y="377" type="curve" smooth="yes"/>
      <point x="409" y="591"/>
      <point x="178" y="570"/>
      <point x="178" y="570" type="curve"/>
      <point x="178" y="717" type="line"/>
      <point x="178" y="717"/>
      <point x="409" y="720"/>
      <point x="409" y="894" type="curve" smooth="yes"/>
      <point x="409" y="1026"/>
      <point x="318" y="1107"/>
      <point x="208" y="1107" type="curve" smooth="yes"/>
      <point x="139" y="1107"/>
      <point x="88" y="1083"/>
      <point x="50" y="1054" type="curve"/>
      <point x="50" y="1218" type="line"/>
      <point x="122" y="1264"/>
      <point x="219" y="1309"/>
      <point x="354" y="1309" type="curve" smooth="yes"/>
      <point x="659" y="1309"/>
      <point x="805" y="1133"/>
      <point x="805" y="945" type="curve" smooth="yes"/>
      <point x="805" y="707"/>
      <point x="596" y="650"/>
    </contour>
  </outline>
</glyph>
<glyph name="four" format="1">
  <advance width="1143"/>
  <unicode hex="0034"/>
  <outline>
    <contour>
      <point x="1053.98" y="518.122" type="line"/>
      <point x="1053.98" y="321.948" type="line"/>
      <point x="923.2" y="321.948" type="line"/>
      <point x="923.2" y="0" type="line"/>
      <point x="538.087" y="0" type="line"/>
      <point x="538.087" y="321.67" type="line"/>
      <point x="40" y="321.67" type="line"/>
      <point x="40" y="519.235" type="line"/>
      <point x="581" y="1289.48" type="line"/>
      <point x="923.2" y="1289.48" type="line"/>
      <point x="923.2" y="518.122" type="line"/>
    </contour>
    <contour>
      <point x="285.427" y="518.122" type="line"/>
      <point x="538.087" y="518.122" type="line"/>
      <point x="538.087" y="877.078" type="line"/>
    </contour>
  </outline>
</glyph>
<glyph name="five" format="1">
  <advance width="944"/>
  <unicode hex="0035"/>
  <outline>
    <contour>
      <point x="217" y="805" type="line"/>
      <point x="401" y="900"/>
      <point x="854" y="848"/>
      <point x="854" y="438" type="curve" smooth="yes"/>
      <point x="854" y="206"/>
      <point x="684" y="-20"/>
      <point x="378" y="-20" type="curve" smooth="yes"/>
      <point x="243" y="-20"/>
      <point x="146" y="23"/>
      <point x="75" y="69" type="curve"/>
      <point x="75" y="233" type="line"/>
      <point x="112" y="204"/>
      <point x="164" y="181"/>
      <point x="232" y="181" type="curve" smooth="yes"/>
      <point x="342" y="181"/>
      <point x="441" y="271"/>
      <point x="459" y="378" type="curve" smooth="yes"/>
      <point x="482" y="519"/>
      <point x="387" y="657"/>
      <point x="225" y="657" type="curve" smooth="yes"/>
      <point x="40" y="657" type="line"/>
      <point x="154" y="1289" type="line"/>
      <point x="847" y="1289" type="line"/>
      <point x="738" y="1002" type="line"/>
      <point x="251" y="1001" type="line"/>
    </contour>
  </outline>
</glyph>
<glyph name="six" format="1">
  <advance width="1080"/>
  <unicode hex="0036"/>
  <outline>
    <contour>
      <point x="458" y="819" type="line"/>
      <point x="514" y="861"/>
      <point x="599" y="882"/>
      <point x="661" y="881" type="curve" smooth="yes"/>
      <point x="866" y="881"/>
      <point x="1022" y="697"/>
      <point x="1010" y="432" type="curve" smooth="yes"/>
      <point x="997" y="150"/>
      <point x="790" y="-20"/>
      <point x="537" y="-20" type="curve" smooth="yes"/>
      <point x="255" y="-20"/>
      <point x="70" y="263"/>
      <point x="70" y="612" type="curve" smooth="yes"/>
      <point x="70" y="960"/>
      <point x="303" y="1309"/>
      <point x="617" y="1309" type="curve" smooth="yes"/>
      <point x="723" y="1309"/>
      <point x="819" y="1268"/>
      <point x="893" y="1209" type="curve"/>
      <point x="893" y="994" type="line"/>
      <point x="769" y="1104"/>
      <point x="704" y="1107"/>
      <point x="660" y="1107" type="curve" smooth="yes"/>
      <point x="549" y="1107"/>
      <point x="458" y="1020"/>
      <point x="458" y="911" type="curve" smooth="yes"/>
    </contour>
    <contour>
      <point x="624" y="264" type="curve"/>
      <point x="624" y="264" type="line"/>
      <point x="624" y="598" type="line" smooth="yes"/>
      <point x="624" y="644"/>
      <point x="587" y="682"/>
      <point x="541" y="682" type="curve" smooth="yes"/>
      <point x="499" y="682"/>
      <point x="464" y="651"/>
      <point x="457" y="612" type="curve"/>
      <point x="457" y="264" type="line" smooth="yes"/>
      <point x="457" y="218"/>
      <point x="494" y="180"/>
      <point x="540" y="180" type="curve" smooth="yes"/>
      <point x="586" y="180"/>
      <point x="624" y="218"/>
    </contour>
    <contour>
      <point x="55" y="437" type="move" smooth="yes"/>
    </contour>
  </outline>
</glyph>
<glyph name="seven" format="1">
  <advance width="913"/>
  <unicode hex="0037"/>
  <outline>
    <contour>
      <point x="40" y="1289" type="line" name="hr00"/>
      <point x="40" y="894" type="line"/>
      <point x="186" y="894" type="line"/>
      <point x="186" y="894" type="line"/>
      <point x="186" y="951" type="line" smooth="yes"/>
      <point x="186" y="970"/>
      <point x="199" y="986"/>
      <point x="231" y="991" type="curve"/>
      <point x="677" y="991" type="line"/>
      <point x="432" y="855"/>
      <point x="131" y="379"/>
      <point x="94" y="0" type="curve"/>
      <point x="499" y="0" type="line"/>
      <point x="456" y="692"/>
      <point x="823" y="981"/>
      <point x="823" y="981" type="curve"/>
      <point x="823" y="1290" type="line"/>
    </contour>
  </outline>
</glyph>
<glyph name="eight" format="1">
  <advance width="1005"/>
  <unicode hex="0038"/>
  <outline>
    <contour>
      <point x="743" y="679" type="curve"/>
      <point x="777" y="659"/>
      <point x="854" y="601"/>
      <point x="894" y="530" type="curve" smooth="yes"/>
      <point x="930" y="466"/>
      <point x="951" y="382"/>
      <point x="920" y="277" type="curve" smooth="yes"/>
      <point x="867" y="101"/>
      <point x="696" y="-20"/>
      <point x="482" y="-20" type="curve" smooth="yes"/>
      <point x="207" y="-20"/>
      <point x="70" y="164"/>
      <point x="70" y="325" type="curve" smooth="yes"/>
      <point x="70" y="452"/>
      <point x="143" y="570"/>
      <point x="234" y="629" type="curve"/>
      <point x="153" y="690"/>
      <point x="70" y="798"/>
      <point x="70" y="907" type="curve" smooth="yes"/>
      <point x="70" y="1137"/>
      <point x="258" y="1308"/>
      <point x="508" y="1309" type="curve" smooth="yes"/>
      <point x="773" y="1309"/>
      <point x="905" y="1132"/>
      <point x="905" y="977" type="curve" smooth="yes"/>
      <point x="905" y="856"/>
      <point x="829" y="735"/>
    </contour>
    <contour>
      <point x="472" y="181" type="curve" smooth="yes"/>
      <point x="550" y="181"/>
      <point x="605" y="238"/>
      <point x="605" y="319" type="curve" smooth="yes"/>
      <point x="605" y="438"/>
      <point x="435" y="525"/>
      <point x="354" y="561" type="curve"/>
      <point x="207" y="466"/>
      <point x="249" y="181"/>
    </contour>
    <contour>
      <point x="632" y="741" type="curve"/>
      <point x="773" y="833"/>
      <point x="733" y="1106"/>
      <point x="519" y="1106" type="curve" smooth="yes"/>
      <point x="443" y="1106"/>
      <point x="390" y="1052"/>
      <point x="390" y="974" type="curve" smooth="yes"/>
      <point x="391" y="859"/>
      <point x="553" y="776"/>
    </contour>
  </outline>
</glyph>
<glyph name="nine" format="1">
  <advance width="1100"/>
  <unicode hex="0039"/>
  <outline>
    <contour>
      <point x="623" y="469" type="line" name="hr00"/>
      <point x="623" y="376" type="line" smooth="yes"/>
      <point x="623" y="267"/>
      <point x="532" y="180"/>
      <point x="422" y="180" type="curve" smooth="yes"/>
      <point x="377" y="180"/>
      <point x="312" y="183"/>
      <point x="187" y="294" type="curve"/>
      <point x="187" y="79" type="line"/>
      <point x="262" y="20"/>
      <point x="357" y="-20"/>
      <point x="463" y="-20" type="curve" smooth="yes"/>
      <point x="777" y="-20"/>
      <point x="1010" y="328"/>
      <point x="1010" y="677" type="curve" smooth="yes"/>
      <point x="1010" y="1026"/>
      <point x="825" y="1310"/>
      <point x="543" y="1310" type="curve" smooth="yes"/>
      <point x="290" y="1310"/>
      <point x="82" y="1140"/>
      <point x="69" y="858" type="curve" smooth="yes"/>
      <point x="57" y="593"/>
      <point x="213" y="408"/>
      <point x="418" y="408" type="curve" smooth="yes"/>
      <point x="480" y="408"/>
      <point x="564" y="429"/>
      <point x="620" y="471" type="curve"/>
    </contour>
    <contour>
      <point x="454" y="1026" type="line"/>
      <point x="454" y="1072"/>
      <point x="491" y="1110"/>
      <point x="537" y="1110" type="curve" smooth="yes"/>
      <point x="583" y="1110"/>
      <point x="620" y="1072"/>
      <point x="620" y="1026" type="curve" smooth="yes"/>
      <point x="619" y="678" type="line"/>
      <point x="613" y="638"/>
      <point x="578" y="608"/>
      <point x="537" y="608" type="curve" smooth="yes"/>
      <point x="491" y="608"/>
      <point x="454" y="646"/>
      <point x="454" y="692" type="curve" smooth="yes"/>
    </contour>
  </outline>
</glyph>
<glyph name="colon" format="1">
  <advance width="409"/>
  <unicode hex="003A"/>
  <outline>
    <contour>
      <point x="205" y="329" type="curve" smooth="yes"/>
      <point x="296" y="329"/>
      <point x="369" y="255"/>
      <point x="369" y="165" type="curve" smooth="yes"/>
      <point x="369" y="74"/>
      <point x="295" y="0"/>
      <point x="205" y="0" type="curve" smooth="yes"/>
      <point x="114" y="0"/>
      <point x="40" y="74"/>
      <point x="40" y="165" type="curve" smooth="yes"/>
      <point x="40" y="255"/>
      <point x="114" y="329"/>
    </contour>
    <contour>
      <point x="205" y="434" type="curve" smooth="yes"/>
      <point x="114" y="434"/>
      <point x="40" y="508"/>
      <point x="40" y="598" type="curve" smooth="yes"/>
      <point x="40" y="689"/>
      <point x="114" y="763"/>
      <point x="205" y="763" type="curve" smooth="yes"/>
      <point x="295" y="763"/>
      <point x="369" y="689"/>
      <point x="369" y="598" type="curve" smooth="yes"/>
      <point x="369" y="508"/>
      <point x="295" y="434"/>
    </contour>
  </outline>
</glyph>
<glyph name="semicolon" format="1">
  <advance width="415"/>
  <unicode hex="003B"/>
  <outline>
    <contour>
      <point x="40" y="163" type="curve" smooth="yes" name="hr00"/>
      <point x="40" y="78"/>
      <point x="105" y="9"/>
      <point x="187" y="0" type="curve"/>
      <point x="161" y="-42"/>
      <point x="103" y="-83"/>
      <point x="67" y="-107" type="curve"/>
      <point x="233" y="-107" type="line"/>
      <point x="279" y="-65"/>
      <point x="385" y="23"/>
      <point x="374" y="163" type="curve" smooth="yes"/>
      <point x="367" y="254"/>
      <point x="296" y="328"/>
      <point x="205" y="328" type="curve" smooth="yes"/>
      <point x="114" y="328"/>
      <point x="40" y="254"/>
    </contour>
    <contour>
      <point x="205" y="440" type="curve" smooth="yes"/>
      <point x="296" y="440"/>
      <point x="370" y="514"/>
      <point x="370" y="605" type="curve" smooth="yes"/>
      <point x="370" y="696"/>
      <point x="296" y="770"/>
      <point x="205" y="770" type="curve" smooth="yes"/>
      <point x="114" y="770"/>
      <point x="40" y="696"/>
      <point x="40" y="605" type="curve" smooth="yes"/>
      <point x="40" y="514"/>
      <point x="114" y="440"/>
    </contour>
  </outline>
</glyph>
<glyph name="less" format="1">
  <advance width="641"/>
  <unicode hex="003C"/>
  <outline>
    <contour>
      <point x="247" y="494" type="line"/>
      <point x="600" y="987" type="line"/>
      <point x="356" y="987" type="line"/>
      <point x="0" y="494" type="line"/>
      <point x="355" y="0" type="line"/>
      <point x="602" y="0" type="line"/>
    </contour>
  </outline>
</glyph>
<glyph name="equal" format="1">
  <advance width="1148"/>
  <unicode hex="003D"/>
  <outline>
    <contour>
      <point x="80" y="193" type="line"/>
      <point x="80" y="394" type="line"/>
      <point x="1068" y="394" type="line"/>
      <point x="1068" y="193" type="line"/>
    </contour>
    <contour>
      <point x="80" y="595" type="line"/>
      <point x="80" y="796" type="line"/>
      <point x="1068" y="796" type="line"/>
      <point x="1068" y="595" type="line"/>
    </contour>
  </outline>
</glyph>
<glyph name="greater" format="1">
  <advance width="641"/>
  <unicode hex="003E"/>
  <outline>
    <contour>
      <point x="355" y="494" type="line" name="hr00"/>
      <point x="0" y="0" type="line"/>
      <point x="247" y="0" type="line"/>
      <point x="602" y="494" type="line"/>
      <point x="246" y="986" type="line"/>
      <point x="2" y="986" type="line"/>
    </contour>
  </outline>
</glyph>
<glyph name="question" format="1">
  <advance width="848"/>
  <unicode hex="003F"/>
  <outline>
    <contour>
      <point x="432" y="370" type="curve" smooth="yes" name="hr00"/>
      <point x="330" y="370"/>
      <point x="247" y="287"/>
      <point x="247" y="185" type="curve" smooth="yes"/>
      <point x="247" y="83"/>
      <point x="330" y="0"/>
      <point x="432" y="0" type="curve" smooth="yes"/>
      <point x="534" y="0"/>
      <point x="617" y="83"/>
      <point x="617" y="185" type="curve" smooth="yes"/>
      <point x="617" y="287"/>
      <point x="534" y="370"/>
    </contour>
    <contour>
      <point x="374" y="1289" type="line"/>
      <point x="179" y="1289"/>
      <point x="15" y="1139"/>
      <point x="43" y="936" type="curve"/>
      <point x="210" y="864" type="line"/>
      <point x="169" y="984"/>
      <point x="199" y="1092"/>
      <point x="303" y="1095" type="curve" smooth="yes"/>
      <point x="397" y="1097"/>
      <point x="468" y="1022"/>
      <point x="362" y="808" type="curve" smooth="yes"/>
      <point x="264" y="609"/>
      <point x="330" y="501"/>
      <point x="330" y="500" type="curve"/>
      <point x="531" y="500" type="line"/>
      <point x="531" y="500"/>
      <point x="484" y="611"/>
      <point x="647" y="750" type="curve" smooth="yes"/>
      <point x="689" y="786"/>
      <point x="751" y="854"/>
      <point x="756" y="958" type="curve" smooth="yes"/>
      <point x="763" y="1121"/>
      <point x="618" y="1288"/>
      <point x="372" y="1288" type="curve"/>
    </contour>
  </outline>
</glyph>
<glyph name="at" format="1">
  <advance width="1319"/>
  <unicode hex="0040"/>
  <outline>
    <contour>
      <point x="876" y="330" type="curve" smooth="yes"/>
      <point x="876" y="330"/>
      <point x="709" y="330"/>
      <point x="709" y="330" type="curve" smooth="yes"/>
      <point x="709" y="412" type="line" smooth="yes"/>
      <point x="708" y="411"/>
      <point x="668" y="354"/>
      <point x="571" y="354" type="curve" smooth="yes"/>
      <point x="475" y="354"/>
      <point x="382" y="412"/>
      <point x="382" y="510" type="curve" smooth="yes"/>
      <point x="382" y="577"/>
      <point x="425" y="663"/>
      <point x="551" y="704" type="curve" smooth="yes"/>
      <point x="633" y="731"/>
      <point x="709" y="732"/>
      <point x="709" y="732" type="curve"/>
      <point x="709" y="732"/>
      <point x="703" y="810"/>
      <point x="606" y="810" type="curve" smooth="yes"/>
      <point x="562" y="810"/>
      <point x="504" y="791"/>
      <point x="480" y="738" type="curve"/>
      <point x="417" y="803" type="line"/>
      <point x="459" y="881"/>
      <point x="545" y="922"/>
      <point x="649" y="922" type="curve" smooth="yes"/>
      <point x="865" y="922"/>
      <point x="917" y="810"/>
      <point x="917" y="673" type="curve" smooth="yes"/>
      <point x="917" y="474" type="line"/>
      <point x="1060" y="474"/>
      <point x="1102" y="625"/>
      <point x="1100" y="711" type="curve" smooth="yes"/>
      <point x="1097" y="909"/>
      <point x="955" y="1086"/>
      <point x="682" y="1086" type="curve" smooth="yes"/>
      <point x="437" y="1086"/>
      <point x="238" y="887"/>
      <point x="238" y="642" type="curve" smooth="yes"/>
      <point x="238" y="397"/>
      <point x="437" y="196"/>
      <point x="682" y="196" type="curve" smooth="yes"/>
      <point x="1061" y="196" type="line"/>
      <point x="953" y="0" type="line"/>
      <point x="682" y="0" type="line" smooth="yes"/>
      <point x="328" y="0"/>
      <point x="40" y="288"/>
      <point x="40" y="642" type="curve" smooth="yes"/>
      <point x="40" y="996"/>
      <point x="341" y="1289"/>
      <point x="695" y="1289" type="curve" smooth="yes"/>
      <point x="1140" y="1289"/>
      <point x="1280" y="961"/>
      <point x="1280" y="765" type="curve" smooth="yes"/>
      <point x="1280" y="508"/>
      <point x="1126" y="330"/>
    </contour>
    <contour>
      <point x="708" y="478" type="curve" smooth="yes"/>
      <point x="709" y="664" type="line"/>
      <point x="709" y="664"/>
      <point x="600" y="635"/>
      <point x="600" y="551" type="curve" smooth="yes"/>
      <point x="600" y="508"/>
      <point x="629" y="466"/>
      <point x="672" y="466" type="curve" smooth="yes"/>
      <point x="696" y="466"/>
      <point x="708" y="478"/>
    </contour>
  </outline>
</glyph>
<glyph name="A" format="1">
  <advance width="1254"/>
  <unicode hex="0041"/>
  <outline>
    <contour>
      <point x="754" y="1289" type="line" name="hr00"/>
      <point x="256" y="1289" type="line"/>
      <point x="256" y="1099" type="line"/>
      <point x="376" y="1099" type="line"/>
      <point x="0" y="-1" type="line"/>
      <point x="201" y="-1" type="line"/>
      <point x="297" y="280" type="line"/>
      <point x="708" y="280" type="line"/>
      <point x="804" y="-1" type="line"/>
      <point x="1185" y="-1" type="line"/>
    </contour>
    <contour>
      <point x="363" y="475" type="line"/>
      <point x="502" y="881" type="line"/>
      <point x="641" y="475" type="line"/>
    </contour>
  </outline>
</glyph>
<glyph name="B" format="1">
  <advance width="1205"/>
  <unicode hex="0042"/>
  <outline>
    <contour>
      <point x="886" y="682" type="line" name="hr01"/>
      <point x="992" y="732"/>
      <point x="1078" y="807"/>
      <point x="1078" y="957" type="curve" smooth="yes"/>
      <point x="1078" y="1150"/>
      <point x="912" y="1290"/>
      <point x="681" y="1290" type="curve" smooth="yes"/>
      <point x="-1" y="1290" type="line"/>
      <point x="-1" y="1100" type="line"/>
      <point x="105" y="1100" type="line"/>
      <point x="105" y="1" type="line"/>
      <point x="685" y="1" type="line" smooth="yes"/>
      <point x="917" y="1"/>
      <point x="1124" y="162"/>
      <point x="1124" y="379" type="curve" smooth="yes" name="hr02"/>
      <point x="1124" y="621"/>
      <point x="885" y="682"/>
      <point x="885" y="682" type="curve"/>
    </contour>
    <contour>
      <point x="487" y="1099" type="line"/>
      <point x="608" y="1099" type="line" smooth="yes"/>
      <point x="665" y="1099"/>
      <point x="712" y="1049"/>
      <point x="712" y="988" type="curve" smooth="yes" name="hr03"/>
      <point x="712" y="889" type="line" smooth="yes"/>
      <point x="712" y="829"/>
      <point x="665" y="778"/>
      <point x="609" y="778" type="curve" smooth="yes"/>
      <point x="488" y="778" type="line"/>
    </contour>
    <contour>
      <point x="742" y="321" type="line" smooth="yes" name="hr04"/>
      <point x="742" y="253"/>
      <point x="688" y="195"/>
      <point x="624" y="195" type="curve" smooth="yes"/>
      <point x="488" y="195" type="line"/>
      <point x="488" y="582" type="line"/>
      <point x="624" y="582" type="line" smooth="yes"/>
      <point x="689" y="582"/>
      <point x="742" y="525"/>
      <point x="742" y="455" type="curve" smooth="yes"/>
    </contour>
  </outline>
</glyph>
<glyph name="C" format="1">
  <advance width="1170"/>
  <unicode hex="0043"/>
  <outline>
    <contour>
      <point x="957" y="380" type="curve"/>
      <point x="1090" y="246" type="line"/>
      <point x="1028" y="104"/>
      <point x="865" y="-36"/>
      <point x="664" y="-36" type="curve" smooth="yes"/>
      <point x="342" y="-36"/>
      <point x="80" y="257"/>
      <point x="80" y="616" type="curve" smooth="yes"/>
      <point x="80" y="1007"/>
      <point x="329" y="1325"/>
      <point x="654" y="1325" type="curve" smooth="yes"/>
      <point x="827" y="1325"/>
      <point x="914" y="1242"/>
      <point x="915" y="1242" type="curve" smooth="yes"/>
      <point x="915" y="1325" type="line"/>
      <point x="1062" y="1325" type="line"/>
      <point x="1062" y="908" type="line"/>
      <point x="914" y="908" type="line"/>
      <point x="914" y="908"/>
      <point x="912" y="1117"/>
      <point x="707" y="1117" type="curve" smooth="yes"/>
      <point x="593" y="1117"/>
      <point x="501" y="1030"/>
      <point x="501" y="919" type="curve" smooth="yes"/>
      <point x="501" y="371" type="line" smooth="yes"/>
      <point x="501" y="260"/>
      <point x="595" y="169"/>
      <point x="707" y="169" type="curve" smooth="yes"/>
      <point x="897" y="169"/>
      <point x="951" y="356"/>
    </contour>
  </outline>
</glyph>
<glyph name="D" format="1">
  <advance width="1218"/>
  <unicode hex="0044"/>
  <outline>
    <contour>
      <point x="575" y="1289" type="line" smooth="yes"/>
      <point x="879" y="1289"/>
      <point x="1138" y="1007"/>
      <point x="1138" y="668" type="curve" smooth="yes"/>
      <point x="1138" y="300"/>
      <point x="876" y="0"/>
      <point x="569" y="0" type="curve" smooth="yes"/>
      <point x="106" y="0" type="line"/>
      <point x="106" y="1099" type="line"/>
      <point x="0" y="1099" type="line"/>
      <point x="0" y="1289" type="line"/>
    </contour>
    <contour>
      <point x="742" y="374" type="curve" smooth="yes"/>
      <point x="742" y="910" type="line" smooth="yes"/>
      <point x="742" y="1015"/>
      <point x="653" y="1099"/>
      <point x="547" y="1099" type="curve" smooth="yes"/>
      <point x="489" y="1099" type="line"/>
      <point x="489" y="184" type="line"/>
      <point x="547" y="184" type="line" smooth="yes"/>
      <point x="654" y="184"/>
      <point x="742" y="269"/>
    </contour>
  </outline>
</glyph>
<glyph name="E" format="1">
  <advance width="1118"/>
  <unicode hex="0045"/>
  <outline>
    <contour>
      <point x="883" y="393" type="line"/>
      <point x="1029" y="393" type="line"/>
      <point x="1029" y="0" type="line"/>
      <point x="106" y="0" type="line"/>
      <point x="106" y="1099" type="line"/>
      <point x="0" y="1099" type="line"/>
      <point x="0" y="1289" type="line"/>
      <point x="975" y="1289" type="line"/>
      <point x="975" y="890" type="line"/>
      <point x="830" y="890" type="line"/>
      <point x="830" y="1037" type="line" smooth="yes"/>
      <point x="830" y="1082"/>
      <point x="811" y="1098"/>
      <point x="789" y="1099" type="curve" smooth="yes"/>
      <point x="489" y="1099" type="line"/>
      <point x="489" y="775" type="line"/>
      <point x="625" y="776" type="line"/>
      <point x="625" y="841" type="line"/>
      <point x="770" y="841" type="line"/>
      <point x="770" y="514" type="line"/>
      <point x="625" y="514" type="line"/>
      <point x="625" y="580" type="line"/>
      <point x="489" y="580" type="line"/>
      <point x="489" y="184" type="line"/>
      <point x="835" y="184" type="line" smooth="yes"/>
      <point x="869" y="188"/>
      <point x="883" y="205"/>
      <point x="883" y="225" type="curve" smooth="yes"/>
    </contour>
  </outline>
</glyph>
<glyph name="F" format="1">
  <advance width="1065"/>
  <unicode hex="0046"/>
  <outline>
    <contour>
      <point x="0" y="1289" type="line"/>
      <point x="975" y="1289" type="line"/>
      <point x="975" y="890" type="line"/>
      <point x="830" y="890" type="line"/>
      <point x="830" y="1037" type="line" smooth="yes"/>
      <point x="830" y="1082"/>
      <point x="811" y="1098"/>
      <point x="789" y="1099" type="curve" smooth="yes"/>
      <point x="489" y="1099" type="line"/>
      <point x="489" y="754" type="line"/>
      <point x="625" y="754" type="line"/>
      <point x="625" y="820" type="line"/>
      <point x="770" y="820" type="line"/>
      <point x="770" y="492" type="line"/>
      <point x="625" y="492" type="line"/>
      <point x="625" y="559" type="line"/>
      <point x="489" y="559" type="line"/>
      <point x="489" y="0" type="line"/>
      <point x="106" y="0" type="line"/>
      <point x="106" y="1099" type="line"/>
      <point x="0" y="1099" type="line"/>
    </contour>
  </outline>
</glyph>
<glyph name="G" format="1">
  <advance width="1308"/>
  <unicode hex="0047"/>
  <outline>
    <contour>
      <point x="1228" y="694" type="line"/>
      <point x="1228" y="694" type="line"/>
      <point x="1228" y="546" type="line"/>
      <point x="1090" y="546" type="line"/>
      <point x="1090" y="246" type="line"/>
      <point x="1028" y="104"/>
      <point x="865" y="-36"/>
      <point x="664" y="-36" type="curve" smooth="yes"/>
      <point x="342" y="-36"/>
      <point x="80" y="257"/>
      <point x="80" y="616" type="curve" smooth="yes"/>
      <point x="80" y="1007"/>
      <point x="332" y="1325"/>
      <point x="661" y="1325" type="curve" smooth="yes"/>
      <point x="824" y="1325"/>
      <point x="914" y="1242"/>
      <point x="915" y="1242" type="curve" smooth="yes"/>
      <point x="915" y="1325" type="line"/>
      <point x="1061" y="1325" type="line"/>
      <point x="1061" y="908" type="line"/>
      <point x="914" y="908" type="line"/>
      <point x="914" y="908"/>
      <point x="904" y="1119"/>
      <point x="707" y="1119" type="curve" smooth="yes"/>
      <point x="593" y="1119"/>
      <point x="501" y="1030"/>
      <point x="501" y="919" type="curve" smooth="yes"/>
      <point x="501" y="371" type="line" smooth="yes"/>
      <point x="501" y="260"/>
      <point x="595" y="169"/>
      <point x="707" y="169" type="curve" smooth="yes"/>
      <point x="709" y="169"/>
      <point x="743" y="169"/>
      <point x="776" y="169" type="curve"/>
      <point x="776" y="546" type="line"/>
      <point x="638" y="546" type="line"/>
      <point x="638" y="694" type="line"/>
    </contour>
    <contour>
      <point x="654" y="500" type="move" name="top"/>
    </contour>
    <contour>
      <point x="654" y="-100" type="move" name="btm"/>
    </contour>
  </outline>
</glyph>
<glyph name="H" format="1">
  <advance width="1243"/>
  <unicode hex="0048"/>
  <outline>
    <contour>
      <point x="771" y="1289" type="line" name="hr00"/>
      <point x="771" y="794" type="line"/>
      <point x="489" y="794" type="line"/>
      <point x="489" y="1290" type="line"/>
      <point x="0" y="1290" type="line"/>
      <point x="0" y="1100" type="line"/>
      <point x="106" y="1100" type="line"/>
      <point x="106" y="1" type="line"/>
      <point x="489" y="1" type="line"/>
      <point x="489" y="525" type="line"/>
      <point x="771" y="526" type="line"/>
      <point x="771" y="1" type="line"/>
      <point x="1154" y="1" type="line"/>
      <point x="1154" y="1290" type="line"/>
    </contour>
  </outline>
</glyph>
<glyph name="I" format="1">
  <advance width="734"/>
  <unicode hex="0049"/>
  <outline>
    <contour>
      <point x="645" y="1099" type="line" name="hr00"/>
      <point x="645" y="1289" type="line"/>
      <point x="50" y="1289" type="line"/>
      <point x="50" y="1099" type="line"/>
      <point x="156" y="1099" type="line"/>
      <point x="156" y="184" type="line"/>
      <point x="50" y="184" type="line"/>
      <point x="50" y="-1" type="line"/>
      <point x="645" y="-1" type="line"/>
      <point x="645" y="184" type="line"/>
      <point x="539" y="184" type="line"/>
      <point x="539" y="1099" type="line"/>
    </contour>
  </outline>
</glyph>
<glyph name="J" format="1">
  <advance width="980"/>
  <unicode hex="004A"/>
  <outline>
    <contour>
      <point x="401" y="1289" type="line" name="hr00"/>
      <point x="401" y="1100" type="line"/>
      <point x="507" y="1100" type="line"/>
      <point x="507" y="375" type="line" smooth="yes"/>
      <point x="507" y="221"/>
      <point x="427" y="157"/>
      <point x="328" y="157" type="curve" smooth="yes"/>
      <point x="251" y="157"/>
      <point x="151" y="191"/>
      <point x="110" y="282" type="curve"/>
      <point x="0" y="170" type="line"/>
      <point x="74" y="34"/>
      <point x="222" y="-37"/>
      <point x="404" y="-37" type="curve" smooth="yes"/>
      <point x="788" y="-37"/>
      <point x="891" y="158"/>
      <point x="891" y="397" type="curve" smooth="yes"/>
      <point x="891" y="1289" type="line"/>
    </contour>
  </outline>
</glyph>
<glyph name="K" format="1">
  <advance width="1325"/>
  <unicode hex="004B"/>
  <outline>
    <contour>
      <point x="1255.34" y="1289.48" type="line"/>
      <point x="883.029" y="874.994" type="line"/>
      <point x="1175.34" y="0" type="line"/>
      <point x="795.475" y="0" type="line"/>
      <point x="602.632" y="563.288" type="line"/>
      <point x="489.032" y="436.666" type="line"/>
      <point x="489.032" y="0" type="line"/>
      <point x="105.841" y="0" type="line"/>
      <point x="105.841" y="1099.15" type="line"/>
      <point x="0" y="1099.15" type="line"/>
      <point x="0" y="1289.48" type="line"/>
      <point x="489.032" y="1289.2" type="line"/>
      <point x="489.032" y="722.604" type="line"/>
      <point x="999.341" y="1289.48" type="line"/>
    </contour>
  </outline>
</glyph>
<glyph name="L" format="1">
  <advance width="892"/>
  <unicode hex="004C"/>
  <outline>
    <contour>
      <point x="448" y="184" type="line"/>
      <point x="448" y="1289" type="line"/>
      <point x="85" y="1289" type="line"/>
      <point x="85" y="0" type="line"/>
      <point x="891" y="0" type="line"/>
      <point x="891" y="283" type="line"/>
    </contour>
    <contour>
      <point x="488" y="500" type="move" name="top"/>
    </contour>
    <contour>
      <point x="488" y="-100" type="move" name="btm"/>
    </contour>
    <contour>
      <point x="716" y="600" type="move" name="car"/>
    </contour>
  </outline>
</glyph>
<glyph name="M" format="1">
  <advance width="1554"/>
  <unicode hex="004D"/>
  <outline>
    <contour>
      <point x="1056" y="1289" type="line"/>
      <point x="1464" y="1289" type="line"/>
      <point x="1464" y="0" type="line"/>
      <point x="1081" y="0" type="line"/>
      <point x="1081" y="738" type="line"/>
      <point x="845" y="0" type="line"/>
      <point x="576" y="0" type="line"/>
      <point x="307" y="779" type="line"/>
      <point x="307" y="0" type="line"/>
      <point x="106" y="0" type="line"/>
      <point x="106" y="1099" type="line"/>
      <point x="0" y="1099" type="line"/>
      <point x="0" y="1289" type="line"/>
      <point x="522" y="1289" type="line"/>
      <point x="798" y="472" type="line"/>
    </contour>
    <contour>
      <point x="732" y="500" type="move" name="top"/>
    </contour>
    <contour>
      <point x="732" y="-100" type="move" name="btm"/>
    </contour>
  </outline>
</glyph>
<glyph name="N" format="1">
  <advance width="1232"/>
  <unicode hex="004E"/>
  <outline>
    <contour>
      <point x="942" y="1289" type="line"/>
      <point x="1143" y="1289" type="line"/>
      <point x="1143" y="0" type="line"/>
      <point x="877" y="0" type="line"/>
      <point x="308" y="840" type="line"/>
      <point x="308" y="0" type="line"/>
      <point x="107" y="0" type="line"/>
      <point x="107" y="1099" type="line"/>
      <point x="0" y="1099" type="line"/>
      <point x="0" y="1289" type="line"/>
      <point x="432" y="1289" type="line"/>
      <point x="942" y="539" type="line"/>
    </contour>
  </outline>
</glyph>
<glyph name="O" format="1">
  <advance width="1297"/>
  <unicode hex="004F"/>
  <outline>
    <contour>
      <point x="1068.59" y="1106.11" type="curve" smooth="yes"/>
      <point x="1160.86" y="990.846"/>
      <point x="1217.66" y="839.01"/>
      <point x="1217.66" y="672.767" type="curve" smooth="yes"/>
      <point x="1217.66" y="491.839"/>
      <point x="1160.58" y="326.98"/>
      <point x="1067.21" y="201.744" type="curve" smooth="yes"/>
      <point x="962.752" y="61.2686"/>
      <point x="812.301" y="-35.9844"/>
      <point x="644.95" y="-35.9844" type="curve" smooth="yes"/>
      <point x="477.876" y="-35.9844"/>
      <point x="332.135" y="53.7871"/>
      <point x="229.064" y="182.626" type="curve" smooth="yes"/>
      <point x="136.8" y="297.888"/>
      <point x="80" y="449.724"/>
      <point x="80" y="616.244" type="curve" smooth="yes"/>
      <point x="80" y="797.173"/>
      <point x="137.076" y="962.03"/>
      <point x="230.45" y="1087.27" type="curve" smooth="yes"/>
      <point x="334.905" y="1227.74"/>
      <point x="470.948" y="1325.27"/>
      <point x="652.708" y="1325.27" type="curve" smooth="yes"/>
      <point x="830.865" y="1325.27"/>
      <point x="965.522" y="1234.95"/>
    </contour>
    <contour>
      <point x="796.786" y="317.007" type="curve" smooth="yes"/>
      <point x="796.786" y="971.451" type="line" smooth="yes"/>
      <point x="796.786" y="1053.19"/>
      <point x="730.565" y="1119.41"/>
      <point x="648.829" y="1119.41" type="curve" smooth="yes"/>
      <point x="567.093" y="1119.41"/>
      <point x="500.872" y="1053.19"/>
      <point x="500.872" y="971.451" type="curve" smooth="yes"/>
      <point x="500.872" y="317.007" type="line" smooth="yes"/>
      <point x="500.872" y="235.27"/>
      <point x="567.093" y="169.05"/>
      <point x="648.829" y="169.05" type="curve" smooth="yes"/>
      <point x="730.565" y="169.05"/>
      <point x="796.786" y="235.27"/>
    </contour>
  </outline>
</glyph>
<glyph name="P" format="1">
  <advance width="1205"/>
  <unicode hex="0050"/>
  <outline>
    <contour>
      <point x="1125" y="898" type="curve" smooth="yes"/>
      <point x="1126" y="855" type="line" smooth="yes"/>
      <point x="1126" y="643"/>
      <point x="906" y="468"/>
      <point x="676" y="468" type="curve" smooth="yes"/>
      <point x="489" y="468" type="line"/>
      <point x="488" y="0" type="line"/>
      <point x="106" y="0" type="line"/>
      <point x="106" y="1099" type="line"/>
      <point x="0" y="1099" type="line"/>
      <point x="0" y="1289" type="line"/>
      <point x="676" y="1289" type="line" smooth="yes"/>
      <point x="905" y="1289"/>
      <point x="1124" y="1113"/>
    </contour>
    <contour>
      <point x="743" y="789" type="curve" smooth="yes"/>
      <point x="743" y="963" type="line" smooth="yes"/>
      <point x="743" y="1032"/>
      <point x="689" y="1089"/>
      <point x="625" y="1089" type="curve" smooth="yes"/>
      <point x="489" y="1089" type="line"/>
      <point x="489" y="662" type="line"/>
      <point x="625" y="662" type="line" smooth="yes"/>
      <point x="689" y="662"/>
      <point x="743" y="720"/>
    </contour>
  </outline>
</glyph>
<glyph name="Q" format="1">
  <advance width="1297"/>
  <unicode hex="0051"/>
  <outline>
    <contour>
      <point x="1068.59" y="1105.56" type="curve" smooth="yes"/>
      <point x="1160.86" y="990.295"/>
      <point x="1217.66" y="838.458"/>
      <point x="1217.38" y="671.938" type="curve" smooth="yes"/>
      <point x="1217.38" y="491.01"/>
      <point x="1160.3" y="326.151"/>
      <point x="1066.93" y="200.915" type="curve" smooth="yes"/>
      <point x="987.966" y="94.7969"/>
      <point x="882.678" y="13.6143"/>
      <point x="763.813" y="-19.9121" type="curve"/>
      <point x="838.069" y="-109.129"/>
      <point x="949.73" y="-78.373"/>
      <point x="949.73" y="-78.373" type="curve"/>
      <point x="950.284" y="-223.005" type="line"/>
      <point x="848.044" y="-240.737"/>
      <point x="723.085" y="-217.187"/>
      <point x="634.976" y="-128.801" type="curve" smooth="yes"/>
      <point x="605.052" y="-98.5996"/>
      <point x="581.5" y="-64.7979"/>
      <point x="563.214" y="-28.501" type="curve"/>
      <point x="430.496" y="-4.67188"/>
      <point x="314.957" y="74.8477"/>
      <point x="229.064" y="182.074" type="curve" smooth="yes"/>
      <point x="136.8" y="297.336"/>
      <point x="80" y="449.172"/>
      <point x="80" y="615.692" type="curve" smooth="yes"/>
      <point x="80" y="796.621"/>
      <point x="137.077" y="961.479"/>
      <point x="230.45" y="1086.72" type="curve" smooth="yes"/>
      <point x="334.906" y="1227.19"/>
      <point x="470.948" y="1324.72"/>
      <point x="652.708" y="1324.72" type="curve" smooth="yes"/>
      <point x="830.866" y="1324.72"/>
      <point x="965.522" y="1234.4"/>
    </contour>
    <contour>
      <point x="500.596" y="970.899" type="curve" smooth="yes"/>
      <point x="500.596" y="316.455" type="line" smooth="yes"/>
      <point x="500.596" y="234.718"/>
      <point x="566.815" y="168.498"/>
      <point x="648.553" y="168.498" type="curve" smooth="yes"/>
      <point x="730.288" y="168.498"/>
      <point x="796.509" y="234.718"/>
      <point x="796.509" y="316.455" type="curve" smooth="yes"/>
      <point x="796.509" y="970.899" type="line" smooth="yes"/>
      <point x="796.509" y="1052.64"/>
      <point x="730.288" y="1118.86"/>
      <point x="648.553" y="1118.86" type="curve" smooth="yes"/>
      <point x="566.815" y="1118.86"/>
      <point x="500.596" y="1052.64"/>
    </contour>
  </outline>
</glyph>
<glyph name="R" format="1">
  <advance width="1206"/>
  <unicode hex="0052"/>
  <outline>
    <contour>
      <point x="1106" y="0" type="line"/>
      <point x="713" y="0" type="line"/>
      <point x="489" y="495" type="line"/>
      <point x="489" y="0" type="line"/>
      <point x="106" y="0" type="line"/>
      <point x="106" y="1099" type="line"/>
      <point x="0" y="1099" type="line"/>
      <point x="0" y="1289" type="line"/>
      <point x="690" y="1289" type="line" smooth="yes"/>
      <point x="928" y="1289"/>
      <point x="1126" y="1111"/>
      <point x="1126" y="898" type="curve" smooth="yes"/>
      <point x="1126" y="726"/>
      <point x="1019" y="588"/>
      <point x="869" y="526" type="curve"/>
    </contour>
    <contour>
      <point x="489" y="1089" type="line"/>
      <point x="489" y="691" type="line"/>
      <point x="626" y="691" type="line" smooth="yes"/>
      <point x="690" y="691"/>
      <point x="743" y="749"/>
      <point x="743" y="817" type="curve" smooth="yes"/>
      <point x="743" y="963" type="line" smooth="yes"/>
      <point x="743" y="1032"/>
      <point x="689" y="1089"/>
      <point x="626" y="1089" type="curve" smooth="yes"/>
    </contour>
  </outline>
</glyph>
<glyph name="S" format="1">
  <advance width="1223"/>
  <unicode hex="0053"/>
  <outline>
    <contour>
      <point x="939" y="755" type="curve" smooth="yes"/>
      <point x="1087" y="684"/>
      <point x="1163" y="558"/>
      <point x="1163" y="405" type="curve" smooth="yes"/>
      <point x="1163" y="158"/>
      <point x="920" y="-36"/>
      <point x="610" y="-36" type="curve" smooth="yes"/>
      <point x="413" y="-36"/>
      <point x="247" y="47"/>
      <point x="247" y="47" type="curve"/>
      <point x="247" y="-36" type="line"/>
      <point x="100" y="-36" type="line"/>
      <point x="100" y="382" type="line"/>
      <point x="248" y="382" type="line"/>
      <point x="248" y="382"/>
      <point x="232" y="170"/>
      <point x="547" y="170" type="curve" smooth="yes"/>
      <point x="693" y="170"/>
      <point x="779" y="229"/>
      <point x="761" y="332" type="curve" smooth="yes"/>
      <point x="737" y="465"/>
      <point x="431" y="463"/>
      <point x="240" y="594" type="curve" smooth="yes"/>
      <point x="115" y="678"/>
      <point x="60" y="775"/>
      <point x="60" y="909" type="curve" smooth="yes"/>
      <point x="60" y="1135"/>
      <point x="280" y="1325"/>
      <point x="568" y="1325" type="curve" smooth="yes"/>
      <point x="764" y="1325"/>
      <point x="901" y="1242"/>
      <point x="901" y="1242" type="curve"/>
      <point x="901" y="1325" type="line"/>
      <point x="1049" y="1325" type="line"/>
      <point x="1049" y="908" type="line"/>
      <point x="900" y="908" type="line"/>
      <point x="900" y="908"/>
      <point x="937" y="1119"/>
      <point x="606" y="1119" type="curve" smooth="yes"/>
      <point x="522" y="1119"/>
      <point x="425" y="1091"/>
      <point x="432" y="994" type="curve" smooth="yes"/>
      <point x="443" y="855"/>
      <point x="751" y="846"/>
    </contour>
  </outline>
</glyph>
<glyph name="T" format="1">
  <advance width="1232"/>
  <unicode hex="0054"/>
  <outline>
    <contour>
      <point x="0" y="1289" type="line"/>
      <point x="1143" y="1289" type="line"/>
      <point x="1143" y="891" type="line"/>
      <point x="997" y="891" type="line"/>
      <point x="997" y="1049" type="line" smooth="yes"/>
      <point x="997" y="1069"/>
      <point x="983" y="1086"/>
      <point x="948" y="1090" type="curve" smooth="yes"/>
      <point x="763" y="1090" type="line"/>
      <point x="763" y="0" type="line"/>
      <point x="380" y="0" type="line"/>
      <point x="380" y="1089" type="line"/>
      <point x="194" y="1089" type="line" smooth="yes"/>
      <point x="159" y="1086"/>
      <point x="146" y="1068"/>
      <point x="146" y="1048" type="curve" smooth="yes"/>
      <point x="145" y="891" type="line"/>
      <point x="0" y="891" type="line"/>
    </contour>
  </outline>
</glyph>
<glyph name="U" format="1">
  <advance width="1112"/>
  <unicode hex="0055"/>
  <outline>
    <contour>
      <point x="826" y="1289" type="line"/>
      <point x="825" y="417" type="line" smooth="yes"/>
      <point x="825" y="254"/>
      <point x="775" y="158"/>
      <point x="646" y="158" type="curve" smooth="yes"/>
      <point x="518" y="158"/>
      <point x="468" y="263"/>
      <point x="468" y="416" type="curve" smooth="yes"/>
      <point x="468" y="1289" type="line"/>
      <point x="85" y="1290" type="line"/>
      <point x="85" y="438" type="line" smooth="yes"/>
      <point x="85" y="199"/>
      <point x="217" y="-36"/>
      <point x="601" y="-36" type="curve" smooth="yes"/>
      <point x="864" y="-36"/>
      <point x="1027" y="154"/>
      <point x="1027" y="431" type="curve" smooth="yes"/>
      <point x="1025" y="1289" type="line"/>
    </contour>
    <contour>
      <point x="556" y="500" type="move" name="top"/>
    </contour>
    <contour>
      <point x="556" y="-100" type="move" name="btm"/>
    </contour>
  </outline>
</glyph>
<glyph name="V" format="1">
  <advance width="1356"/>
  <unicode hex="0056"/>
  <outline>
    <contour>
      <point x="1067" y="1289" type="line"/>
      <point x="1267" y="1289" type="line"/>
      <point x="828" y="0" type="line"/>
      <point x="473" y="0" type="line"/>
      <point x="104" y="1099" type="line"/>
      <point x="0" y="1100" type="line"/>
      <point x="0" y="1289" type="line"/>
      <point x="448" y="1289" type="line"/>
      <point x="758" y="388" type="line"/>
    </contour>
  </outline>
</glyph>
<glyph name="W" format="1">
  <advance width="2043"/>
  <unicode hex="0057"/>
  <outline>
    <contour>
      <point x="1753" y="1289.48" type="line"/>
      <point x="1953" y="1289.48" type="line"/>
      <point x="1580" y="0" type="line"/>
      <point x="1209.55" y="0" type="line"/>
      <point x="1005.08" y="721.773" type="line"/>
      <point x="797.271" y="0" type="line"/>
      <point x="414.635" y="0" type="line"/>
      <point x="102.65" y="1099.15" type="line"/>
      <point x="0.6875" y="1099.15" type="line"/>
      <point x="0" y="1289.48" type="line"/>
      <point x="423" y="1289.48" type="line"/>
      <point x="692.261" y="325.282" type="line"/>
      <point x="971" y="1289.48" type="line"/>
      <point x="1215" y="1289.48" type="line"/>
      <point x="1481.36" y="343.57" type="line"/>
    </contour>
  </outline>
</glyph>
<glyph name="X" format="1">
  <advance width="1288"/>
  <unicode hex="0058"/>
  <outline>
    <contour>
      <point x="1198" y="0" type="line"/>
      <point x="783" y="0" type="line"/>
      <point x="532" y="406" type="line"/>
      <point x="241" y="0" type="line"/>
      <point x="7" y="0" type="line"/>
      <point x="423" y="580" type="line"/>
      <point x="99" y="1099" type="line"/>
      <point x="0" y="1099" type="line"/>
      <point x="0" y="1289" type="line"/>
      <point x="401" y="1289" type="line"/>
      <point x="647" y="892" type="line"/>
      <point x="930" y="1289" type="line"/>
      <point x="1164" y="1289" type="line"/>
      <point x="755" y="717" type="line"/>
    </contour>
  </outline>
</glyph>
<glyph name="Y" format="1">
  <advance width="1410"/>
  <unicode hex="0059"/>
  <outline>
    <contour>
      <point x="1320" y="1289" type="line"/>
      <point x="869" y="457" type="line"/>
      <point x="869" y="0" type="line"/>
      <point x="486" y="0" type="line"/>
      <point x="486" y="396" type="line"/>
      <point x="102" y="1098" type="line"/>
      <point x="0" y="1099" type="line"/>
      <point x="0" y="1289" type="line"/>
      <point x="404" y="1289" type="line"/>
      <point x="754" y="646" type="line"/>
      <point x="1102" y="1289" type="line"/>
    </contour>
  </outline>
</glyph>
<glyph name="Z" format="1">
  <advance width="1201"/>
  <unicode hex="005A"/>
  <outline>
    <contour>
      <point x="173" y="1289" type="line" name="hr00"/>
      <point x="173" y="889" type="line"/>
      <point x="318" y="889" type="line"/>
      <point x="318" y="1057" type="line" smooth="yes"/>
      <point x="318" y="1077"/>
      <point x="332" y="1094"/>
      <point x="367" y="1098" type="curve"/>
      <point x="622" y="1097" type="line"/>
      <point x="119" y="195" type="line"/>
      <point x="119" y="0" type="line"/>
      <point x="1080" y="0" type="line"/>
      <point x="1080" y="393" type="line"/>
      <point x="935" y="393" type="line"/>
      <point x="935" y="225" type="line" smooth="yes"/>
      <point x="935" y="205"/>
      <point x="921" y="188"/>
      <point x="886" y="184" type="curve"/>
      <point x="518" y="183" type="line"/>
      <point x="1050" y="1134" type="line"/>
      <point x="1051" y="1289" type="line"/>
    </contour>
  </outline>
</glyph>
<glyph name="bracketleft" format="1">
  <advance width="430"/>
  <unicode hex="005B"/>
  <outline>
    <contour>
      <point x="381" y="1629" type="line" name="hr00"/>
      <point x="381" y="1485" type="line"/>
      <point x="203" y="1485" type="line"/>
      <point x="203" y="-452" type="line"/>
      <point x="381" y="-452" type="line"/>
      <point x="381" y="-596" type="line"/>
      <point x="0" y="-596" type="line"/>
      <point x="0" y="1628" type="line"/>
    </contour>
  </outline>
</glyph>
<glyph name="backslash" format="1">
  <advance width="1052"/>
  <unicode hex="005C"/>
  <outline>
    <contour>
      <point x="803" y="0" type="line"/>
      <point x="20" y="1289" type="line"/>
      <point x="249" y="1289" type="line"/>
      <point x="1032" y="0" type="line"/>
    </contour>
  </outline>
</glyph>
<glyph name="bracketright" format="1">
  <advance width="430"/>
  <unicode hex="005D"/>
  <outline>
    <contour>
      <point x="0" y="1629" type="line"/>
      <point x="381" y="1629" type="line"/>
      <point x="381" y="-595" type="line"/>
      <point x="0" y="-595" type="line"/>
      <point x="0" y="-451" type="line"/>
      <point x="178" y="-451" type="line"/>
      <point x="178" y="1486" type="line"/>
      <point x="0" y="1486" type="line"/>
    </contour>
  </outline>
</glyph>
<glyph name="asciicircum" format="1">
  <advance width="682"/>
  <unicode hex="005E"/>
  <outline>
    <contour>
      <point x="388" y="1654" type="line"/>
      <point x="582" y="1325" type="line"/>
      <point x="429" y="1325" type="line"/>
      <point x="341" y="1471" type="line"/>
      <point x="253" y="1325" type="line"/>
      <point x="100" y="1325" type="line"/>
      <point x="294" y="1654" type="line"/>
    </contour>
  </outline>
</glyph>
<glyph name="underscore" format="1">
  <advance width="958"/>
  <unicode hex="005F"/>
  <outline>
    <contour>
      <point x="-51" y="-331" type="line"/>
      <point x="-51" y="-205" type="line"/>
      <point x="1004" y="-205" type="line"/>
      <point x="1004" y="-331" type="line"/>
    </contour>
  </outline>
</glyph>
<glyph name="a" format="1">
  <advance width="1186"/>
  <unicode hex="0061"/>
  <outline>
    <contour>
      <point x="1031" y="557" type="line" smooth="yes" name="hr01"/>
      <point x="1031" y="870"/>
      <point x="881" y="1010"/>
      <point x="545" y="1010" type="curve" smooth="yes"/>
      <point x="351" y="1010"/>
      <point x="202" y="935"/>
      <point x="125" y="798" type="curve"/>
      <point x="232" y="689" type="line"/>
      <point x="280" y="783"/>
      <point x="387" y="817"/>
      <point x="466" y="817" type="curve" smooth="yes"/>
      <point x="654" y="817"/>
      <point x="662" y="660"/>
      <point x="662" y="660" type="curve"/>
      <point x="662" y="660"/>
      <point x="60" y="650"/>
      <point x="60" y="256" type="curve" smooth="yes"/>
      <point x="60" y="74"/>
      <point x="236" y="-24"/>
      <point x="402" y="-24" type="curve" smooth="yes"/>
      <point x="592" y="-24"/>
      <point x="661" y="98"/>
      <point x="661" y="98" type="curve"/>
      <point x="661" y="-1" type="line" name="hr02"/>
      <point x="1136" y="-1" type="line"/>
      <point x="1136" y="171" type="line"/>
      <point x="1030" y="171" type="line"/>
    </contour>
    <contour>
      <point x="660" y="196" type="line"/>
      <point x="658" y="194" type="line"/>
      <point x="658" y="194"/>
      <point x="634" y="169"/>
      <point x="586" y="169" type="curve" smooth="yes" name="hr03"/>
      <point x="500" y="169"/>
      <point x="447" y="254"/>
      <point x="447" y="332" type="curve" smooth="yes"/>
      <point x="447" y="490"/>
      <point x="650" y="545"/>
      <point x="652" y="546" type="curve" smooth="yes"/>
      <point x="660" y="548" type="line"/>
    </contour>
  </outline>
</glyph>
<glyph name="b" format="1">
  <advance width="1165"/>
  <unicode hex="0062"/>
  <outline>
    <contour>
      <point x="700" y="1010" type="line" name="hr00"/>
      <point x="547" y="1010"/>
      <point x="476" y="911"/>
      <point x="476" y="911" type="curve"/>
      <point x="476" y="1289" type="line"/>
      <point x="1" y="1289" type="line"/>
      <point x="1" y="1112" type="line"/>
      <point x="107" y="1112" type="line"/>
      <point x="107" y="0" type="line"/>
      <point x="477" y="0" type="line"/>
      <point x="477" y="93" type="line"/>
      <point x="477" y="93"/>
      <point x="571" y="-13"/>
      <point x="720" y="-13" type="curve" smooth="yes"/>
      <point x="889" y="-13"/>
      <point x="1086" y="128"/>
      <point x="1086" y="525" type="curve" smooth="yes"/>
      <point x="1086" y="811"/>
      <point x="927" y="1011"/>
      <point x="700" y="1011" type="curve"/>
    </contour>
    <contour>
      <point x="674" y="321" type="line" smooth="yes"/>
      <point x="674" y="243"/>
      <point x="611" y="180"/>
      <point x="533" y="180" type="curve"/>
      <point x="476" y="179" type="line"/>
      <point x="476" y="828" type="line"/>
      <point x="533" y="827" type="line"/>
      <point x="610" y="827"/>
      <point x="673" y="764"/>
      <point x="673" y="686" type="curve" smooth="yes"/>
    </contour>
  </outline>
</glyph>
<glyph name="c" format="1">
  <advance width="1134"/>
  <unicode hex="0063"/>
  <outline>
    <contour>
      <point x="487" y="377" type="line" name="hr00"/>
      <point x="487" y="610" type="line" smooth="yes"/>
      <point x="487" y="725"/>
      <point x="583" y="818"/>
      <point x="700" y="818" type="curve" smooth="yes"/>
      <point x="877" y="818"/>
      <point x="908" y="642"/>
      <point x="912" y="606" type="curve"/>
      <point x="1045" y="606" type="line"/>
      <point x="1045" y="1010" type="line"/>
      <point x="914" y="1010" type="line"/>
      <point x="914" y="922" type="line"/>
      <point x="914" y="922"/>
      <point x="798" y="1010"/>
      <point x="604" y="1010" type="curve" smooth="yes"/>
      <point x="351" y="1010"/>
      <point x="79" y="848"/>
      <point x="79" y="493" type="curve" smooth="yes"/>
      <point x="79" y="170"/>
      <point x="289" y="-23"/>
      <point x="641" y="-23" type="curve" smooth="yes"/>
      <point x="886" y="-23"/>
      <point x="1010" y="137"/>
      <point x="1054" y="211" type="curve"/>
      <point x="936" y="329" type="line"/>
      <point x="906" y="265"/>
      <point x="838" y="169"/>
      <point x="700" y="169" type="curve" smooth="yes"/>
      <point x="582" y="169"/>
      <point x="486" y="263"/>
      <point x="486" y="378" type="curve"/>
    </contour>
  </outline>
</glyph>
<glyph name="d" format="1">
  <advance width="1139"/>
  <unicode hex="0064"/>
  <outline>
    <contour>
      <point x="584" y="1289" type="line"/>
      <point x="1059" y="1289" type="line"/>
      <point x="1060" y="0" type="line"/>
      <point x="747" y="0" type="line"/>
      <point x="720" y="94" type="line"/>
      <point x="720" y="94"/>
      <point x="610" y="-13"/>
      <point x="446" y="-13" type="curve" smooth="yes"/>
      <point x="176" y="-13"/>
      <point x="80" y="277"/>
      <point x="80" y="525" type="curve" smooth="yes"/>
      <point x="80" y="811"/>
      <point x="239" y="1010"/>
      <point x="466" y="1010" type="curve" smooth="yes"/>
      <point x="618" y="1010"/>
      <point x="690" y="911"/>
      <point x="690" y="911" type="curve"/>
      <point x="690" y="1135" type="line"/>
      <point x="584" y="1213" type="line"/>
    </contour>
    <contour>
      <point x="690" y="179" type="line"/>
      <point x="690" y="179" type="line"/>
      <point x="690" y="828" type="line"/>
      <point x="632" y="827" type="line" smooth="yes"/>
      <point x="555" y="827"/>
      <point x="492" y="764"/>
      <point x="492" y="687" type="curve" smooth="yes"/>
      <point x="492" y="321" type="line" smooth="yes"/>
      <point x="492" y="243"/>
      <point x="555" y="180"/>
      <point x="632" y="180" type="curve" smooth="yes"/>
    </contour>
  </outline>
</glyph>
<glyph name="e" format="1">
  <advance width="1136"/>
  <unicode hex="0065"/>
  <outline>
    <contour>
      <point x="488" y="377" type="line" name="hr00"/>
      <point x="488" y="456" type="line"/>
      <point x="1057" y="456" type="line"/>
      <point x="1056" y="601" type="line" smooth="yes"/>
      <point x="1056" y="631"/>
      <point x="1051" y="737"/>
      <point x="988" y="834" type="curve" smooth="yes"/>
      <point x="912" y="950"/>
      <point x="784" y="1009"/>
      <point x="607" y="1009" type="curve" smooth="yes"/>
      <point x="354" y="1009"/>
      <point x="82" y="847"/>
      <point x="82" y="492" type="curve" smooth="yes"/>
      <point x="82" y="242"/>
      <point x="224" y="-25"/>
      <point x="623" y="-25" type="curve" smooth="yes"/>
      <point x="818" y="-25"/>
      <point x="964" y="53"/>
      <point x="1056" y="208" type="curve"/>
      <point x="938" y="326" type="line"/>
      <point x="908" y="262"/>
      <point x="840" y="166"/>
      <point x="702" y="166" type="curve" smooth="yes"/>
      <point x="585" y="166"/>
      <point x="489" y="260"/>
      <point x="489" y="375" type="curve"/>
    </contour>
    <contour>
      <point x="657" y="816" type="curve" smooth="yes"/>
      <point x="816" y="816"/>
      <point x="800" y="617"/>
      <point x="800" y="617" type="curve"/>
      <point x="489" y="617" type="line"/>
      <point x="489" y="617"/>
      <point x="473" y="816"/>
    </contour>
  </outline>
</glyph>
<glyph name="f" format="1">
  <advance width="777"/>
  <unicode hex="0066"/>
  <outline>
    <contour>
      <point x="181" y="1041" type="line" name="hr00"/>
      <point x="182" y="981" type="line"/>
      <point x="70" y="981" type="line"/>
      <point x="70" y="809" type="line"/>
      <point x="177" y="809" type="line"/>
      <point x="177" y="0" type="line"/>
      <point x="547" y="0" type="line"/>
      <point x="547" y="809" type="line"/>
      <point x="655" y="809" type="line"/>
      <point x="655" y="981" type="line"/>
      <point x="547" y="981" type="line"/>
      <point x="547" y="1034" type="line" smooth="yes"/>
      <point x="547" y="1160"/>
      <point x="621" y="1170"/>
      <point x="644" y="1170" type="curve" smooth="yes"/>
      <point x="667" y="1170"/>
      <point x="691" y="1162"/>
      <point x="708" y="1149" type="curve"/>
      <point x="708" y="1258" type="line"/>
      <point x="692" y="1269"/>
      <point x="605" y="1324"/>
      <point x="484" y="1324" type="curve" smooth="yes"/>
      <point x="197" y="1324"/>
      <point x="182" y="1088"/>
      <point x="183" y="1041" type="curve"/>
    </contour>
  </outline>
</glyph>
<glyph name="g" format="1">
  <advance width="1122"/>
  <unicode hex="0067"/>
  <outline>
    <contour>
      <point x="657" y="-43" type="line"/>
      <point x="655" y="-109"/>
      <point x="636" y="-212"/>
      <point x="473" y="-212" type="curve" smooth="yes"/>
      <point x="408" y="-212"/>
      <point x="343" y="-188"/>
      <point x="298" y="-147" type="curve"/>
      <point x="225" y="-277" type="line"/>
      <point x="304" y="-349"/>
      <point x="415" y="-387"/>
      <point x="547" y="-387" type="curve" smooth="yes"/>
      <point x="870" y="-387"/>
      <point x="1027" y="-247"/>
      <point x="1027" y="40" type="curve" smooth="yes"/>
      <point x="1027" y="987" type="line"/>
      <point x="706" y="987" type="line"/>
      <point x="656" y="861" type="line"/>
    </contour>
    <contour>
      <point x="656" y="199" type="line"/>
      <point x="552" y="134"/>
      <point x="433" y="179"/>
      <point x="433" y="378" type="curve" smooth="yes"/>
      <point x="433" y="601" type="line" smooth="yes"/>
      <point x="433" y="774"/>
      <point x="497" y="873"/>
      <point x="666" y="835" type="curve"/>
      <point x="697" y="920" type="line"/>
      <point x="697" y="920"/>
      <point x="616" y="997"/>
      <point x="434" y="997" type="curve" smooth="yes"/>
      <point x="168" y="997"/>
      <point x="38" y="747"/>
      <point x="38" y="475" type="curve" smooth="yes"/>
      <point x="38" y="197"/>
      <point x="144" y="-13"/>
      <point x="414" y="-13" type="curve" smooth="yes"/>
      <point x="627" y="-13"/>
      <point x="696" y="154"/>
      <point x="696" y="154" type="curve"/>
    </contour>
    <contour>
      <point x="1027" y="829" type="line"/>
      <point x="1110" y="851" type="line"/>
      <point x="1110" y="987" type="line"/>
      <point x="765" y="987" type="line"/>
      <point x="765" y="851" type="line"/>
    </contour>
    <contour>
      <point x="574" y="500" type="move" name="top"/>
    </contour>
    <contour>
      <point x="574" y="-100" type="move" name="btm"/>
    </contour>
  </outline>
</glyph>
<glyph name="h" format="1">
  <advance width="1123"/>
  <unicode hex="0068"/>
  <outline>
    <contour>
      <point x="477" y="891" type="line"/>
      <point x="477" y="891"/>
      <point x="550" y="1009"/>
      <point x="711" y="1009" type="curve" smooth="yes"/>
      <point x="937" y="1009"/>
      <point x="1033" y="889"/>
      <point x="1033" y="608" type="curve" smooth="yes"/>
      <point x="1033" y="0" type="line"/>
      <point x="664" y="0" type="line"/>
      <point x="664" y="666" type="line" smooth="yes"/>
      <point x="664" y="740"/>
      <point x="606" y="799"/>
      <point x="531" y="799" type="curve" smooth="yes"/>
      <point x="476" y="799" type="line"/>
      <point x="476" y="-1" type="line"/>
      <point x="106" y="-1" type="line"/>
      <point x="106" y="1112" type="line"/>
      <point x="0" y="1112" type="line"/>
      <point x="0" y="1289" type="line"/>
      <point x="476" y="1289" type="line"/>
    </contour>
  </outline>
</glyph>
<glyph name="k" format="1">
  <advance width="1229"/>
  <unicode hex="006B"/>
  <outline>
    <contour>
      <point x="942.047" y="986.931" type="line"/>
      <point x="1159.27" y="986.931" type="line"/>
      <point x="868.899" y="663.311" type="line"/>
      <point x="1088.34" y="0" type="line"/>
      <point x="721.773" y="0" type="line"/>
      <point x="598.478" y="362.133" type="line"/>
      <point x="475.456" y="217.777" type="line"/>
      <point x="475.456" y="0" type="line"/>
      <point x="105.564" y="0" type="line"/>
      <point x="105.564" y="1113.28" type="line"/>
      <point x="0" y="1113.28" type="line"/>
      <point x="0" y="1289.48" type="line"/>
      <point x="475.456" y="1289.48" type="line"/>
      <point x="475.456" y="469.914" type="line"/>
    </contour>
  </outline>
</glyph>
<glyph name="l" format="1">
  <advance width="565"/>
  <unicode hex="006C"/>
  <outline>
    <contour>
      <point x="106" y="0" type="line" name="hr00"/>
      <point x="476" y="0" type="line"/>
      <point x="476" y="1289" type="line"/>
      <point x="1" y="1289" type="line"/>
      <point x="1" y="1113" type="line"/>
      <point x="107" y="1113" type="line"/>
    </contour>
  </outline>
</glyph>
<glyph name="m" format="1">
  <advance width="1698"/>
  <unicode hex="006D"/>
  <outline>
    <contour>
      <point x="976" y="886" type="curve"/>
      <point x="976" y="886"/>
      <point x="1097" y="1010"/>
      <point x="1262" y="1010" type="curve" smooth="yes"/>
      <point x="1498" y="1010"/>
      <point x="1608" y="879"/>
      <point x="1608" y="598" type="curve" smooth="yes"/>
      <point x="1608" y="0" type="line"/>
      <point x="1238" y="0" type="line"/>
      <point x="1238" y="696" type="line" smooth="yes"/>
      <point x="1238" y="772"/>
      <point x="1181" y="828"/>
      <point x="1106" y="828" type="curve" smooth="yes"/>
      <point x="1059" y="828"/>
      <point x="1024" y="801"/>
      <point x="1024" y="801" type="curve"/>
      <point x="1038" y="770"/>
      <point x="1033" y="609"/>
      <point x="1033" y="609" type="curve" smooth="yes"/>
      <point x="1033" y="609"/>
      <point x="1033" y="0"/>
      <point x="1033" y="0" type="curve"/>
      <point x="664" y="0" type="line"/>
      <point x="664" y="666" type="line" smooth="yes"/>
      <point x="664" y="741"/>
      <point x="606" y="799"/>
      <point x="531" y="799" type="curve" smooth="yes"/>
      <point x="477" y="800" type="line"/>
      <point x="477" y="0" type="line"/>
      <point x="106" y="0" type="line"/>
      <point x="106" y="816" type="line"/>
      <point x="0" y="816" type="line"/>
      <point x="0" y="987" type="line"/>
      <point x="476" y="987" type="line"/>
      <point x="477" y="887" type="line"/>
      <point x="477" y="887"/>
      <point x="555" y="1009"/>
      <point x="711" y="1009" type="curve" smooth="yes"/>
      <point x="922" y="1009"/>
      <point x="976" y="886"/>
    </contour>
  </outline>
</glyph>
<glyph name="n" format="1">
  <advance width="1127"/>
  <unicode hex="006E"/>
  <outline>
    <contour>
      <point x="747" y="1009" type="curve" smooth="yes"/>
      <point x="585" y="1009"/>
      <point x="481" y="837"/>
      <point x="481" y="837" type="curve"/>
      <point x="480" y="987" type="line"/>
      <point x="296" y="987" type="line"/>
      <point x="26" y="930" type="line"/>
      <point x="26" y="811" type="line"/>
      <point x="114" y="769" type="line"/>
      <point x="115" y="0" type="line"/>
      <point x="481" y="0" type="line"/>
      <point x="480" y="759" type="line"/>
      <point x="510" y="781"/>
      <point x="541" y="799"/>
      <point x="584" y="799" type="curve" smooth="yes"/>
      <point x="653" y="799"/>
      <point x="681" y="758"/>
      <point x="680" y="695" type="curve" smooth="yes"/>
      <point x="680" y="0" type="line"/>
      <point x="1050" y="0" type="line"/>
      <point x="1050" y="611" type="line" smooth="yes"/>
      <point x="1050" y="896"/>
      <point x="970" y="1009"/>
    </contour>
    <contour>
      <point x="538" y="500" type="move" name="top"/>
    </contour>
    <contour>
      <point x="538" y="-100" type="move" name="btm"/>
    </contour>
  </outline>
</glyph>
<glyph name="o" format="1">
  <advance width="1198"/>
  <unicode hex="006F"/>
  <outline>
    <contour>
      <point x="598" y="1010" type="curve" smooth="yes"/>
      <point x="949" y="1010"/>
      <point x="1117" y="820"/>
      <point x="1117" y="493" type="curve" smooth="yes"/>
      <point x="1117" y="167"/>
      <point x="949" y="-23"/>
      <point x="598" y="-23" type="curve" smooth="yes"/>
      <point x="247" y="-23"/>
      <point x="80" y="167"/>
      <point x="80" y="493" type="curve" smooth="yes"/>
      <point x="80" y="820"/>
      <point x="248" y="1010"/>
    </contour>
    <contour>
      <point x="712" y="274" type="curve" smooth="yes"/>
      <point x="712" y="713" type="line" smooth="yes"/>
      <point x="712" y="804"/>
      <point x="667" y="879"/>
      <point x="599" y="879" type="curve" smooth="yes"/>
      <point x="530" y="879"/>
      <point x="485" y="805"/>
      <point x="485" y="713" type="curve" smooth="yes"/>
      <point x="485" y="274" type="line" smooth="yes"/>
      <point x="485" y="183"/>
      <point x="530" y="108"/>
      <point x="599" y="108" type="curve" smooth="yes"/>
      <point x="667" y="108"/>
      <point x="712" y="183"/>
    </contour>
  </outline>
</glyph>
<glyph name="p" format="1">
  <advance width="1140"/>
  <unicode hex="0070"/>
  <outline>
    <contour>
      <point x="480" y="987" type="line"/>
      <point x="296" y="987" type="line"/>
      <point x="26" y="930" type="line"/>
      <point x="26" y="811" type="line"/>
      <point x="114" y="769" type="line"/>
      <point x="115" y="-410" type="line"/>
      <point x="480" y="-410" type="line"/>
    </contour>
    <contour>
      <point x="477" y="785" type="line"/>
      <point x="581" y="850"/>
      <point x="700" y="805"/>
      <point x="700" y="606" type="curve" smooth="yes"/>
      <point x="700" y="383" type="line" smooth="yes"/>
      <point x="700" y="210"/>
      <point x="636" y="111"/>
      <point x="467" y="149" type="curve"/>
      <point x="467" y="46" type="line"/>
      <point x="467" y="46"/>
      <point x="547" y="-13"/>
      <point x="699" y="-13" type="curve" smooth="yes"/>
      <point x="965" y="-13"/>
      <point x="1095" y="237"/>
      <point x="1095" y="509" type="curve" smooth="yes"/>
      <point x="1095" y="787"/>
      <point x="989" y="997"/>
      <point x="719" y="997" type="curve" smooth="yes"/>
      <point x="506" y="997"/>
      <point x="437" y="830"/>
      <point x="437" y="830" type="curve"/>
    </contour>
    <contour>
      <point x="560" y="500" type="move" name="top"/>
    </contour>
    <contour>
      <point x="560" y="-100" type="move" name="btm"/>
    </contour>
  </outline>
</glyph>
<glyph name="q" format="1">
  <advance width="1092"/>
  <unicode hex="0071"/>
  <outline>
    <contour>
      <point x="1021" y="987" type="line"/>
      <point x="710" y="987" type="line"/>
      <point x="656" y="841" type="line"/>
      <point x="656" y="-410" type="line"/>
      <point x="1022" y="-410" type="line"/>
    </contour>
    <contour>
      <point x="656" y="199" type="line"/>
      <point x="552" y="134"/>
      <point x="433" y="179"/>
      <point x="433" y="378" type="curve" smooth="yes"/>
      <point x="433" y="601" type="line" smooth="yes"/>
      <point x="433" y="774"/>
      <point x="497" y="873"/>
      <point x="666" y="835" type="curve"/>
      <point x="695" y="921" type="line"/>
      <point x="661" y="941"/>
      <point x="587" y="997"/>
      <point x="434" y="997" type="curve" smooth="yes"/>
      <point x="168" y="997"/>
      <point x="38" y="747"/>
      <point x="38" y="475" type="curve" smooth="yes"/>
      <point x="38" y="197"/>
      <point x="144" y="-13"/>
      <point x="414" y="-13" type="curve" smooth="yes"/>
      <point x="627" y="-13"/>
      <point x="696" y="154"/>
      <point x="696" y="154" type="curve"/>
    </contour>
    <contour>
      <point x="530" y="500" type="move" name="top"/>
    </contour>
    <contour>
      <point x="530" y="-100" type="move" name="btm"/>
    </contour>
  </outline>
</glyph>
<glyph name="r" format="1">
  <advance width="820"/>
  <unicode hex="0072"/>
  <outline>
    <contour>
      <point x="475" y="882" type="line" name="hr01"/>
      <point x="475" y="986" type="line"/>
      <point x="0" y="986" type="line"/>
      <point x="0" y="815" type="line"/>
      <point x="106" y="815" type="line"/>
      <point x="106" y="-1" type="line"/>
      <point x="476" y="-1" type="line"/>
      <point x="476" y="609" type="line" smooth="yes"/>
      <point x="476" y="728"/>
      <point x="534" y="796"/>
      <point x="635" y="796" type="curve" smooth="yes" name="hr02"/>
      <point x="696" y="796"/>
      <point x="749" y="772"/>
      <point x="771" y="761" type="curve"/>
      <point x="771" y="975" type="line"/>
      <point x="762" y="982"/>
      <point x="722" y="1008"/>
      <point x="651" y="1008" type="curve" smooth="yes"/>
      <point x="531" y="1008"/>
      <point x="476" y="880"/>
      <point x="476" y="880" type="curve"/>
    </contour>
  </outline>
</glyph>
<glyph name="s" format="1">
  <advance width="1035"/>
  <unicode hex="0073"/>
  <outline>
    <contour>
      <point x="660" y="651" type="curve" smooth="yes"/>
      <point x="942" y="576"/>
      <point x="975" y="466"/>
      <point x="975" y="331" type="curve" smooth="yes"/>
      <point x="975" y="118"/>
      <point x="766" y="-23"/>
      <point x="517" y="-23" type="curve" smooth="yes"/>
      <point x="299" y="-23"/>
      <point x="203" y="65"/>
      <point x="203" y="65" type="curve"/>
      <point x="203" y="0" type="line"/>
      <point x="71" y="0" type="line"/>
      <point x="71" y="282" type="line"/>
      <point x="203" y="282" type="line"/>
      <point x="203" y="282"/>
      <point x="199" y="108"/>
      <point x="464" y="108" type="curve" smooth="yes"/>
      <point x="572" y="108"/>
      <point x="634" y="149"/>
      <point x="634" y="197" type="curve" smooth="yes"/>
      <point x="634" y="272"/>
      <point x="546" y="294"/>
      <point x="412" y="333" type="curve" smooth="yes"/>
      <point x="265" y="376"/>
      <point x="41" y="437"/>
      <point x="61" y="680" type="curve" smooth="yes"/>
      <point x="77" y="871"/>
      <point x="251" y="1010"/>
      <point x="474" y="1010" type="curve" smooth="yes"/>
      <point x="673" y="1010"/>
      <point x="767" y="922"/>
      <point x="767" y="922" type="curve"/>
      <point x="767" y="987" type="line"/>
      <point x="899" y="987" type="line"/>
      <point x="899" y="704" type="line"/>
      <point x="768" y="704" type="line"/>
      <point x="768" y="723"/>
      <point x="765" y="776"/>
      <point x="726" y="819" type="curve" smooth="yes"/>
      <point x="691" y="858"/>
      <point x="635" y="878"/>
      <point x="561" y="878" type="curve" smooth="yes"/>
      <point x="484" y="878"/>
      <point x="424" y="839"/>
      <point x="424" y="788" type="curve" smooth="yes"/>
      <point x="424" y="719"/>
      <point x="538" y="684"/>
    </contour>
  </outline>
</glyph>
<glyph name="t" format="1">
  <advance width="721"/>
  <unicode hex="0074"/>
  <outline>
    <contour>
      <point x="478" y="265" type="line" name="hr00"/>
      <point x="478" y="794" type="line"/>
      <point x="581" y="794" type="line"/>
      <point x="581" y="976" type="line"/>
      <point x="478" y="976" type="line"/>
      <point x="478" y="1244" type="line"/>
      <point x="108" y="1098" type="line"/>
      <point x="108" y="976" type="line"/>
      <point x="-1" y="976" type="line"/>
      <point x="-1" y="794" type="line"/>
      <point x="108" y="794" type="line"/>
      <point x="108" y="368" type="line" smooth="yes"/>
      <point x="108" y="254"/>
      <point x="120" y="114"/>
      <point x="216" y="37" type="curve" smooth="yes"/>
      <point x="265" y="-3"/>
      <point x="332" y="-23"/>
      <point x="414" y="-23" type="curve" smooth="yes"/>
      <point x="535" y="-23"/>
      <point x="622" y="30"/>
      <point x="639" y="41" type="curve"/>
      <point x="639" y="150" type="line"/>
      <point x="622" y="137"/>
      <point x="598" y="129"/>
      <point x="575" y="129" type="curve" smooth="yes"/>
      <point x="553" y="129"/>
      <point x="479" y="139"/>
      <point x="479" y="265" type="curve"/>
    </contour>
  </outline>
</glyph>
<glyph name="u" format="1">
  <advance width="1107"/>
  <unicode hex="0075"/>
  <outline>
    <contour>
      <point x="403" y="-22" type="curve" smooth="yes"/>
      <point x="565" y="-22"/>
      <point x="669" y="130"/>
      <point x="669" y="130" type="curve"/>
      <point x="708" y="0" type="line"/>
      <point x="1016" y="0" type="line"/>
      <point x="1015" y="987" type="line"/>
      <point x="617" y="987" type="line"/>
      <point x="617" y="861" type="line"/>
      <point x="649" y="821" type="line"/>
      <point x="650" y="228" type="line"/>
      <point x="620" y="206"/>
      <point x="599" y="188"/>
      <point x="556" y="188" type="curve" smooth="yes"/>
      <point x="487" y="188"/>
      <point x="469" y="229"/>
      <point x="470" y="292" type="curve"/>
      <point x="470" y="987" type="line"/>
      <point x="42" y="987" type="line"/>
      <point x="42" y="861" type="line"/>
      <point x="100" y="821" type="line"/>
      <point x="100" y="376" type="line" smooth="yes"/>
      <point x="100" y="91"/>
      <point x="180" y="-22"/>
    </contour>
    <contour>
      <point x="529" y="500" type="move" name="top"/>
    </contour>
    <contour>
      <point x="529" y="-100" type="move" name="btm"/>
    </contour>
  </outline>
</glyph>
<glyph name="v" format="1">
  <advance width="1136"/>
  <unicode hex="0076"/>
  <outline>
    <contour>
      <point x="0" y="987" type="line"/>
      <point x="409" y="987" type="line"/>
      <point x="645" y="295" type="line"/>
      <point x="876" y="987" type="line"/>
      <point x="1047" y="987" type="line"/>
      <point x="713" y="0" type="line"/>
      <point x="372" y="0" type="line"/>
      <point x="99" y="816" type="line"/>
      <point x="0" y="817" type="line"/>
    </contour>
  </outline>
</glyph>
<glyph name="w" format="1">
  <advance width="1668"/>
  <unicode hex="0077"/>
  <outline>
    <contour>
      <point x="-10" y="987" type="line"/>
      <point x="339" y="0" type="line"/>
      <point x="677" y="0" type="line"/>
      <point x="967" y="987" type="line"/>
      <point x="784" y="987" type="line"/>
      <point x="601" y="295" type="line"/>
      <point x="378" y="987" type="line"/>
    </contour>
    <contour>
      <point x="701" y="987" type="line"/>
      <point x="1060" y="0" type="line"/>
      <point x="1388" y="0" type="line"/>
      <point x="1678" y="987" type="line"/>
      <point x="1495" y="987" type="line"/>
      <point x="1312" y="295" type="line"/>
      <point x="1099" y="987" type="line"/>
    </contour>
    <contour>
      <point x="834" y="500" type="move" name="top"/>
    </contour>
    <contour>
      <point x="834" y="-100" type="move" name="btm"/>
    </contour>
  </outline>
</glyph>
<glyph name="x" format="1">
  <advance width="1116"/>
  <unicode hex="0078"/>
  <outline>
    <contour>
      <point x="1026.72" y="986.5" type="line"/>
      <point x="683.813" y="513.692" type="line"/>
      <point x="1002.72" y="0" type="line"/>
      <point x="600.138" y="0" type="line"/>
      <point x="428.908" y="274.579" type="line"/>
      <point x="232.74" y="0" type="line"/>
      <point x="36.5723" y="0" type="line"/>
      <point x="336.088" y="423.366" type="line"/>
      <point x="91.9873" y="814.869" type="line"/>
      <point x="0" y="815.146" type="line"/>
      <point x="0" y="986.5" type="line"/>
      <point x="390.725" y="986.5" type="line"/>
      <point x="592.657" y="661.371" type="line"/>
      <point x="825.725" y="986.5" type="line"/>
    </contour>
  </outline>
</glyph>
<glyph name="y" format="1">
  <advance width="1121"/>
  <unicode hex="0079"/>
  <outline>
    <contour>
      <point x="661" y="986" type="line" name="hr01"/>
      <point x="661" y="216" type="line"/>
      <point x="606" y="217" type="line"/>
      <point x="531" y="217"/>
      <point x="473" y="275"/>
      <point x="473" y="349" type="curve" smooth="yes"/>
      <point x="473" y="986" type="line"/>
      <point x="-1" y="986" type="line"/>
      <point x="-1" y="814" type="line"/>
      <point x="104" y="814" type="line"/>
      <point x="104" y="407" type="line" smooth="yes"/>
      <point x="104" y="126"/>
      <point x="200" y="6"/>
      <point x="426" y="6" type="curve" smooth="yes" name="hr02"/>
      <point x="587" y="6"/>
      <point x="662" y="112"/>
      <point x="662" y="112" type="curve"/>
      <point x="662" y="38" type="line" smooth="yes"/>
      <point x="662" y="-48"/>
      <point x="639" y="-175"/>
      <point x="477" y="-175" type="curve" smooth="yes"/>
      <point x="411" y="-175"/>
      <point x="346" y="-151"/>
      <point x="301" y="-110" type="curve"/>
      <point x="230" y="-189" type="line"/>
      <point x="310" y="-261"/>
      <point x="421" y="-299"/>
      <point x="553" y="-299" type="curve" smooth="yes"/>
      <point x="871" y="-299"/>
      <point x="1032" y="-163"/>
      <point x="1032" y="106" type="curve" smooth="yes"/>
      <point x="1032" y="986" type="line" name="hr03"/>
    </contour>
  </outline>
</glyph>
<glyph name="z" format="1">
  <advance width="1058"/>
  <unicode hex="007A"/>
  <outline>
    <contour>
      <point x="504" y="815" type="line"/>
      <point x="79" y="193" type="line"/>
      <point x="79" y="0" type="line"/>
      <point x="944" y="0" type="line"/>
      <point x="945" y="247" type="line"/>
      <point x="485" y="172" type="line"/>
      <point x="944" y="836" type="line"/>
      <point x="944" y="987" type="line"/>
      <point x="78" y="987" type="line"/>
      <point x="78" y="739" type="line"/>
    </contour>
    <contour>
      <point x="511" y="500" type="move" name="top"/>
    </contour>
    <contour>
      <point x="511" y="-100" type="move" name="btm"/>
    </contour>
  </outline>
</glyph>
<glyph name="braceleft" format="1">
  <advance width="568"/>
  <unicode hex="007B"/>
  <outline>
    <contour>
      <point x="112" y="757" type="line" smooth="yes"/>
      <point x="112" y="723"/>
      <point x="109" y="604"/>
      <point x="0" y="604" type="curve"/>
      <point x="0" y="523" type="line"/>
      <point x="109" y="523"/>
      <point x="112" y="403"/>
      <point x="112" y="370" type="curve" smooth="yes"/>
      <point x="112" y="-70" type="line" smooth="yes"/>
      <point x="112" y="-397"/>
      <point x="168" y="-589"/>
      <point x="518" y="-589" type="curve"/>
      <point x="518" y="-446" type="line"/>
      <point x="405" y="-446"/>
      <point x="316" y="-362"/>
      <point x="316" y="-256" type="curve" smooth="yes"/>
      <point x="316" y="-256"/>
      <point x="316" y="291"/>
      <point x="316" y="292" type="curve" smooth="yes"/>
      <point x="316" y="540"/>
      <point x="204" y="564"/>
      <point x="202" y="565" type="curve"/>
      <point x="261" y="573"/>
      <point x="316" y="630"/>
      <point x="316" y="835" type="curve" smooth="yes"/>
      <point x="316" y="1302" type="line" smooth="yes"/>
      <point x="316" y="1407"/>
      <point x="405" y="1491"/>
      <point x="518" y="1491" type="curve"/>
      <point x="518" y="1635" type="line"/>
      <point x="168" y="1635"/>
      <point x="112" y="1443"/>
      <point x="112" y="1116" type="curve" smooth="yes"/>
    </contour>
  </outline>
</glyph>
<glyph name="bar" format="1">
  <advance width="362"/>
  <unicode hex="007C"/>
  <outline>
    <contour>
      <point x="80" y="1629" type="line" name="hr00"/>
      <point x="80" y="-595" type="line"/>
      <point x="283" y="-595" type="line"/>
      <point x="283" y="1629" type="line"/>
    </contour>
  </outline>
</glyph>
<glyph name="braceright" format="1">
  <advance width="568"/>
  <unicode hex="007D"/>
  <outline>
    <contour>
      <point x="407" y="757" type="curve" name="hr00"/>
      <point x="406" y="1116" type="line" smooth="yes"/>
      <point x="406" y="1443"/>
      <point x="351" y="1635"/>
      <point x="0" y="1635" type="curve"/>
      <point x="0" y="1491" type="line"/>
      <point x="114" y="1491"/>
      <point x="203" y="1407"/>
      <point x="203" y="1302" type="curve" smooth="yes"/>
      <point x="203" y="835" type="line" smooth="yes"/>
      <point x="203" y="630"/>
      <point x="258" y="573"/>
      <point x="317" y="565" type="curve" smooth="yes"/>
      <point x="315" y="565"/>
      <point x="203" y="541"/>
      <point x="203" y="292" type="curve" smooth="yes"/>
      <point x="203" y="-256" type="line" smooth="yes"/>
      <point x="203" y="-361"/>
      <point x="114" y="-445"/>
      <point x="0" y="-445" type="curve"/>
      <point x="0" y="-589" type="line"/>
      <point x="351" y="-589"/>
      <point x="406" y="-397"/>
      <point x="406" y="-70" type="curve" smooth="yes"/>
      <point x="407" y="370" type="line" smooth="yes"/>
      <point x="407" y="404"/>
      <point x="410" y="523"/>
      <point x="519" y="523" type="curve"/>
      <point x="519" y="604" type="line"/>
      <point x="410" y="604"/>
      <point x="407" y="723"/>
    </contour>
  </outline>
</glyph>
<glyph name="asciitilde" format="1">
  <advance width="1065"/>
  <unicode hex="007E"/>
  <outline>
    <contour>
      <point x="822" y="654" type="curve" smooth="yes"/>
      <point x="822" y="683" type="line"/>
      <point x="1025" y="683" type="line"/>
      <point x="1025" y="614" type="line" smooth="yes"/>
      <point x="1025" y="385"/>
      <point x="845" y="299"/>
      <point x="700" y="299" type="curve" smooth="yes"/>
      <point x="559" y="299"/>
      <point x="382" y="407"/>
      <point x="382" y="407" type="curve"/>
      <point x="282" y="460"/>
      <point x="244" y="385"/>
      <point x="243" y="328" type="curve" smooth="yes"/>
      <point x="243" y="298" type="line"/>
      <point x="40" y="298" type="line"/>
      <point x="40" y="368" type="line" smooth="yes"/>
      <point x="40" y="597"/>
      <point x="220" y="683"/>
      <point x="365" y="683" type="curve" smooth="yes"/>
      <point x="493" y="683"/>
      <point x="683" y="574"/>
      <point x="683" y="574" type="curve"/>
      <point x="789" y="525"/>
      <point x="822" y="597"/>
    </contour>
  </outline>
</glyph>
<glyph name="exclamdown" format="1">
  <advance width="505"/>
  <unicode hex="00A1"/>
  <outline>
    <contour>
      <point x="218" y="622" type="curve" smooth="yes"/>
      <point x="320" y="622"/>
      <point x="403" y="705"/>
      <point x="403" y="808" type="curve" smooth="yes"/>
      <point x="403" y="910"/>
      <point x="320" y="993"/>
      <point x="218" y="993" type="curve" smooth="yes"/>
      <point x="115" y="993"/>
      <point x="33" y="910"/>
      <point x="33" y="808" type="curve" smooth="yes"/>
      <point x="33" y="705"/>
      <point x="115" y="622"/>
    </contour>
    <contour>
      <point x="395" y="-224" type="curve" smooth="yes"/>
      <point x="462" y="-140"/>
      <point x="427" y="-20"/>
      <point x="419" y="3" type="curve" smooth="yes"/>
      <point x="345" y="220"/>
      <point x="321" y="400"/>
      <point x="317" y="492" type="curve"/>
      <point x="116" y="492" type="line"/>
      <point x="112" y="400"/>
      <point x="89" y="220"/>
      <point x="16" y="3" type="curve" smooth="yes"/>
      <point x="8" y="-20"/>
      <point x="-27" y="-140"/>
      <point x="40" y="-224" type="curve" smooth="yes"/>
      <point x="79" y="-273"/>
      <point x="138" y="-297"/>
      <point x="217" y="-297" type="curve" smooth="yes"/>
      <point x="297" y="-297"/>
      <point x="356" y="-273"/>
    </contour>
  </outline>
</glyph>
<glyph name="cent" format="1">
  <advance width="1112"/>
  <unicode hex="00A2"/>
  <outline>
    <contour>
      <point x="906" y="476" type="line" name="hr00"/>
      <point x="900" y="453"/>
      <point x="849" y="277"/>
      <point x="671" y="277" type="curve" smooth="yes"/>
      <point x="565" y="277"/>
      <point x="477" y="362"/>
      <point x="477" y="467" type="curve" smooth="yes"/>
      <point x="477" y="816" type="line" smooth="yes"/>
      <point x="477" y="921"/>
      <point x="564" y="1004"/>
      <point x="671" y="1004" type="curve" smooth="yes"/>
      <point x="864" y="1004"/>
      <point x="866" y="807"/>
      <point x="866" y="807" type="curve"/>
      <point x="1012" y="807" type="line"/>
      <point x="1012" y="1200" type="line"/>
      <point x="867" y="1200" type="line"/>
      <point x="867" y="1122" type="line"/>
      <point x="867" y="1122"/>
      <point x="785" y="1200"/>
      <point x="622" y="1200" type="curve" smooth="yes"/>
      <point x="315" y="1200"/>
      <point x="81" y="982"/>
      <point x="81" y="642" type="curve" smooth="yes"/>
      <point x="81" y="280"/>
      <point x="328" y="85"/>
      <point x="632" y="85" type="curve" smooth="yes"/>
      <point x="821" y="85"/>
      <point x="975" y="217"/>
      <point x="1034" y="350" type="curve"/>
    </contour>
    <contour>
      <point x="595" y="1" type="line"/>
      <point x="740" y="1" type="line"/>
      <point x="740" y="1290" type="line"/>
      <point x="595" y="1290" type="line"/>
    </contour>
  </outline>
</glyph>
<glyph name="sterling" format="1">
  <advance width="1141"/>
  <unicode hex="00A3"/>
  <outline>
    <contour>
      <point x="872" y="430" type="line" name="hr01"/>
      <point x="872" y="401" type="line" smooth="yes"/>
      <point x="872" y="344"/>
      <point x="839" y="273"/>
      <point x="735" y="322" type="curve"/>
      <point x="735" y="322"/>
      <point x="644" y="370"/>
      <point x="550" y="388" type="curve"/>
      <point x="574" y="430"/>
      <point x="592" y="519"/>
      <point x="591" y="642" type="curve"/>
      <point x="809" y="642" type="line"/>
      <point x="809" y="843" type="line"/>
      <point x="578" y="843" type="line" name="hr02"/>
      <point x="575" y="875"/>
      <point x="571" y="909"/>
      <point x="566" y="946" type="curve" smooth="yes"/>
      <point x="559" y="999"/>
      <point x="555" y="1095"/>
      <point x="641" y="1095" type="curve" smooth="yes"/>
      <point x="700" y="1095"/>
      <point x="750" y="1016"/>
      <point x="756" y="990" type="curve"/>
      <point x="910" y="1142" type="line"/>
      <point x="853" y="1216"/>
      <point x="759" y="1290"/>
      <point x="629" y="1290" type="curve" smooth="yes"/>
      <point x="400" y="1290"/>
      <point x="245" y="1117"/>
      <point x="245" y="842" type="curve"/>
      <point x="245" y="842" type="line"/>
      <point x="70" y="842" type="line"/>
      <point x="70" y="641" type="line"/>
      <point x="261" y="641" type="line"/>
      <point x="266" y="579"/>
      <point x="270" y="490"/>
      <point x="270" y="461" type="curve" smooth="yes" name="hr03"/>
      <point x="270" y="185"/>
      <point x="124" y="116"/>
      <point x="124" y="116" type="curve"/>
      <point x="213" y="-24" type="line"/>
      <point x="213" y="-24"/>
      <point x="306" y="63"/>
      <point x="418" y="63" type="curve" smooth="yes"/>
      <point x="550" y="63"/>
      <point x="612" y="0"/>
      <point x="754" y="0" type="curve" smooth="yes"/>
      <point x="896" y="0"/>
      <point x="1073" y="62"/>
      <point x="1073" y="291" type="curve" smooth="yes"/>
      <point x="1073" y="430" type="line"/>
    </contour>
  </outline>
</glyph>
<glyph name="currency" format="1">
  <advance width="1434"/>
  <unicode hex="00A4"/>
  <outline>
    <contour>
      <point x="1162" y="494" type="line" name="hr00"/>
      <point x="1162" y="580"/>
      <point x="1137" y="660"/>
      <point x="1095" y="728" type="curve"/>
      <point x="1355" y="987" type="line"/>
      <point x="1071" y="987" type="line"/>
      <point x="953" y="871" type="line"/>
      <point x="885" y="914"/>
      <point x="805" y="939"/>
      <point x="719" y="939" type="curve" smooth="yes"/>
      <point x="633" y="939"/>
      <point x="553" y="914"/>
      <point x="485" y="871" type="curve"/>
      <point x="367" y="987" type="line"/>
      <point x="83" y="987" type="line"/>
      <point x="343" y="728" type="line"/>
      <point x="301" y="660"/>
      <point x="276" y="580"/>
      <point x="276" y="494" type="curve" smooth="yes"/>
      <point x="276" y="408"/>
      <point x="301" y="327"/>
      <point x="344" y="259" type="curve"/>
      <point x="85" y="0" type="line"/>
      <point x="369" y="0" type="line"/>
      <point x="486" y="117" type="line"/>
      <point x="554" y="75"/>
      <point x="634" y="50"/>
      <point x="720" y="50" type="curve" smooth="yes"/>
      <point x="806" y="50"/>
      <point x="886" y="75"/>
      <point x="954" y="117" type="curve"/>
      <point x="1071" y="0" type="line"/>
      <point x="1355" y="0" type="line"/>
      <point x="1096" y="259" type="line"/>
      <point x="1139" y="327"/>
      <point x="1164" y="407"/>
      <point x="1164" y="493" type="curve"/>
    </contour>
    <contour>
      <point x="475" y="493" type="curve" smooth="yes"/>
      <point x="475" y="628"/>
      <point x="585" y="738"/>
      <point x="720" y="738" type="curve" smooth="yes"/>
      <point x="855" y="738"/>
      <point x="965" y="628"/>
      <point x="965" y="493" type="curve" smooth="yes"/>
      <point x="965" y="358"/>
      <point x="855" y="248"/>
      <point x="720" y="248" type="curve" smooth="yes"/>
      <point x="585" y="248"/>
      <point x="475" y="358"/>
    </contour>
  </outline>
</glyph>
<glyph name="yen" format="1">
  <advance width="1229"/>
  <unicode hex="00A5"/>
  <outline>
    <contour>
      <point x="122" y="394" type="line"/>
      <point x="122" y="547.965" type="line"/>
      <point x="400.896" y="547.965" type="line"/>
      <point x="400.896" y="642" type="line"/>
      <point x="122" y="642" type="line"/>
      <point x="122" y="795.965" type="line"/>
      <point x="296.648" y="795.965" type="line"/>
      <point x="129.034" y="1098.58" type="line"/>
      <point x="0" y="1098.58" type="line"/>
      <point x="0" y="1289.48" type="line"/>
      <point x="431.847" y="1289.48" type="line"/>
      <point x="679.156" y="843.837" type="line"/>
      <point x="922.847" y="1289.48" type="line"/>
      <point x="1139.85" y="1289.48" type="line"/>
      <point x="872.882" y="795.965" type="line"/>
      <point x="1027" y="795.965" type="line"/>
      <point x="1027" y="642" type="line"/>
      <point x="783.847" y="642" type="line"/>
      <point x="783.847" y="547.965" type="line"/>
      <point x="1027" y="547.965" type="line"/>
      <point x="1027" y="394" type="line"/>
      <point x="783.847" y="394" type="line"/>
      <point x="783.847" y="0" type="line"/>
      <point x="400.896" y="0" type="line"/>
      <point x="400.896" y="394" type="line"/>
    </contour>
  </outline>
</glyph>
<glyph name="brokenbar" format="1">
  <advance width="282"/>
  <unicode hex="00A6"/>
  <outline>
    <contour>
      <point x="40" y="1629" type="line" name="hr00"/>
      <point x="243" y="1629" type="line"/>
      <point x="243" y="629" type="line"/>
      <point x="40" y="629" type="line"/>
    </contour>
    <contour>
      <point x="243" y="426" type="line"/>
      <point x="243" y="-596" type="line"/>
      <point x="40" y="-596" type="line"/>
      <point x="40" y="426" type="line"/>
    </contour>
  </outline>
</glyph>
<glyph name="section" format="1">
  <advance width="931"/>
  <unicode hex="00A7"/>
  <outline>
    <contour>
      <point x="340" y="683" type="curve" smooth="yes"/>
      <point x="461" y="582"/>
      <point x="576" y="510"/>
      <point x="659" y="434" type="curve"/>
      <point x="676" y="447"/>
      <point x="687" y="465"/>
      <point x="686" y="492" type="curve" smooth="yes"/>
      <point x="685" y="534"/>
      <point x="627" y="578"/>
      <point x="592" y="607" type="curve" smooth="yes"/>
      <point x="470" y="708"/>
      <point x="355" y="780"/>
      <point x="273" y="856" type="curve"/>
      <point x="256" y="843"/>
      <point x="244" y="825"/>
      <point x="245" y="798" type="curve" smooth="yes"/>
      <point x="247" y="756"/>
      <point x="305" y="712"/>
    </contour>
    <contour>
      <point x="533" y="886" type="curve" smooth="yes"/>
      <point x="703" y="752"/>
      <point x="844" y="655"/>
      <point x="855" y="537" type="curve" smooth="yes"/>
      <point x="866" y="408"/>
      <point x="791" y="343"/>
      <point x="741" y="301" type="curve"/>
      <point x="748" y="273"/>
      <point x="751" y="242"/>
      <point x="747" y="207" type="curve" smooth="yes"/>
      <point x="738" y="117"/>
      <point x="684" y="48"/>
      <point x="631" y="14" type="curve" smooth="yes"/>
      <point x="581" y="-18"/>
      <point x="523" y="-36"/>
      <point x="456" y="-36" type="curve" smooth="yes"/>
      <point x="222" y="-36"/>
      <point x="60" y="118"/>
      <point x="60" y="118" type="curve"/>
      <point x="228" y="360" type="line"/>
      <point x="228" y="360"/>
      <point x="379" y="238"/>
      <point x="432" y="290" type="curve" smooth="yes"/>
      <point x="452" y="310"/>
      <point x="465" y="352"/>
      <point x="398" y="404" type="curve" smooth="yes"/>
      <point x="228" y="538"/>
      <point x="87" y="635"/>
      <point x="77" y="753" type="curve" smooth="yes"/>
      <point x="65" y="882"/>
      <point x="140" y="947"/>
      <point x="190" y="989" type="curve"/>
      <point x="183" y="1017"/>
      <point x="180" y="1048"/>
      <point x="184" y="1083" type="curve" smooth="yes"/>
      <point x="193" y="1173"/>
      <point x="247" y="1242"/>
      <point x="300" y="1276" type="curve" smooth="yes"/>
      <point x="350" y="1309"/>
      <point x="409" y="1325"/>
      <point x="477" y="1325" type="curve" smooth="yes"/>
      <point x="707" y="1325"/>
      <point x="871" y="1172"/>
      <point x="871" y="1172" type="curve"/>
      <point x="703" y="930" type="line"/>
      <point x="703" y="930"/>
      <point x="553" y="1052"/>
      <point x="499" y="1000" type="curve" smooth="yes"/>
      <point x="479" y="980"/>
      <point x="467" y="938"/>
    </contour>
  </outline>
</glyph>
<glyph name="copyright" format="1">
  <advance width="1364"/>
  <unicode hex="00A9"/>
  <outline>
    <contour>
      <point x="682" y="1289" type="curve" smooth="yes"/>
      <point x="1036" y="1289"/>
      <point x="1324" y="999"/>
      <point x="1324" y="645" type="curve" smooth="yes"/>
      <point x="1324" y="291"/>
      <point x="1036" y="0"/>
      <point x="682" y="0" type="curve" smooth="yes"/>
      <point x="328" y="0"/>
      <point x="40" y="291"/>
      <point x="40" y="645" type="curve" smooth="yes"/>
      <point x="40" y="999"/>
      <point x="328" y="1289"/>
    </contour>
    <contour>
      <point x="682" y="201" type="curve" smooth="yes"/>
      <point x="927" y="201"/>
      <point x="1126" y="400"/>
      <point x="1126" y="645" type="curve" smooth="yes"/>
      <point x="1126" y="890"/>
      <point x="927" y="1089"/>
      <point x="682" y="1089" type="curve" smooth="yes"/>
      <point x="437" y="1089"/>
      <point x="238" y="890"/>
      <point x="238" y="645" type="curve" smooth="yes"/>
      <point x="238" y="400"/>
      <point x="437" y="201"/>
    </contour>
    <contour>
      <point x="722" y="420" type="curve" smooth="yes"/>
      <point x="812" y="420"/>
      <point x="837" y="509"/>
      <point x="840" y="520" type="curve"/>
      <point x="903" y="456" type="line"/>
      <point x="874" y="390"/>
      <point x="797" y="323"/>
      <point x="702" y="323" type="curve" smooth="yes"/>
      <point x="549" y="323"/>
      <point x="425" y="462"/>
      <point x="425" y="632" type="curve" smooth="yes"/>
      <point x="425" y="817"/>
      <point x="543" y="967"/>
      <point x="697" y="967" type="curve" smooth="yes"/>
      <point x="779" y="967"/>
      <point x="820" y="928"/>
      <point x="820" y="928" type="curve" smooth="yes"/>
      <point x="820" y="967" type="line"/>
      <point x="890" y="967" type="line"/>
      <point x="890" y="770" type="line"/>
      <point x="820" y="770" type="line"/>
      <point x="820" y="770"/>
      <point x="819" y="869"/>
      <point x="722" y="869" type="curve" smooth="yes"/>
      <point x="668" y="869"/>
      <point x="624" y="828"/>
      <point x="624" y="775" type="curve" smooth="yes"/>
      <point x="624" y="516" type="line" smooth="yes"/>
      <point x="624" y="463"/>
      <point x="669" y="420"/>
    </contour>
  </outline>
</glyph>
<glyph name="ordfeminine" format="1">
  <advance width="1053"/>
  <unicode hex="00AA"/>
  <outline>
    <contour>
      <point x="912" y="588" type="line" name="hr00"/>
      <point x="912" y="927" type="line" smooth="yes"/>
      <point x="912" y="1146"/>
      <point x="830" y="1325"/>
      <point x="486" y="1325" type="curve" smooth="yes"/>
      <point x="319" y="1325"/>
      <point x="183" y="1259"/>
      <point x="115" y="1134" type="curve"/>
      <point x="216" y="1031" type="line"/>
      <point x="254" y="1115"/>
      <point x="346" y="1146"/>
      <point x="416" y="1146" type="curve" smooth="yes"/>
      <point x="571" y="1146"/>
      <point x="580" y="1022"/>
      <point x="580" y="1022" type="curve"/>
      <point x="580" y="1022"/>
      <point x="460" y="1020"/>
      <point x="329" y="977" type="curve" smooth="yes"/>
      <point x="128" y="911"/>
      <point x="60" y="774"/>
      <point x="60" y="667" type="curve" smooth="yes"/>
      <point x="60" y="511"/>
      <point x="208" y="418"/>
      <point x="362" y="418" type="curve" smooth="yes"/>
      <point x="516" y="418"/>
      <point x="580" y="510"/>
      <point x="581" y="511" type="curve"/>
      <point x="581" y="418" type="line"/>
      <point x="1004" y="418" type="line"/>
      <point x="1004" y="587" type="line"/>
      <point x="913" y="587" type="line"/>
    </contour>
    <contour>
      <point x="523" y="597" type="line"/>
      <point x="454" y="597"/>
      <point x="408" y="664"/>
      <point x="408" y="732" type="curve" smooth="yes"/>
      <point x="408" y="866"/>
      <point x="582" y="911"/>
      <point x="582" y="911" type="curve"/>
      <point x="582" y="616" type="line"/>
      <point x="581" y="615"/>
      <point x="562" y="596"/>
      <point x="524" y="596" type="curve"/>
    </contour>
  </outline>
</glyph>
<glyph name="guillemotleft" format="1">
  <advance width="972"/>
  <unicode hex="00AB"/>
  <outline>
    <contour>
      <point x="568" y="987" type="line"/>
      <point x="340" y="492" type="line"/>
      <point x="568" y="0" type="line"/>
      <point x="932" y="0" type="line"/>
      <point x="601" y="492" type="line"/>
      <point x="932" y="987" type="line"/>
    </contour>
    <contour>
      <point x="281" y="987" type="line"/>
      <point x="0" y="492" type="line"/>
      <point x="281" y="0" type="line"/>
      <point x="455" y="0" type="line"/>
      <point x="228" y="492" type="line"/>
      <point x="455" y="987" type="line"/>
    </contour>
  </outline>
</glyph>
<glyph name="logicalnot" format="1">
  <advance width="1148"/>
  <unicode hex="00AC"/>
  <outline>
    <contour>
      <point x="1068.52" y="594.76" type="line"/>
      <point x="1068.52" y="0" type="line"/>
      <point x="867.523" y="0" type="line"/>
      <point x="867.523" y="393.68" type="line"/>
      <point x="80" y="393.68" type="line"/>
      <point x="80" y="594.76" type="line"/>
    </contour>
  </outline>
</glyph>
<glyph name="uni00AD" format="1">
  <advance width="677"/>
  <unicode hex="00AD"/>
  <outline>
    <contour>
      <point x="557" y="595" type="line" name="hr00"/>
      <point x="40" y="595" type="line"/>
      <point x="40" y="394" type="line"/>
      <point x="557" y="394" type="line"/>
    </contour>
  </outline>
</glyph>
<glyph name="registered" format="1">
  <advance width="1364"/>
  <unicode hex="00AE"/>
  <outline>
    <contour>
      <point x="682" y="1289" type="curve" smooth="yes"/>
      <point x="1036" y="1289"/>
      <point x="1324" y="999"/>
      <point x="1324" y="645" type="curve" smooth="yes"/>
      <point x="1324" y="291"/>
      <point x="1036" y="0"/>
      <point x="682" y="0" type="curve" smooth="yes"/>
      <point x="328" y="0"/>
      <point x="40" y="291"/>
      <point x="40" y="645" type="curve" smooth="yes"/>
      <point x="40" y="999"/>
      <point x="328" y="1289"/>
    </contour>
    <contour>
      <point x="682" y="201" type="curve" smooth="yes"/>
      <point x="927" y="201"/>
      <point x="1126" y="400"/>
      <point x="1126" y="645" type="curve" smooth="yes"/>
      <point x="1126" y="890"/>
      <point x="927" y="1089"/>
      <point x="682" y="1089" type="curve" smooth="yes"/>
      <point x="437" y="1089"/>
      <point x="238" y="890"/>
      <point x="238" y="645" type="curve" smooth="yes"/>
      <point x="238" y="400"/>
      <point x="437" y="201"/>
    </contour>
    <contour>
      <point x="949" y="766" type="curve" smooth="yes"/>
      <point x="949" y="685"/>
      <point x="903" y="626"/>
      <point x="837" y="596" type="curve"/>
      <point x="953" y="341" type="line"/>
      <point x="753" y="341" type="line"/>
      <point x="647" y="576" type="line"/>
      <point x="647" y="341" type="line"/>
      <point x="466" y="341" type="line"/>
      <point x="466" y="860" type="line"/>
      <point x="416" y="860" type="line"/>
      <point x="416" y="949" type="line"/>
      <point x="749" y="949" type="line" smooth="yes"/>
      <point x="858" y="949"/>
      <point x="949" y="867"/>
    </contour>
    <contour>
      <point x="767" y="728" type="curve" smooth="yes"/>
      <point x="767" y="797" type="line" smooth="yes"/>
      <point x="767" y="830"/>
      <point x="742" y="857"/>
      <point x="712" y="857" type="curve" smooth="yes"/>
      <point x="647" y="857" type="line"/>
      <point x="647" y="668" type="line"/>
      <point x="712" y="668" type="line" smooth="yes"/>
      <point x="742" y="668"/>
      <point x="767" y="696"/>
    </contour>
  </outline>
</glyph>
<glyph name="degree" format="1">
  <advance width="0"/>
  <unicode hex="00B0"/>
  <outline>
    <contour>
      <point x="230" y="1716" type="curve" smooth="yes" name="hr00"/>
      <point x="140" y="1716"/>
      <point x="67" y="1643"/>
      <point x="67" y="1553" type="curve" smooth="yes"/>
      <point x="67" y="1463"/>
      <point x="140" y="1390"/>
      <point x="230" y="1390" type="curve" smooth="yes"/>
      <point x="320" y="1390"/>
      <point x="393" y="1463"/>
      <point x="393" y="1553" type="curve" smooth="yes"/>
      <point x="393" y="1643"/>
      <point x="320" y="1716"/>
    </contour>
    <contour>
      <point x="316" y="1552" type="curve" smooth="yes"/>
      <point x="316" y="1505"/>
      <point x="277" y="1466"/>
      <point x="230" y="1466" type="curve" smooth="yes"/>
      <point x="182" y="1466"/>
      <point x="143" y="1505"/>
      <point x="143" y="1552" type="curve" smooth="yes"/>
      <point x="143" y="1600"/>
      <point x="182" y="1639"/>
      <point x="230" y="1639" type="curve" smooth="yes"/>
      <point x="277" y="1639"/>
      <point x="316" y="1600"/>
    </contour>
  </outline>
</glyph>
<glyph name="plusminus" format="1">
  <advance width="1148"/>
  <unicode hex="00B1"/>
  <outline>
    <contour>
      <point x="675" y="752" type="line" name="hr00"/>
      <point x="675" y="985" type="line"/>
      <point x="474" y="985" type="line"/>
      <point x="474" y="752" type="line"/>
      <point x="80" y="752" type="line"/>
      <point x="80" y="551" type="line"/>
      <point x="474" y="551" type="line"/>
      <point x="474" y="318" type="line"/>
      <point x="675" y="318" type="line"/>
      <point x="675" y="551" type="line"/>
      <point x="1069" y="551" type="line"/>
      <point x="1069" y="752" type="line"/>
    </contour>
    <contour>
      <point x="80" y="0" type="line"/>
      <point x="1069" y="0" type="line"/>
      <point x="1069" y="201" type="line"/>
      <point x="80" y="201" type="line"/>
    </contour>
  </outline>
</glyph>
<glyph name="uni00B2" format="1">
  <advance width="762"/>
  <unicode hex="00B2"/>
  <outline>
    <contour>
      <point x="569" y="581" type="line" smooth="yes" name="hr00"/>
      <point x="569" y="567"/>
      <point x="559" y="555"/>
      <point x="534" y="552" type="curve"/>
      <point x="185" y="552" type="line"/>
      <point x="242" y="623"/>
      <point x="329" y="679"/>
      <point x="471" y="759" type="curve" smooth="yes"/>
      <point x="577" y="818"/>
      <point x="673" y="911"/>
      <point x="673" y="1054" type="curve" smooth="yes"/>
      <point x="673" y="1239"/>
      <point x="523" y="1325"/>
      <point x="374" y="1325" type="curve" smooth="yes"/>
      <point x="160" y="1325"/>
      <point x="39" y="1158"/>
      <point x="95" y="976" type="curve"/>
      <point x="218" y="976" type="line"/>
      <point x="164" y="1079"/>
      <point x="196" y="1181"/>
      <point x="283" y="1187" type="curve" smooth="yes"/>
      <point x="380" y="1194"/>
      <point x="428" y="1114"/>
      <point x="385" y="984" type="curve" smooth="yes"/>
      <point x="363" y="917"/>
      <point x="308" y="840"/>
      <point x="206" y="744" type="curve" smooth="yes"/>
      <point x="20" y="570"/>
      <point x="93" y="414"/>
      <point x="93" y="414" type="curve"/>
      <point x="671" y="414" type="line"/>
      <point x="671" y="693" type="line"/>
      <point x="568" y="693" type="line"/>
    </contour>
  </outline>
</glyph>
<glyph name="uni00B2" format="1">
  <advance width="762"/>
  <unicode hex="00B2"/>
  <outline>
    <contour>
      <point x="569.009" y="581.086" type="curve" smooth="yes"/>
      <point x="569.258" y="693.753" type="line"/>
      <point x="672.535" y="693.753" type="line"/>
      <point x="672.535" y="414.661" type="line"/>
      <point x="94.1631" y="414.578" type="line"/>
      <point x="94.1631" y="414.578"/>
      <point x="21.0459" y="570.284"/>
      <point x="207.078" y="744.603" type="curve" smooth="yes"/>
      <point x="308.943" y="840.153"/>
      <point x="364.28" y="916.927"/>
      <point x="386.216" y="983.646" type="curve" smooth="yes"/>
      <point x="428.922" y="1113.34"/>
      <point x="381.23" y="1193.52"/>
      <point x="284.101" y="1186.96" type="curve" smooth="yes"/>
      <point x="196.775" y="1180.98"/>
      <point x="164.454" y="1078.61"/>
      <point x="218.545" y="976.085" type="curve"/>
      <point x="95.0771" y="976.085" type="line"/>
      <point x="38.9922" y="1157.71"/>
      <point x="159.802" y="1324.72"/>
      <point x="374.001" y="1324.72" type="curve" smooth="yes"/>
      <point x="522.977" y="1324.72"/>
      <point x="672.535" y="1238.97"/>
      <point x="672.535" y="1054.27" type="curve" smooth="yes"/>
      <point x="672.535" y="911.11"/>
      <point x="576.901" y="818.302"/>
      <point x="471.131" y="758.894" type="curve" smooth="yes"/>
      <point x="329.467" y="679.378"/>
      <point x="242.806" y="623.045"/>
      <point x="185.975" y="551.923" type="curve"/>
      <point x="534.609" y="551.923" type="line" smooth="yes"/>
      <point x="559.369" y="554.747"/>
      <point x="569.009" y="566.961"/>
    </contour>
  </outline>
</glyph>
<glyph name="uni00B3" format="1">
  <advance width="657"/>
  <unicode hex="00B3"/>
  <outline>
    <contour>
      <point x="377" y="870" type="curve"/>
      <point x="424" y="865"/>
      <point x="568" y="825"/>
      <point x="568" y="663" type="curve" smooth="yes"/>
      <point x="568" y="534"/>
      <point x="467" y="415"/>
      <point x="258" y="415" type="curve" smooth="yes"/>
      <point x="166" y="415"/>
      <point x="99" y="444"/>
      <point x="50" y="475" type="curve"/>
      <point x="50" y="588" type="line"/>
      <point x="76" y="568"/>
      <point x="111" y="552"/>
      <point x="158" y="552" type="curve" smooth="yes"/>
      <point x="234" y="552"/>
      <point x="296" y="615"/>
      <point x="296" y="687" type="curve" smooth="yes"/>
      <point x="296" y="834"/>
      <point x="138" y="819"/>
      <point x="138" y="819" type="curve"/>
      <point x="138" y="921" type="line"/>
      <point x="138" y="921"/>
      <point x="296" y="922"/>
      <point x="296" y="1041" type="curve" smooth="yes"/>
      <point x="296" y="1132"/>
      <point x="234" y="1188"/>
      <point x="158" y="1188" type="curve" smooth="yes"/>
      <point x="111" y="1188"/>
      <point x="76" y="1172"/>
      <point x="50" y="1152" type="curve"/>
      <point x="50" y="1264" type="line"/>
      <point x="99" y="1296"/>
      <point x="166" y="1325"/>
      <point x="258" y="1325" type="curve" smooth="yes"/>
      <point x="467" y="1325"/>
      <point x="568" y="1206"/>
      <point x="568" y="1077" type="curve" smooth="yes"/>
      <point x="568" y="914"/>
      <point x="424" y="874"/>
    </contour>
  </outline>
</glyph>
<glyph name="acute" format="1">
  <advance width="520"/>
  <unicode hex="00B4"/>
  <outline>
    <contour>
      <point x="908" y="1466" type="line" name="hr00"/>
      <point x="1131" y="1468" type="line"/>
      <point x="892" y="1139" type="line"/>
      <point x="758" y="1139" type="line"/>
    </contour>
  </outline>
</glyph>
<glyph name="mu" format="1">
  <advance width="1223"/>
  <unicode hex="00B5"/>
  <outline>
    <contour>
      <point x="611" y="183" type="curve" smooth="yes"/>
      <point x="665" y="185" type="line"/>
      <point x="804" y="987" type="line"/>
      <point x="1174" y="987" type="line"/>
      <point x="1034" y="182" type="line"/>
      <point x="1140" y="182" type="line"/>
      <point x="1108" y="0" type="line"/>
      <point x="632" y="0" type="line"/>
      <point x="648" y="89" type="line"/>
      <point x="648" y="89"/>
      <point x="563" y="0"/>
      <point x="419" y="0" type="curve" smooth="yes"/>
      <point x="312" y="0"/>
      <point x="268" y="24"/>
      <point x="268" y="24" type="curve"/>
      <point x="207" y="-297" type="line"/>
      <point x="20" y="-297" type="line"/>
      <point x="251" y="987" type="line"/>
      <point x="620" y="987" type="line"/>
      <point x="500" y="315" type="line" smooth="yes"/>
      <point x="494" y="279"/>
      <point x="502" y="245"/>
      <point x="522" y="221" type="curve" smooth="yes"/>
      <point x="543" y="196"/>
      <point x="574" y="183"/>
    </contour>
  </outline>
</glyph>
<glyph name="paragraph" format="1">
  <advance width="1182"/>
  <unicode hex="00B6"/>
  <outline>
    <contour>
      <point x="501" y="1289" type="line" smooth="yes" name="hr01"/>
      <point x="271" y="1289"/>
      <point x="79" y="1116"/>
      <point x="79" y="888" type="curve" smooth="yes"/>
      <point x="79" y="809"/>
      <point x="130" y="500"/>
      <point x="500" y="500" type="curve"/>
      <point x="502" y="-1" type="line" name="hr02"/>
      <point x="699" y="-1" type="line"/>
      <point x="699" y="1093" type="line"/>
      <point x="900" y="1093" type="line"/>
      <point x="900" y="-1" type="line"/>
      <point x="1101" y="-1" type="line"/>
      <point x="1101" y="1288" type="line"/>
    </contour>
  </outline>
</glyph>
<glyph name="periodcentered" format="1">
  <advance width="0"/>
  <unicode hex="00B7"/>
  <outline>
    <contour>
      <point x="227" y="700" type="curve" smooth="yes" name="hr00"/>
      <point x="137" y="700"/>
      <point x="64" y="627"/>
      <point x="64" y="537" type="curve" smooth="yes"/>
      <point x="64" y="447"/>
      <point x="137" y="374"/>
      <point x="227" y="374" type="curve" smooth="yes"/>
      <point x="317" y="374"/>
      <point x="390" y="447"/>
      <point x="390" y="537" type="curve" smooth="yes"/>
      <point x="390" y="627"/>
      <point x="317" y="700"/>
    </contour>
    <contour>
      <point x="313" y="536" type="curve" smooth="yes"/>
      <point x="313" y="489"/>
      <point x="274" y="450"/>
      <point x="227" y="450" type="curve" smooth="yes"/>
      <point x="179" y="450"/>
      <point x="140" y="489"/>
      <point x="140" y="536" type="curve" smooth="yes"/>
      <point x="140" y="584"/>
      <point x="179" y="623"/>
      <point x="227" y="623" type="curve" smooth="yes"/>
      <point x="274" y="623"/>
      <point x="313" y="584"/>
    </contour>
  </outline>
</glyph>
<glyph name="cedilla" format="1">
  <advance width="462"/>
  <unicode hex="00B8"/>
  <outline>
    <contour>
      <point x="283" y="-87" type="line" name="hr00"/>
      <point x="407" y="85" type="line"/>
      <point x="230" y="84" type="line"/>
      <point x="115" y="-150" type="line"/>
      <point x="115" y="-150"/>
      <point x="225" y="-147"/>
      <point x="225" y="-200" type="curve" smooth="yes"/>
      <point x="225" y="-223"/>
      <point x="183" y="-249"/>
      <point x="127" y="-249" type="curve" smooth="yes"/>
      <point x="101" y="-249"/>
      <point x="72" y="-240"/>
      <point x="72" y="-240" type="curve"/>
      <point x="37" y="-311" type="line"/>
      <point x="37" y="-311"/>
      <point x="87" y="-342"/>
      <point x="163" y="-342" type="curve" smooth="yes"/>
      <point x="274" y="-342"/>
      <point x="361" y="-280"/>
      <point x="361" y="-200" type="curve" smooth="yes"/>
      <point x="361" y="-155"/>
      <point x="333" y="-114"/>
      <point x="284" y="-88" type="curve" smooth="yes"/>
    </contour>
  </outline>
</glyph>
<glyph name="uni00B9" format="1">
  <advance width="478"/>
  <unicode hex="00B9"/>
  <outline>
    <contour>
      <point x="254" y="1325" type="line" name="hr01"/>
      <point x="203" y="1200"/>
      <point x="0" y="1189"/>
      <point x="0" y="1189" type="curve"/>
      <point x="0" y="1056" type="line"/>
      <point x="124" y="1056" type="line" name="hr02"/>
      <point x="124" y="440" type="line"/>
      <point x="388" y="440" type="line"/>
      <point x="388" y="1325" type="line" name="hr03"/>
    </contour>
  </outline>
</glyph>
<glyph name="uni00B9" format="1">
  <advance width="478"/>
  <unicode hex="00B9"/>
  <outline>
    <contour>
      <point x="253.749" y="1324.72" type="curve"/>
      <point x="388.101" y="1324.72" type="line"/>
      <point x="388.101" y="440" type="line"/>
      <point x="123.966" y="440" type="line"/>
      <point x="123.966" y="1055.85" type="line"/>
      <point x="0" y="1055.85" type="line"/>
      <point x="0" y="1189.2" type="line"/>
      <point x="0" y="1189.2"/>
      <point x="202.982" y="1200"/>
    </contour>
  </outline>
</glyph>
<glyph name="ordmasculine" format="1">
  <advance width="1068"/>
  <unicode hex="00BA"/>
  <outline>
    <contour>
      <point x="534" y="1325" type="curve" smooth="yes"/>
      <point x="785" y="1325"/>
      <point x="989" y="1123"/>
      <point x="989" y="872" type="curve" smooth="yes"/>
      <point x="989" y="621"/>
      <point x="785" y="419"/>
      <point x="534" y="419" type="curve" smooth="yes"/>
      <point x="283" y="419"/>
      <point x="80" y="621"/>
      <point x="80" y="872" type="curve" smooth="yes"/>
      <point x="80" y="1123"/>
      <point x="283" y="1325"/>
    </contour>
    <contour>
      <point x="663" y="678" type="curve" smooth="yes"/>
      <point x="663" y="1066" type="line" smooth="yes"/>
      <point x="663" y="1137"/>
      <point x="605" y="1194"/>
      <point x="534" y="1194" type="curve" smooth="yes"/>
      <point x="464" y="1194"/>
      <point x="406" y="1137"/>
      <point x="406" y="1066" type="curve" smooth="yes"/>
      <point x="406" y="678" type="line" smooth="yes"/>
      <point x="406" y="607"/>
      <point x="464" y="549"/>
      <point x="534" y="549" type="curve" smooth="yes"/>
      <point x="605" y="549"/>
      <point x="663" y="607"/>
    </contour>
  </outline>
</glyph>
<glyph name="guillemotright" format="1">
  <advance width="982"/>
  <unicode hex="00BB"/>
  <outline>
    <contour>
      <point x="364.406" y="986.5" type="line"/>
      <point x="592.016" y="492.056" type="line"/>
      <point x="364.406" y="0" type="line"/>
      <point x="0" y="0" type="line"/>
      <point x="330.728" y="492.056" type="line"/>
      <point x="0" y="986.5" type="line"/>
    </contour>
    <contour>
      <point x="650.976" y="986.5" type="line"/>
      <point x="932.057" y="492.056" type="line"/>
      <point x="650.976" y="0" type="line"/>
      <point x="476.59" y="0" type="line"/>
      <point x="704.197" y="492.056" type="line"/>
      <point x="476.59" y="986.5" type="line"/>
    </contour>
  </outline>
</glyph>
<glyph name="onequarter" format="1">
  <advance width="1055"/>
  <unicode hex="00BC"/>
  <outline>
    <contour>
      <point x="103" y="699" type="line" name="hr01"/>
      <point x="279" y="699" type="line"/>
      <point x="279" y="1290" type="line" name="hr02"/>
      <point x="189" y="1290" type="line"/>
      <point x="155" y="1207"/>
      <point x="19" y="1200"/>
      <point x="19" y="1200" type="curve"/>
      <point x="19" y="1111" type="line"/>
      <point x="102" y="1111" type="line" name="hr03"/>
    </contour>
    <contour>
      <point x="974" y="238" type="line"/>
      <point x="974" y="591" type="line"/>
      <point x="817" y="591" type="line"/>
      <point x="569" y="238" type="line"/>
      <point x="569" y="148" type="line"/>
      <point x="797" y="148" type="line"/>
      <point x="797" y="0" type="line"/>
      <point x="973" y="0" type="line"/>
      <point x="973" y="148" type="line"/>
      <point x="1033" y="148" type="line"/>
      <point x="1033" y="238" type="line"/>
    </contour>
    <contour>
      <point x="797" y="238" type="line"/>
      <point x="681" y="238" type="line"/>
      <point x="797" y="402" type="line"/>
    </contour>
    <contour>
      <point x="801" y="1290" type="line"/>
      <point x="21" y="1" type="line"/>
      <point x="250" y="1" type="line"/>
      <point x="1030" y="1290" type="line"/>
    </contour>
  </outline>
</glyph>
<glyph name="onehalf" format="1">
  <advance width="1055"/>
  <unicode hex="00BD"/>
  <outline>
    <contour>
      <point x="968" y="108" type="line" smooth="yes" name="hr01"/>
      <point x="968" y="99"/>
      <point x="962" y="91"/>
      <point x="946" y="89" type="curve"/>
      <point x="720" y="89" type="line"/>
      <point x="757" y="135"/>
      <point x="813" y="172"/>
      <point x="905" y="224" type="curve" smooth="yes"/>
      <point x="974" y="263"/>
      <point x="1036" y="323"/>
      <point x="1036" y="416" type="curve" smooth="yes"/>
      <point x="1036" y="536"/>
      <point x="939" y="592"/>
      <point x="842" y="592" type="curve" smooth="yes"/>
      <point x="703" y="592"/>
      <point x="625" y="484"/>
      <point x="661" y="366" type="curve"/>
      <point x="741" y="366" type="line"/>
      <point x="706" y="433"/>
      <point x="727" y="499"/>
      <point x="784" y="503" type="curve" smooth="yes"/>
      <point x="847" y="507"/>
      <point x="878" y="455"/>
      <point x="850" y="371" type="curve" smooth="yes"/>
      <point x="836" y="328"/>
      <point x="800" y="278"/>
      <point x="734" y="216" type="curve" smooth="yes"/>
      <point x="613" y="103"/>
      <point x="660" y="2"/>
      <point x="660" y="2" type="curve"/>
      <point x="1035" y="2" type="line" name="hr02"/>
      <point x="1035" y="183" type="line"/>
      <point x="968" y="183" type="line"/>
    </contour>
    <contour>
      <point x="103" y="700" type="line" name="hr03"/>
      <point x="279" y="700" type="line"/>
      <point x="279" y="1291" type="line" name="hr04"/>
      <point x="189" y="1291" type="line"/>
      <point x="155" y="1208"/>
      <point x="19" y="1201"/>
      <point x="19" y="1201" type="curve"/>
      <point x="19" y="1112" type="line"/>
      <point x="102" y="1112" type="line" name="hr05"/>
    </contour>
    <contour>
      <point x="802" y="1292" type="line"/>
      <point x="22" y="3" type="line"/>
      <point x="251" y="3" type="line"/>
      <point x="1031" y="1292" type="line"/>
    </contour>
  </outline>
</glyph>
<glyph name="threequarters" format="1">
  <advance width="1055"/>
  <unicode hex="00BE"/>
  <outline>
    <contour>
      <point x="807" y="1289" type="line"/>
      <point x="1036" y="1289" type="line"/>
      <point x="256" y="0" type="line"/>
      <point x="27" y="0" type="line"/>
    </contour>
    <contour>
      <point x="976" y="591" type="line"/>
      <point x="976" y="237" type="line"/>
      <point x="1036" y="237" type="line"/>
      <point x="1036" y="148" type="line"/>
      <point x="976" y="148" type="line"/>
      <point x="976" y="0" type="line"/>
      <point x="800" y="0" type="line"/>
      <point x="800" y="148" type="line"/>
      <point x="571" y="148" type="line"/>
      <point x="571" y="238" type="line"/>
      <point x="819" y="591" type="line"/>
    </contour>
    <contour>
      <point x="800" y="237" type="line"/>
      <point x="800" y="402" type="line"/>
      <point x="684" y="237" type="line"/>
    </contour>
    <contour>
      <point x="358" y="858" type="curve" smooth="yes"/>
      <point x="358" y="774"/>
      <point x="292" y="696"/>
      <point x="156" y="696" type="curve" smooth="yes"/>
      <point x="96" y="696"/>
      <point x="52" y="715"/>
      <point x="20" y="735" type="curve"/>
      <point x="20" y="809" type="line"/>
      <point x="37" y="796"/>
      <point x="60" y="785"/>
      <point x="91" y="785" type="curve" smooth="yes"/>
      <point x="140" y="785"/>
      <point x="181" y="827"/>
      <point x="181" y="874" type="curve" smooth="yes"/>
      <point x="181" y="969"/>
      <point x="77" y="960"/>
      <point x="77" y="960" type="curve"/>
      <point x="77" y="1026" type="line"/>
      <point x="77" y="1026"/>
      <point x="181" y="1027"/>
      <point x="181" y="1105" type="curve" smooth="yes"/>
      <point x="181" y="1164"/>
      <point x="140" y="1200"/>
      <point x="91" y="1200" type="curve" smooth="yes"/>
      <point x="60" y="1200"/>
      <point x="37" y="1190"/>
      <point x="20" y="1177" type="curve"/>
      <point x="20" y="1250" type="line"/>
      <point x="52" y="1271"/>
      <point x="96" y="1289"/>
      <point x="156" y="1289" type="curve" smooth="yes"/>
      <point x="292" y="1289"/>
      <point x="358" y="1212"/>
      <point x="358" y="1128" type="curve" smooth="yes"/>
      <point x="358" y="1021"/>
      <point x="264" y="996"/>
      <point x="233" y="993" type="curve"/>
      <point x="264" y="990"/>
      <point x="358" y="963"/>
    </contour>
  </outline>
</glyph>
<glyph name="questiondown" format="1">
  <advance width="808"/>
  <unicode hex="00BF"/>
  <outline>
    <contour>
      <point x="326" y="622" type="curve" smooth="yes" name="hr00"/>
      <point x="428" y="622"/>
      <point x="511" y="705"/>
      <point x="511" y="807" type="curve" smooth="yes"/>
      <point x="511" y="909"/>
      <point x="428" y="992"/>
      <point x="326" y="992" type="curve" smooth="yes"/>
      <point x="224" y="992"/>
      <point x="141" y="909"/>
      <point x="141" y="807" type="curve" smooth="yes"/>
      <point x="141" y="705"/>
      <point x="224" y="622"/>
    </contour>
    <contour>
      <point x="384" y="-297" type="line"/>
      <point x="579" y="-297"/>
      <point x="743" y="-147"/>
      <point x="715" y="56" type="curve"/>
      <point x="548" y="128" type="line"/>
      <point x="589" y="8"/>
      <point x="559" y="-100"/>
      <point x="455" y="-103" type="curve" smooth="yes"/>
      <point x="361" y="-105"/>
      <point x="290" y="-30"/>
      <point x="396" y="184" type="curve" smooth="yes"/>
      <point x="494" y="383"/>
      <point x="428" y="491"/>
      <point x="428" y="492" type="curve"/>
      <point x="227" y="492" type="line"/>
      <point x="227" y="492"/>
      <point x="274" y="381"/>
      <point x="111" y="242" type="curve" smooth="yes"/>
      <point x="69" y="206"/>
      <point x="7" y="138"/>
      <point x="2" y="34" type="curve" smooth="yes"/>
      <point x="-5" y="-129"/>
      <point x="140" y="-296"/>
      <point x="386" y="-296" type="curve"/>
    </contour>
  </outline>
</glyph>
<glyph name="Agrave" format="1">
  <advance width="1254"/>
  <unicode hex="00C0"/>
  <outline>
    <contour>
      <point x="481" y="1717" type="line" name="hr00"/>
      <point x="258" y="1719" type="line"/>
      <point x="497" y="1390" type="line"/>
      <point x="631" y="1390" type="line"/>
    </contour>
    <contour>
      <point x="754" y="1290" type="line"/>
      <point x="256" y="1290" type="line"/>
      <point x="256" y="1100" type="line"/>
      <point x="376" y="1100" type="line"/>
      <point x="0" y="0" type="line"/>
      <point x="201" y="0" type="line"/>
      <point x="297" y="281" type="line"/>
      <point x="708" y="281" type="line"/>
      <point x="804" y="0" type="line"/>
      <point x="1185" y="0" type="line"/>
    </contour>
    <contour>
      <point x="363" y="476" type="line"/>
      <point x="502" y="882" type="line"/>
      <point x="641" y="476" type="line"/>
    </contour>
  </outline>
</glyph>
<glyph name="Aacute" format="1">
  <advance width="1254"/>
  <unicode hex="00C1"/>
  <outline>
    <contour>
      <point x="520" y="1716" type="line" name="hr00"/>
      <point x="743" y="1718" type="line"/>
      <point x="504" y="1389" type="line"/>
      <point x="370" y="1389" type="line"/>
    </contour>
    <contour>
      <point x="754" y="1290" type="line"/>
      <point x="256" y="1290" type="line"/>
      <point x="256" y="1100" type="line"/>
      <point x="376" y="1100" type="line"/>
      <point x="0" y="0" type="line"/>
      <point x="201" y="0" type="line"/>
      <point x="297" y="281" type="line"/>
      <point x="708" y="281" type="line"/>
      <point x="804" y="0" type="line"/>
      <point x="1185" y="0" type="line"/>
    </contour>
    <contour>
      <point x="363" y="476" type="line"/>
      <point x="502" y="882" type="line"/>
      <point x="641" y="476" type="line"/>
    </contour>
  </outline>
</glyph>
<glyph name="Acircumflex" format="1">
  <advance width="1254"/>
  <unicode hex="00C2"/>
  <outline>
    <contour>
      <point x="548" y="1716" type="line" name="hr00"/>
      <point x="454" y="1716" type="line"/>
      <point x="260" y="1387" type="line"/>
      <point x="413" y="1387" type="line"/>
      <point x="501" y="1533" type="line"/>
      <point x="589" y="1387" type="line"/>
      <point x="742" y="1387" type="line"/>
    </contour>
    <contour>
      <point x="754" y="1290" type="line"/>
      <point x="256" y="1290" type="line"/>
      <point x="256" y="1100" type="line"/>
      <point x="376" y="1100" type="line"/>
      <point x="0" y="0" type="line"/>
      <point x="201" y="0" type="line"/>
      <point x="297" y="281" type="line"/>
      <point x="708" y="281" type="line"/>
      <point x="804" y="0" type="line"/>
      <point x="1185" y="0" type="line"/>
    </contour>
    <contour>
      <point x="363" y="476" type="line"/>
      <point x="502" y="882" type="line"/>
      <point x="641" y="476" type="line"/>
    </contour>
  </outline>
</glyph>
<glyph name="Aring" format="1">
  <advance width="1254"/>
  <unicode hex="00C5"/>
  <outline>
    <contour>
      <point x="494" y="1716" type="curve" smooth="yes" name="hr00"/>
      <point x="404" y="1716"/>
      <point x="331" y="1643"/>
      <point x="331" y="1553" type="curve" smooth="yes"/>
      <point x="331" y="1463"/>
      <point x="404" y="1390"/>
      <point x="494" y="1390" type="curve" smooth="yes"/>
      <point x="584" y="1390"/>
      <point x="657" y="1463"/>
      <point x="657" y="1553" type="curve" smooth="yes"/>
      <point x="657" y="1643"/>
      <point x="584" y="1716"/>
    </contour>
    <contour>
      <point x="580" y="1552" type="curve" smooth="yes"/>
      <point x="580" y="1504"/>
      <point x="541" y="1465"/>
      <point x="493" y="1465" type="curve" smooth="yes"/>
      <point x="445" y="1465"/>
      <point x="406" y="1504"/>
      <point x="406" y="1552" type="curve" smooth="yes"/>
      <point x="406" y="1600"/>
      <point x="445" y="1639"/>
      <point x="493" y="1639" type="curve" smooth="yes"/>
      <point x="541" y="1639"/>
      <point x="580" y="1600"/>
    </contour>
    <contour>
      <point x="754" y="1289" type="line"/>
      <point x="256" y="1289" type="line"/>
      <point x="256" y="1099" type="line"/>
      <point x="376" y="1099" type="line"/>
      <point x="0" y="-1" type="line"/>
      <point x="201" y="-1" type="line"/>
      <point x="297" y="280" type="line"/>
      <point x="708" y="280" type="line"/>
      <point x="804" y="-1" type="line"/>
      <point x="1185" y="-1" type="line"/>
    </contour>
    <contour>
      <point x="363" y="475" type="line"/>
      <point x="502" y="881" type="line"/>
      <point x="641" y="475" type="line"/>
    </contour>
  </outline>
</glyph>
<glyph name="AE" format="1">
  <advance width="1736"/>
  <unicode hex="00C6"/>
  <outline>
    <contour>
      <point x="1596" y="393" type="line" name="hr01"/>
      <point x="1451" y="393" type="line"/>
      <point x="1451" y="225" type="line" smooth="yes"/>
      <point x="1451" y="205"/>
      <point x="1437" y="188"/>
      <point x="1402" y="184" type="curve"/>
      <point x="1056" y="184" type="line"/>
      <point x="1056" y="580" type="line"/>
      <point x="1192" y="580" type="line"/>
      <point x="1192" y="514" type="line"/>
      <point x="1337" y="514" type="line"/>
      <point x="1337" y="842" type="line"/>
      <point x="1192" y="842" type="line"/>
      <point x="1192" y="776" type="line"/>
      <point x="1056" y="776" type="line"/>
      <point x="1056" y="1100" type="line"/>
      <point x="1356" y="1100" type="line"/>
      <point x="1378" y="1099"/>
      <point x="1397" y="1083"/>
      <point x="1397" y="1038" type="curve" smooth="yes"/>
      <point x="1397" y="891" type="line" name="hr02"/>
      <point x="1542" y="891" type="line"/>
      <point x="1542" y="1291" type="line"/>
      <point x="395" y="1291" type="line"/>
      <point x="395" y="1100" type="line"/>
      <point x="515" y="1100" type="line"/>
      <point x="140" y="1" type="line"/>
      <point x="341" y="1" type="line"/>
      <point x="437" y="281" type="line"/>
      <point x="710" y="281" type="line"/>
      <point x="710" y="1" type="line"/>
      <point x="1596" y="1" type="line" name="hr03"/>
      <point x="1596" y="394" type="line"/>
    </contour>
    <contour>
      <point x="503" y="477" type="line"/>
      <point x="710" y="1082" type="line"/>
      <point x="710" y="477" type="line"/>
    </contour>
  </outline>
</glyph>
<glyph name="Egrave" format="1">
  <advance width="1118"/>
  <unicode hex="00C8"/>
  <outline>
    <contour>
      <point x="339" y="1717" type="line" name="hr01"/>
      <point x="116" y="1719" type="line"/>
      <point x="355" y="1390" type="line"/>
      <point x="489" y="1390" type="line"/>
    </contour>
    <contour>
      <point x="884" y="394" type="line" name="hr02"/>
      <point x="884" y="226" type="line" smooth="yes"/>
      <point x="884" y="206"/>
      <point x="870" y="189"/>
      <point x="835" y="185" type="curve"/>
      <point x="489" y="185" type="line"/>
      <point x="489" y="581" type="line"/>
      <point x="625" y="581" type="line"/>
      <point x="625" y="515" type="line"/>
      <point x="770" y="515" type="line"/>
      <point x="770" y="842" type="line"/>
      <point x="625" y="842" type="line"/>
      <point x="625" y="776" type="line"/>
      <point x="489" y="776" type="line"/>
      <point x="489" y="1100" type="line"/>
      <point x="789" y="1100" type="line"/>
      <point x="811" y="1099"/>
      <point x="830" y="1083"/>
      <point x="830" y="1038" type="curve" smooth="yes"/>
      <point x="830" y="891" type="line" name="hr03"/>
      <point x="975" y="891" type="line"/>
      <point x="975" y="1291" type="line"/>
      <point x="0" y="1291" type="line"/>
      <point x="0" y="1100" type="line"/>
      <point x="106" y="1100" type="line"/>
      <point x="106" y="1" type="line"/>
      <point x="1029" y="1" type="line" name="hr04"/>
      <point x="1029" y="394" type="line"/>
    </contour>
  </outline>
</glyph>
<glyph name="Eacute" format="1">
  <advance width="1118"/>
  <unicode hex="00C9"/>
  <outline>
    <contour>
      <point x="640" y="1717" type="line" name="hr01"/>
      <point x="863" y="1719" type="line"/>
      <point x="624" y="1390" type="line"/>
      <point x="490" y="1390" type="line"/>
    </contour>
    <contour>
      <point x="884" y="394" type="line" name="hr02"/>
      <point x="884" y="226" type="line" smooth="yes"/>
      <point x="884" y="206"/>
      <point x="870" y="189"/>
      <point x="835" y="185" type="curve"/>
      <point x="489" y="185" type="line"/>
      <point x="489" y="581" type="line"/>
      <point x="625" y="581" type="line"/>
      <point x="625" y="515" type="line"/>
      <point x="770" y="515" type="line"/>
      <point x="770" y="842" type="line"/>
      <point x="625" y="842" type="line"/>
      <point x="625" y="776" type="line"/>
      <point x="489" y="776" type="line"/>
      <point x="489" y="1100" type="line"/>
      <point x="789" y="1100" type="line"/>
      <point x="811" y="1099"/>
      <point x="830" y="1083"/>
      <point x="830" y="1038" type="curve" smooth="yes"/>
      <point x="830" y="891" type="line" name="hr03"/>
      <point x="975" y="891" type="line"/>
      <point x="975" y="1291" type="line"/>
      <point x="0" y="1291" type="line"/>
      <point x="0" y="1100" type="line"/>
      <point x="106" y="1100" type="line"/>
      <point x="106" y="1" type="line"/>
      <point x="1029" y="1" type="line" name="hr04"/>
      <point x="1029" y="394" type="line"/>
    </contour>
  </outline>
</glyph>
<glyph name="Ecircumflex" format="1">
  <advance width="1118"/>
  <unicode hex="00CA"/>
  <outline>
    <contour>
      <point x="540" y="1716" type="line" name="hr01"/>
      <point x="446" y="1716" type="line"/>
      <point x="252" y="1387" type="line"/>
      <point x="405" y="1387" type="line"/>
      <point x="493" y="1533" type="line"/>
      <point x="581" y="1387" type="line"/>
      <point x="734" y="1387" type="line"/>
    </contour>
    <contour>
      <point x="884" y="394" type="line" name="hr02"/>
      <point x="884" y="226" type="line" smooth="yes"/>
      <point x="884" y="206"/>
      <point x="870" y="189"/>
      <point x="835" y="185" type="curve"/>
      <point x="489" y="185" type="line"/>
      <point x="489" y="581" type="line"/>
      <point x="625" y="581" type="line"/>
      <point x="625" y="515" type="line"/>
      <point x="770" y="515" type="line"/>
      <point x="770" y="842" type="line"/>
      <point x="625" y="842" type="line"/>
      <point x="625" y="776" type="line"/>
      <point x="489" y="776" type="line"/>
      <point x="489" y="1100" type="line"/>
      <point x="789" y="1100" type="line"/>
      <point x="811" y="1099"/>
      <point x="830" y="1083"/>
      <point x="830" y="1038" type="curve" smooth="yes"/>
      <point x="830" y="891" type="line" name="hr03"/>
      <point x="975" y="891" type="line"/>
      <point x="975" y="1291" type="line"/>
      <point x="0" y="1291" type="line"/>
      <point x="0" y="1100" type="line"/>
      <point x="106" y="1100" type="line"/>
      <point x="106" y="1" type="line"/>
      <point x="1029" y="1" type="line" name="hr04"/>
      <point x="1029" y="394" type="line"/>
    </contour>
  </outline>
</glyph>
<glyph name="Edieresis" format="1">
  <advance width="1118"/>
  <unicode hex="00CB"/>
  <outline>
    <contour>
      <point x="883" y="393" type="line" name="hr01"/>
      <point x="883" y="225" type="line" smooth="yes"/>
      <point x="883" y="205"/>
      <point x="869" y="188"/>
      <point x="834" y="184" type="curve"/>
      <point x="488" y="184" type="line"/>
      <point x="488" y="580" type="line"/>
      <point x="624" y="580" type="line"/>
      <point x="624" y="514" type="line"/>
      <point x="769" y="514" type="line"/>
      <point x="769" y="841" type="line"/>
      <point x="624" y="841" type="line"/>
      <point x="624" y="775" type="line"/>
      <point x="488" y="775" type="line"/>
      <point x="488" y="1099" type="line"/>
      <point x="788" y="1099" type="line"/>
      <point x="810" y="1098"/>
      <point x="829" y="1082"/>
      <point x="829" y="1037" type="curve" smooth="yes"/>
      <point x="829" y="890" type="line" name="hr02"/>
      <point x="974" y="890" type="line"/>
      <point x="974" y="1290" type="line"/>
      <point x="-1" y="1290" type="line"/>
      <point x="-1" y="1099" type="line"/>
      <point x="105" y="1099" type="line"/>
      <point x="105" y="0" type="line"/>
      <point x="1028" y="0" type="line" name="hr03"/>
      <point x="1028" y="393" type="line"/>
    </contour>
    <contour>
      <point x="657" y="1411" type="line" name="hr04"/>
      <point x="729" y="1411"/>
      <point x="787" y="1469"/>
      <point x="787" y="1541" type="curve" smooth="yes"/>
      <point x="787" y="1613"/>
      <point x="729" y="1671"/>
      <point x="657" y="1671" type="curve" smooth="yes"/>
      <point x="585" y="1671"/>
      <point x="527" y="1612"/>
      <point x="527" y="1540" type="curve" smooth="yes"/>
      <point x="527" y="1468"/>
      <point x="585" y="1410"/>
      <point x="657" y="1410" type="curve"/>
    </contour>
    <contour>
      <point x="342" y="1410" type="line"/>
      <point x="414" y="1410"/>
      <point x="472" y="1468"/>
      <point x="472" y="1540" type="curve" smooth="yes"/>
      <point x="472" y="1612"/>
      <point x="414" y="1670"/>
      <point x="342" y="1670" type="curve" smooth="yes"/>
      <point x="270" y="1670"/>
      <point x="212" y="1611"/>
      <point x="212" y="1539" type="curve" smooth="yes"/>
      <point x="212" y="1467"/>
      <point x="270" y="1409"/>
      <point x="342" y="1409" type="curve"/>
    </contour>
  </outline>
</glyph>
<glyph name="Iacute" format="1">
  <advance width="734"/>
  <unicode hex="00CD"/>
  <outline>
    <contour>
      <point x="308" y="1717" type="line" name="hr00"/>
      <point x="531" y="1719" type="line"/>
      <point x="292" y="1390" type="line"/>
      <point x="158" y="1390" type="line"/>
    </contour>
    <contour>
      <point x="645" y="1100" type="line"/>
      <point x="645" y="1290" type="line"/>
      <point x="50" y="1290" type="line"/>
      <point x="50" y="1100" type="line"/>
      <point x="156" y="1100" type="line"/>
      <point x="156" y="185" type="line"/>
      <point x="50" y="185" type="line"/>
      <point x="50" y="0" type="line"/>
      <point x="645" y="0" type="line"/>
      <point x="645" y="185" type="line"/>
      <point x="539" y="185" type="line"/>
      <point x="539" y="1100" type="line"/>
    </contour>
  </outline>
</glyph>
<glyph name="Idieresis" format="1">
  <advance width="734"/>
  <unicode hex="00CF"/>
  <outline>
    <contour>
      <point x="646" y="1099" type="line" name="hr01"/>
      <point x="646" y="1289" type="line"/>
      <point x="51" y="1289" type="line"/>
      <point x="51" y="1099" type="line"/>
      <point x="157" y="1099" type="line"/>
      <point x="157" y="184" type="line"/>
      <point x="51" y="184" type="line"/>
      <point x="51" y="-1" type="line"/>
      <point x="646" y="-1" type="line"/>
      <point x="646" y="184" type="line"/>
      <point x="540" y="184" type="line"/>
      <point x="540" y="1099" type="line"/>
    </contour>
    <contour>
      <point x="505" y="1411" type="line" name="hr02"/>
      <point x="577" y="1411"/>
      <point x="635" y="1469"/>
      <point x="635" y="1541" type="curve" smooth="yes"/>
      <point x="635" y="1613"/>
      <point x="577" y="1671"/>
      <point x="505" y="1671" type="curve" smooth="yes"/>
      <point x="433" y="1671"/>
      <point x="375" y="1612"/>
      <point x="375" y="1540" type="curve" smooth="yes"/>
      <point x="375" y="1468"/>
      <point x="433" y="1410"/>
      <point x="505" y="1410" type="curve"/>
    </contour>
    <contour>
      <point x="190" y="1410" type="line"/>
      <point x="262" y="1410"/>
      <point x="320" y="1468"/>
      <point x="320" y="1540" type="curve" smooth="yes"/>
      <point x="320" y="1612"/>
      <point x="262" y="1670"/>
      <point x="190" y="1670" type="curve" smooth="yes"/>
      <point x="118" y="1670"/>
      <point x="60" y="1611"/>
      <point x="60" y="1539" type="curve" smooth="yes"/>
      <point x="60" y="1467"/>
      <point x="118" y="1409"/>
      <point x="190" y="1409" type="curve"/>
    </contour>
  </outline>
</glyph>
<glyph name="Eth" format="1">
  <advance width="1420"/>
  <unicode hex="00D0"/>
  <outline>
    <contour>
      <point x="140" y="417" type="line" name="hr00"/>
      <point x="882" y="417" type="line"/>
      <point x="882" y="571" type="line"/>
      <point x="140" y="571" type="line"/>
    </contour>
  </outline>
</glyph>
<glyph name="Ntilde" format="1">
  <advance width="1232"/>
  <unicode hex="00D1"/>
  <outline>
    <contour>
      <point x="729" y="1568" type="line" smooth="yes" name="hr01"/>
      <point x="729" y="1537"/>
      <point x="711" y="1498"/>
      <point x="653" y="1525" type="curve"/>
      <point x="653" y="1525"/>
      <point x="550" y="1584"/>
      <point x="480" y="1584" type="curve" smooth="yes"/>
      <point x="401" y="1584"/>
      <point x="303" y="1537"/>
      <point x="303" y="1412" type="curve" smooth="yes"/>
      <point x="303" y="1374" type="line"/>
      <point x="414" y="1374" type="line"/>
      <point x="414" y="1390" type="line" smooth="yes"/>
      <point x="415" y="1422"/>
      <point x="435" y="1463"/>
      <point x="490" y="1434" type="curve"/>
      <point x="490" y="1434"/>
      <point x="586" y="1375"/>
      <point x="663" y="1375" type="curve" smooth="yes"/>
      <point x="742" y="1375"/>
      <point x="840" y="1422"/>
      <point x="840" y="1547" type="curve" smooth="yes"/>
      <point x="840" y="1585" type="line"/>
      <point x="729" y="1585" type="line"/>
    </contour>
    <contour>
      <point x="942" y="1290" type="line" name="hr02"/>
      <point x="942" y="540" type="line"/>
      <point x="432" y="1290" type="line"/>
      <point x="0" y="1290" type="line"/>
      <point x="0" y="1100" type="line"/>
      <point x="107" y="1100" type="line"/>
      <point x="107" y="1" type="line"/>
      <point x="308" y="1" type="line"/>
      <point x="308" y="841" type="line"/>
      <point x="878" y="1" type="line"/>
      <point x="1143" y="1" type="line"/>
      <point x="1143" y="1290" type="line"/>
    </contour>
  </outline>
</glyph>
<glyph name="Ograve" format="1">
  <advance width="1297"/>
  <unicode hex="00D2"/>
  <outline>
    <contour>
      <point x="685" y="1712" type="line" name="hr01"/>
      <point x="462" y="1714" type="line"/>
      <point x="701" y="1385" type="line"/>
      <point x="835" y="1385" type="line"/>
    </contour>
    <contour>
      <point x="1069" y="1106" type="line" name="hr02"/>
      <point x="966" y="1235"/>
      <point x="831" y="1325"/>
      <point x="653" y="1325" type="curve" smooth="yes"/>
      <point x="471" y="1325"/>
      <point x="335" y="1227"/>
      <point x="231" y="1087" type="curve" smooth="yes"/>
      <point x="138" y="962"/>
      <point x="81" y="797"/>
      <point x="81" y="616" type="curve" smooth="yes"/>
      <point x="81" y="449"/>
      <point x="138" y="297"/>
      <point x="230" y="182" type="curve" smooth="yes"/>
      <point x="333" y="53"/>
      <point x="479" y="-37"/>
      <point x="646" y="-37" type="curve" smooth="yes"/>
      <point x="813" y="-37"/>
      <point x="963" y="60"/>
      <point x="1067" y="200" type="curve" smooth="yes"/>
      <point x="1160" y="325"/>
      <point x="1217" y="490"/>
      <point x="1217" y="671" type="curve" smooth="yes"/>
      <point x="1217" y="837"/>
      <point x="1160" y="989"/>
      <point x="1068" y="1104" type="curve"/>
    </contour>
    <contour>
      <point x="796" y="315" type="line" smooth="yes"/>
      <point x="796" y="233"/>
      <point x="730" y="167"/>
      <point x="648" y="167" type="curve" smooth="yes"/>
      <point x="566" y="167"/>
      <point x="500" y="233"/>
      <point x="500" y="315" type="curve" smooth="yes"/>
      <point x="500" y="969" type="line" smooth="yes"/>
      <point x="500" y="1051"/>
      <point x="566" y="1117"/>
      <point x="648" y="1117" type="curve" smooth="yes"/>
      <point x="730" y="1117"/>
      <point x="796" y="1051"/>
      <point x="796" y="969" type="curve" smooth="yes"/>
    </contour>
  </outline>
</glyph>
<glyph name="Ocircumflex" format="1">
  <advance width="1297"/>
  <unicode hex="00D4"/>
  <outline>
    <contour>
      <point x="696" y="1716" type="line" name="hr01"/>
      <point x="602" y="1716" type="line"/>
      <point x="408" y="1387" type="line"/>
      <point x="561" y="1387" type="line"/>
      <point x="649" y="1533" type="line"/>
      <point x="737" y="1387" type="line"/>
      <point x="890" y="1387" type="line"/>
    </contour>
    <contour>
      <point x="1069" y="1107" type="line" name="hr02"/>
      <point x="966" y="1236"/>
      <point x="831" y="1326"/>
      <point x="653" y="1326" type="curve" smooth="yes"/>
      <point x="471" y="1326"/>
      <point x="335" y="1228"/>
      <point x="231" y="1088" type="curve" smooth="yes"/>
      <point x="138" y="963"/>
      <point x="81" y="798"/>
      <point x="81" y="617" type="curve" smooth="yes"/>
      <point x="81" y="450"/>
      <point x="138" y="298"/>
      <point x="230" y="183" type="curve" smooth="yes"/>
      <point x="333" y="54"/>
      <point x="479" y="-36"/>
      <point x="646" y="-36" type="curve" smooth="yes"/>
      <point x="813" y="-36"/>
      <point x="963" y="61"/>
      <point x="1067" y="201" type="curve" smooth="yes"/>
      <point x="1160" y="326"/>
      <point x="1217" y="491"/>
      <point x="1217" y="672" type="curve" smooth="yes"/>
      <point x="1217" y="838"/>
      <point x="1160" y="990"/>
      <point x="1068" y="1105" type="curve"/>
    </contour>
    <contour>
      <point x="796" y="316" type="line" smooth="yes"/>
      <point x="796" y="234"/>
      <point x="730" y="168"/>
      <point x="648" y="168" type="curve" smooth="yes"/>
      <point x="566" y="168"/>
      <point x="500" y="234"/>
      <point x="500" y="316" type="curve" smooth="yes"/>
      <point x="500" y="970" type="line" smooth="yes"/>
      <point x="500" y="1052"/>
      <point x="566" y="1118"/>
      <point x="648" y="1118" type="curve" smooth="yes"/>
      <point x="730" y="1118"/>
      <point x="796" y="1052"/>
      <point x="796" y="970" type="curve" smooth="yes"/>
    </contour>
  </outline>
</glyph>
<glyph name="Otilde" format="1">
  <advance width="1297"/>
  <unicode hex="00D5"/>
  <outline>
    <contour>
      <point x="808" y="1566" type="line" smooth="yes" name="hr01"/>
      <point x="808" y="1535"/>
      <point x="790" y="1496"/>
      <point x="732" y="1523" type="curve"/>
      <point x="732" y="1523"/>
      <point x="629" y="1582"/>
      <point x="559" y="1582" type="curve" smooth="yes"/>
      <point x="480" y="1582"/>
      <point x="382" y="1535"/>
      <point x="382" y="1410" type="curve" smooth="yes"/>
      <point x="382" y="1372" type="line"/>
      <point x="493" y="1372" type="line"/>
      <point x="493" y="1388" type="line" smooth="yes"/>
      <point x="494" y="1420"/>
      <point x="514" y="1461"/>
      <point x="569" y="1432" type="curve"/>
      <point x="569" y="1432"/>
      <point x="665" y="1373"/>
      <point x="742" y="1373" type="curve" smooth="yes"/>
      <point x="821" y="1373"/>
      <point x="919" y="1420"/>
      <point x="919" y="1545" type="curve" smooth="yes"/>
      <point x="919" y="1583" type="line"/>
      <point x="808" y="1583" type="line"/>
    </contour>
    <contour>
      <point x="1069" y="1107" type="line" name="hr02"/>
      <point x="966" y="1236"/>
      <point x="831" y="1326"/>
      <point x="653" y="1326" type="curve" smooth="yes"/>
      <point x="471" y="1326"/>
      <point x="335" y="1228"/>
      <point x="231" y="1088" type="curve" smooth="yes"/>
      <point x="138" y="963"/>
      <point x="81" y="798"/>
      <point x="81" y="617" type="curve" smooth="yes"/>
      <point x="81" y="450"/>
      <point x="138" y="298"/>
      <point x="230" y="183" type="curve" smooth="yes"/>
      <point x="333" y="54"/>
      <point x="479" y="-36"/>
      <point x="646" y="-36" type="curve" smooth="yes"/>
      <point x="813" y="-36"/>
      <point x="963" y="61"/>
      <point x="1067" y="201" type="curve" smooth="yes"/>
      <point x="1160" y="326"/>
      <point x="1217" y="491"/>
      <point x="1217" y="672" type="curve" smooth="yes"/>
      <point x="1217" y="838"/>
      <point x="1160" y="990"/>
      <point x="1068" y="1105" type="curve"/>
    </contour>
    <contour>
      <point x="796" y="316" type="line" smooth="yes"/>
      <point x="796" y="234"/>
      <point x="730" y="168"/>
      <point x="648" y="168" type="curve" smooth="yes"/>
      <point x="566" y="168"/>
      <point x="500" y="234"/>
      <point x="500" y="316" type="curve" smooth="yes"/>
      <point x="500" y="970" type="line" smooth="yes"/>
      <point x="500" y="1052"/>
      <point x="566" y="1118"/>
      <point x="648" y="1118" type="curve" smooth="yes"/>
      <point x="730" y="1118"/>
      <point x="796" y="1052"/>
      <point x="796" y="970" type="curve" smooth="yes"/>
    </contour>
  </outline>
</glyph>
<glyph name="Odieresis" format="1">
  <advance width="1297"/>
  <unicode hex="00D6"/>
  <outline>
    <contour>
      <point x="1069" y="1106" type="line" name="hr01"/>
      <point x="966" y="1235"/>
      <point x="831" y="1325"/>
      <point x="653" y="1325" type="curve" smooth="yes"/>
      <point x="471" y="1325"/>
      <point x="335" y="1227"/>
      <point x="231" y="1087" type="curve" smooth="yes"/>
      <point x="138" y="962"/>
      <point x="81" y="797"/>
      <point x="81" y="616" type="curve" smooth="yes"/>
      <point x="81" y="449"/>
      <point x="138" y="297"/>
      <point x="230" y="182" type="curve" smooth="yes"/>
      <point x="333" y="53"/>
      <point x="479" y="-37"/>
      <point x="646" y="-37" type="curve" smooth="yes"/>
      <point x="813" y="-37"/>
      <point x="963" y="60"/>
      <point x="1067" y="200" type="curve" smooth="yes"/>
      <point x="1160" y="325"/>
      <point x="1217" y="490"/>
      <point x="1217" y="671" type="curve" smooth="yes"/>
      <point x="1217" y="837"/>
      <point x="1160" y="989"/>
      <point x="1068" y="1104" type="curve"/>
    </contour>
    <contour>
      <point x="796" y="315" type="line" smooth="yes"/>
      <point x="796" y="233"/>
      <point x="730" y="167"/>
      <point x="648" y="167" type="curve" smooth="yes"/>
      <point x="566" y="167"/>
      <point x="500" y="233"/>
      <point x="500" y="315" type="curve" smooth="yes"/>
      <point x="500" y="969" type="line" smooth="yes"/>
      <point x="500" y="1051"/>
      <point x="566" y="1117"/>
      <point x="648" y="1117" type="curve" smooth="yes"/>
      <point x="730" y="1117"/>
      <point x="796" y="1051"/>
      <point x="796" y="969" type="curve" smooth="yes"/>
    </contour>
    <contour>
      <point x="808" y="1409" type="line" name="hr02"/>
      <point x="880" y="1409"/>
      <point x="938" y="1467"/>
      <point x="938" y="1539" type="curve" smooth="yes"/>
      <point x="938" y="1611"/>
      <point x="880" y="1669"/>
      <point x="808" y="1669" type="curve" smooth="yes"/>
      <point x="736" y="1669"/>
      <point x="678" y="1610"/>
      <point x="678" y="1538" type="curve" smooth="yes"/>
      <point x="678" y="1466"/>
      <point x="736" y="1408"/>
      <point x="808" y="1408" type="curve"/>
    </contour>
    <contour>
      <point x="493" y="1408" type="line"/>
      <point x="565" y="1408"/>
      <point x="623" y="1466"/>
      <point x="623" y="1538" type="curve" smooth="yes"/>
      <point x="623" y="1610"/>
      <point x="565" y="1668"/>
      <point x="493" y="1668" type="curve" smooth="yes"/>
      <point x="421" y="1668"/>
      <point x="363" y="1609"/>
      <point x="363" y="1537" type="curve" smooth="yes"/>
      <point x="363" y="1465"/>
      <point x="421" y="1407"/>
      <point x="493" y="1407" type="curve"/>
    </contour>
  </outline>
</glyph>
<glyph name="multiply" format="1">
  <advance width="1116"/>
  <unicode hex="00D7"/>
  <outline>
    <contour>
      <point x="682" y="494" type="line"/>
      <point x="1036" y="0" type="line"/>
      <point x="789" y="0" type="line"/>
      <point x="558" y="321" type="line"/>
      <point x="328" y="0" type="line"/>
      <point x="80" y="0" type="line"/>
      <point x="434" y="494" type="line"/>
      <point x="80" y="987" type="line"/>
      <point x="327" y="987" type="line"/>
      <point x="558" y="665" type="line"/>
      <point x="789" y="987" type="line"/>
      <point x="1036" y="987" type="line"/>
    </contour>
  </outline>
</glyph>
<glyph name="Oslash" format="1">
  <advance width="1297"/>
  <unicode hex="00D8"/>
  <outline>
    <contour>
      <point x="1065" y="1112" type="line"/>
      <point x="1157" y="1000"/>
      <point x="1217" y="834"/>
      <point x="1217" y="672" type="curve" smooth="yes"/>
      <point x="1217" y="492"/>
      <point x="1160" y="327"/>
      <point x="1067" y="202" type="curve" smooth="yes"/>
      <point x="962" y="61"/>
      <point x="812" y="-36"/>
      <point x="645" y="-36" type="curve" smooth="yes"/>
      <point x="548" y="-36"/>
      <point x="447" y="-1"/>
      <point x="369" y="53" type="curve"/>
      <point x="310" y="-36" type="line"/>
      <point x="81" y="-36" type="line"/>
      <point x="227" y="185" type="line"/>
      <point x="136" y="300"/>
      <point x="80" y="450"/>
      <point x="80" y="616" type="curve" smooth="yes"/>
      <point x="80" y="797"/>
      <point x="137" y="961"/>
      <point x="230" y="1087" type="curve" smooth="yes"/>
      <point x="335" y="1227"/>
      <point x="471" y="1325"/>
      <point x="653" y="1325" type="curve" smooth="yes"/>
      <point x="756" y="1325"/>
      <point x="843" y="1294"/>
      <point x="920" y="1243" type="curve"/>
      <point x="973" y="1325" type="line"/>
      <point x="1204" y="1325" type="line"/>
    </contour>
    <contour>
      <point x="501" y="971" type="curve"/>
      <point x="501" y="971" type="line"/>
      <point x="501" y="602" type="line"/>
      <point x="782" y="1034" type="line"/>
      <point x="758" y="1084"/>
      <point x="708" y="1119"/>
      <point x="649" y="1119" type="curve" smooth="yes"/>
      <point x="567" y="1119"/>
      <point x="501" y="1053"/>
    </contour>
    <contour>
      <point x="649" y="169" type="curve" smooth="yes"/>
      <point x="730" y="169"/>
      <point x="797" y="235"/>
      <point x="797" y="317" type="curve" smooth="yes"/>
      <point x="797" y="704" type="line"/>
      <point x="510" y="267" type="line"/>
      <point x="531" y="210"/>
      <point x="589" y="169"/>
    </contour>
  </outline>
</glyph>
<glyph name="Ugrave" format="1">
  <advance width="1137"/>
  <unicode hex="00D9"/>
  <outline>
    <contour>
      <point x="699" y="1717" type="line" name="hr01"/>
      <point x="476" y="1719" type="line"/>
      <point x="715" y="1390" type="line"/>
      <point x="849" y="1390" type="line"/>
    </contour>
    <contour>
      <point x="1046" y="1290" type="line" name="hr02"/>
      <point x="847" y="1290" type="line"/>
      <point x="846" y="378" type="line" smooth="yes"/>
      <point x="846" y="215"/>
      <point x="766" y="158"/>
      <point x="667" y="158" type="curve" smooth="yes"/>
      <point x="568" y="158"/>
      <point x="488" y="223"/>
      <point x="488" y="376" type="curve" smooth="yes"/>
      <point x="488" y="1289" type="line"/>
      <point x="-1" y="1289" type="line"/>
      <point x="-1" y="1100" type="line"/>
      <point x="105" y="1100" type="line"/>
      <point x="105" y="397" type="line" smooth="yes"/>
      <point x="105" y="158"/>
      <point x="208" y="-37"/>
      <point x="592" y="-37" type="curve" smooth="yes"/>
      <point x="855" y="-37"/>
      <point x="1048" y="113"/>
      <point x="1048" y="390" type="curve" smooth="yes"/>
    </contour>
  </outline>
</glyph>
<glyph name="Ucircumflex" format="1">
  <advance width="1137"/>
  <unicode hex="00DB"/>
  <outline>
    <contour>
      <point x="715" y="1716" type="line" name="hr01"/>
      <point x="621" y="1716" type="line"/>
      <point x="427" y="1387" type="line"/>
      <point x="580" y="1387" type="line"/>
      <point x="668" y="1533" type="line"/>
      <point x="756" y="1387" type="line"/>
      <point x="909" y="1387" type="line"/>
    </contour>
    <contour>
      <point x="1046" y="1290" type="line" name="hr02"/>
      <point x="847" y="1290" type="line"/>
      <point x="846" y="378" type="line" smooth="yes"/>
      <point x="846" y="215"/>
      <point x="766" y="158"/>
      <point x="667" y="158" type="curve" smooth="yes"/>
      <point x="568" y="158"/>
      <point x="488" y="223"/>
      <point x="488" y="376" type="curve" smooth="yes"/>
      <point x="488" y="1289" type="line"/>
      <point x="-1" y="1289" type="line"/>
      <point x="-1" y="1100" type="line"/>
      <point x="105" y="1100" type="line"/>
      <point x="105" y="397" type="line" smooth="yes"/>
      <point x="105" y="158"/>
      <point x="208" y="-37"/>
      <point x="592" y="-37" type="curve" smooth="yes"/>
      <point x="855" y="-37"/>
      <point x="1048" y="113"/>
      <point x="1048" y="390" type="curve" smooth="yes"/>
    </contour>
  </outline>
</glyph>
<glyph name="Udieresis" format="1">
  <advance width="1137"/>
  <unicode hex="00DC"/>
  <outline>
    <contour>
      <point x="1046" y="1289" type="line" name="hr01"/>
      <point x="847" y="1289" type="line"/>
      <point x="846" y="377" type="line" smooth="yes"/>
      <point x="846" y="214"/>
      <point x="766" y="157"/>
      <point x="667" y="157" type="curve" smooth="yes"/>
      <point x="568" y="157"/>
      <point x="488" y="222"/>
      <point x="488" y="375" type="curve" smooth="yes"/>
      <point x="488" y="1288" type="line"/>
      <point x="-1" y="1288" type="line"/>
      <point x="-1" y="1099" type="line"/>
      <point x="105" y="1099" type="line"/>
      <point x="105" y="396" type="line" smooth="yes"/>
      <point x="105" y="157"/>
      <point x="208" y="-38"/>
      <point x="592" y="-38" type="curve" smooth="yes"/>
      <point x="855" y="-38"/>
      <point x="1048" y="112"/>
      <point x="1048" y="389" type="curve" smooth="yes"/>
    </contour>
    <contour>
      <point x="829" y="1409" type="line" name="hr02"/>
      <point x="901" y="1409"/>
      <point x="959" y="1467"/>
      <point x="959" y="1539" type="curve" smooth="yes"/>
      <point x="959" y="1611"/>
      <point x="901" y="1669"/>
      <point x="829" y="1669" type="curve" smooth="yes"/>
      <point x="757" y="1669"/>
      <point x="699" y="1610"/>
      <point x="699" y="1538" type="curve" smooth="yes"/>
      <point x="699" y="1466"/>
      <point x="757" y="1408"/>
      <point x="829" y="1408" type="curve"/>
    </contour>
    <contour>
      <point x="514" y="1408" type="line"/>
      <point x="586" y="1408"/>
      <point x="644" y="1466"/>
      <point x="644" y="1538" type="curve" smooth="yes"/>
      <point x="644" y="1610"/>
      <point x="586" y="1668"/>
      <point x="514" y="1668" type="curve" smooth="yes"/>
      <point x="442" y="1668"/>
      <point x="384" y="1609"/>
      <point x="384" y="1537" type="curve" smooth="yes"/>
      <point x="384" y="1465"/>
      <point x="442" y="1407"/>
      <point x="514" y="1407" type="curve"/>
    </contour>
  </outline>
</glyph>
<glyph name="Yacute" format="1">
  <advance width="1410"/>
  <unicode hex="00DD"/>
  <outline>
    <contour>
      <point x="719" y="1717" type="line" name="hr00"/>
      <point x="942" y="1719" type="line"/>
      <point x="703" y="1390" type="line"/>
      <point x="569" y="1390" type="line"/>
    </contour>
    <contour>
      <point x="1320" y="1290" type="line"/>
      <point x="1102" y="1290" type="line"/>
      <point x="754" y="647" type="line"/>
      <point x="404" y="1290" type="line"/>
      <point x="0" y="1290" type="line"/>
      <point x="0" y="1100" type="line"/>
      <point x="102" y="1099" type="line"/>
      <point x="486" y="397" type="line"/>
      <point x="486" y="1" type="line"/>
      <point x="869" y="1" type="line"/>
      <point x="869" y="458" type="line"/>
    </contour>
  </outline>
</glyph>
<glyph name="Thorn" format="1">
  <advance width="1164"/>
  <unicode hex="00DE"/>
  <outline>
    <contour>
      <point x="475.428" y="1060.7" type="line"/>
      <point x="475.428" y="1060.7"/>
      <point x="574.385" y="1166.63"/>
      <point x="718.708" y="1166.72" type="curve" smooth="yes"/>
      <point x="988.991" y="1166.72"/>
      <point x="1084.88" y="877.156"/>
      <point x="1084.88" y="629.223" type="curve" smooth="yes"/>
      <point x="1084.88" y="343.484"/>
      <point x="926.26" y="143.992"/>
      <point x="699.183" y="143.992" type="curve" smooth="yes"/>
      <point x="553.28" y="143.992"/>
      <point x="475.428" y="243.032"/>
      <point x="475.428" y="243.032" type="curve"/>
      <point x="475.345" y="0" type="line"/>
      <point x="105.604" y="0" type="line"/>
      <point x="105.521" y="1113.62" type="line"/>
      <point x="0" y="1113.62" type="line"/>
      <point x="0" y="1290.31" type="line"/>
      <point x="475.345" y="1289.48" type="line"/>
    </contour>
    <contour>
      <point x="673.093" y="467.202" type="curve"/>
      <point x="673.176" y="467.202" type="line"/>
      <point x="673.176" y="833.452" type="line" smooth="yes"/>
      <point x="673.176" y="910.89"/>
      <point x="610.195" y="973.869"/>
      <point x="532.924" y="973.869" type="curve" smooth="yes"/>
      <point x="475.428" y="974.867" type="line"/>
      <point x="475.428" y="326.037" type="line"/>
      <point x="532.758" y="326.868" type="line" smooth="yes"/>
      <point x="610.112" y="326.868"/>
      <point x="673.093" y="389.847"/>
    </contour>
  </outline>
</glyph>
<glyph name="Thorn" format="1">
  <advance width="1164"/>
  <unicode hex="00DE"/>
  <outline>
    <contour>
      <point x="475" y="1061" type="line" name="hr00"/>
      <point x="475" y="1290" type="line"/>
      <point x="0" y="1291" type="line"/>
      <point x="0" y="1114" type="line"/>
      <point x="106" y="1114" type="line"/>
      <point x="106" y="0" type="line"/>
      <point x="476" y="0" type="line"/>
      <point x="476" y="243" type="line"/>
      <point x="476" y="243"/>
      <point x="554" y="144"/>
      <point x="700" y="144" type="curve" smooth="yes"/>
      <point x="927" y="144"/>
      <point x="1086" y="343"/>
      <point x="1086" y="629" type="curve" smooth="yes"/>
      <point x="1086" y="877"/>
      <point x="990" y="1167"/>
      <point x="720" y="1167" type="curve" smooth="yes"/>
      <point x="576" y="1167"/>
      <point x="477" y="1061"/>
      <point x="477" y="1061" type="curve"/>
    </contour>
    <contour>
      <point x="675" y="468" type="line"/>
      <point x="675" y="391"/>
      <point x="612" y="328"/>
      <point x="535" y="328" type="curve"/>
      <point x="478" y="327" type="line"/>
      <point x="478" y="976" type="line"/>
      <point x="535" y="975" type="line"/>
      <point x="612" y="975"/>
      <point x="675" y="912"/>
      <point x="675" y="835" type="curve" smooth="yes"/>
      <point x="675" y="469" type="line"/>
    </contour>
  </outline>
</glyph>
<glyph name="germandbls" format="1">
  <advance width="1268"/>
  <unicode hex="00DF"/>
  <outline>
    <contour>
      <point x="942" y="697" type="line" name="hr01"/>
      <point x="1052" y="749"/>
      <point x="1140" y="812"/>
      <point x="1140" y="966" type="curve" smooth="yes"/>
      <point x="1140" y="1188"/>
      <point x="942" y="1324"/>
      <point x="656" y="1324" type="curve" smooth="yes"/>
      <point x="284" y="1324"/>
      <point x="106" y="1070"/>
      <point x="106" y="795" type="curve" smooth="yes"/>
      <point x="105" y="184" type="line"/>
      <point x="0" y="184" type="line"/>
      <point x="0" y="-1" type="line"/>
      <point x="475" y="-1" type="line"/>
      <point x="475" y="958" type="line" smooth="yes"/>
      <point x="475" y="1036"/>
      <point x="542" y="1101"/>
      <point x="616" y="1101" type="curve" smooth="yes"/>
      <point x="720" y="1101"/>
      <point x="763" y="1050"/>
      <point x="763" y="987" type="curve" smooth="yes"/>
      <point x="763" y="909" type="line" smooth="yes"/>
      <point x="763" y="847"/>
      <point x="714" y="795"/>
      <point x="656" y="795" type="curve" smooth="yes"/>
      <point x="600" y="795" type="line"/>
      <point x="600" y="594" type="line"/>
      <point x="673" y="594" type="line" smooth="yes"/>
      <point x="740" y="594"/>
      <point x="794" y="536"/>
      <point x="794" y="464" type="curve" smooth="yes" name="hr02"/>
      <point x="794" y="314" type="line" smooth="yes"/>
      <point x="794" y="244"/>
      <point x="739" y="185"/>
      <point x="673" y="185" type="curve" smooth="yes"/>
      <point x="600" y="185" type="line"/>
      <point x="600" y="0" type="line"/>
      <point x="754" y="0" type="line" smooth="yes"/>
      <point x="993" y="0"/>
      <point x="1188" y="178"/>
      <point x="1188" y="402" type="curve" smooth="yes"/>
      <point x="1188" y="574"/>
      <point x="1072" y="645"/>
      <point x="942" y="698" type="curve"/>
    </contour>
  </outline>
</glyph>
<glyph name="aacute" format="1">
  <advance width="1186"/>
  <unicode hex="00E1"/>
  <outline>
    <contour>
      <point x="562" y="1406" type="line" name="hr01"/>
      <point x="785" y="1408" type="line"/>
      <point x="546" y="1079" type="line"/>
      <point x="412" y="1079" type="line"/>
    </contour>
    <contour>
      <point x="1031" y="558" type="line" smooth="yes" name="hr02"/>
      <point x="1031" y="871"/>
      <point x="881" y="1011"/>
      <point x="545" y="1011" type="curve" smooth="yes"/>
      <point x="351" y="1011"/>
      <point x="202" y="936"/>
      <point x="125" y="799" type="curve"/>
      <point x="232" y="690" type="line"/>
      <point x="280" y="784"/>
      <point x="387" y="818"/>
      <point x="466" y="818" type="curve" smooth="yes"/>
      <point x="654" y="818"/>
      <point x="662" y="661"/>
      <point x="662" y="661" type="curve"/>
      <point x="662" y="661"/>
      <point x="60" y="651"/>
      <point x="60" y="257" type="curve" smooth="yes"/>
      <point x="60" y="75"/>
      <point x="236" y="-23"/>
      <point x="402" y="-23" type="curve" smooth="yes"/>
      <point x="592" y="-23"/>
      <point x="661" y="99"/>
      <point x="661" y="99" type="curve"/>
      <point x="661" y="0" type="line" name="hr03"/>
      <point x="1136" y="0" type="line"/>
      <point x="1136" y="172" type="line"/>
      <point x="1030" y="172" type="line"/>
    </contour>
    <contour>
      <point x="660" y="197" type="line"/>
      <point x="658" y="195" type="line"/>
      <point x="658" y="195"/>
      <point x="634" y="170"/>
      <point x="586" y="170" type="curve" smooth="yes" name="hr04"/>
      <point x="500" y="170"/>
      <point x="447" y="255"/>
      <point x="447" y="333" type="curve" smooth="yes"/>
      <point x="447" y="491"/>
      <point x="650" y="546"/>
      <point x="652" y="547" type="curve" smooth="yes"/>
      <point x="660" y="549" type="line"/>
    </contour>
  </outline>
</glyph>
<glyph name="acircumflex" format="1">
  <advance width="1186"/>
  <unicode hex="00E2"/>
  <outline>
    <contour>
      <point x="592" y="1406" type="line" name="hr01"/>
      <point x="498" y="1406" type="line"/>
      <point x="304" y="1077" type="line"/>
      <point x="457" y="1077" type="line"/>
      <point x="545" y="1223" type="line"/>
      <point x="633" y="1077" type="line"/>
      <point x="786" y="1077" type="line"/>
    </contour>
    <contour>
      <point x="1031" y="558" type="line" smooth="yes" name="hr02"/>
      <point x="1031" y="871"/>
      <point x="881" y="1011"/>
      <point x="545" y="1011" type="curve" smooth="yes"/>
      <point x="351" y="1011"/>
      <point x="202" y="936"/>
      <point x="125" y="799" type="curve"/>
      <point x="232" y="690" type="line"/>
      <point x="280" y="784"/>
      <point x="387" y="818"/>
      <point x="466" y="818" type="curve" smooth="yes"/>
      <point x="654" y="818"/>
      <point x="662" y="661"/>
      <point x="662" y="661" type="curve"/>
      <point x="662" y="661"/>
      <point x="60" y="651"/>
      <point x="60" y="257" type="curve" smooth="yes"/>
      <point x="60" y="75"/>
      <point x="236" y="-23"/>
      <point x="402" y="-23" type="curve" smooth="yes"/>
      <point x="592" y="-23"/>
      <point x="661" y="99"/>
      <point x="661" y="99" type="curve"/>
      <point x="661" y="0" type="line" name="hr03"/>
      <point x="1136" y="0" type="line"/>
      <point x="1136" y="172" type="line"/>
      <point x="1030" y="172" type="line"/>
    </contour>
    <contour>
      <point x="660" y="197" type="line"/>
      <point x="658" y="195" type="line"/>
      <point x="658" y="195"/>
      <point x="634" y="170"/>
      <point x="586" y="170" type="curve" smooth="yes" name="hr04"/>
      <point x="500" y="170"/>
      <point x="447" y="255"/>
      <point x="447" y="333" type="curve" smooth="yes"/>
      <point x="447" y="491"/>
      <point x="650" y="546"/>
      <point x="652" y="547" type="curve" smooth="yes"/>
      <point x="660" y="549" type="line"/>
    </contour>
  </outline>
</glyph>
